<svg width="120" height="108" viewBox="0 0 120 108" fill="none" xmlns="http://www.w3.org/2000/svg">
<path d="M30.0035 78.6745C27.3314 78.6745 26.3462 76.3978 25.6944 74.891C25.345 74.0841 25.0927 73.5011 24.6837 73.4683C24.6442 73.4651 24.6052 73.4634 24.5662 73.4634C23.833 73.4634 23.2129 73.9961 22.4945 74.613C21.6186 75.3652 20.6255 76.2184 19.2077 76.2184C18.5308 76.2184 17.8235 76.03 17.0453 75.6424C16.7595 75.5003 16.3841 74.9638 15.9494 74.3431C14.9904 72.9733 13.6768 71.0978 11.7723 71.0978C11.7404 71.0978 11.7079 71.0983 11.676 71.0994C11.5994 71.1021 11.523 71.1035 11.4453 71.1035C8.90319 71.1035 5.54467 69.6627 3.27751 67.5996C1.6264 66.0973 -0.118628 61.2125 0.165038 58.8882C1.2453 50.0337 8.93133 49.3456 11.2613 49.3456C11.7231 49.3456 12.001 49.3719 12.004 49.3722L12.0847 49.3798L12.1296 49.3123C12.1678 49.2552 15.9607 43.5841 17.9142 42.6846C19.1568 42.1119 20.9831 41.8217 23.3423 41.8217C27.9543 41.8217 33.7372 42.9789 36.8369 44.0678C40.1235 45.2219 42.2136 47.9717 45.1193 54.9651C45.9719 57.0176 49.3356 57.2114 52.8963 57.4163C55.5697 57.5701 58.3341 57.7292 59.8049 58.7551C60.5904 59.3034 61.8344 61.2087 61.4782 62.2129C61.3424 62.5959 60.8706 62.8636 60.3706 63.1473C59.6447 63.5592 58.8218 64.0264 58.8254 64.9941C58.8335 67.0918 58.3235 68.6723 57.3085 69.6911C56.3473 70.6558 54.9041 71.1449 53.0181 71.1449C50.909 71.1449 48.7152 70.5507 47.2633 70.1572C46.5601 69.9669 46.0517 69.8291 45.8025 69.8291L45.7637 69.8302C44.0412 69.9371 43.233 70.6279 41.6233 72.0043C40.451 73.0063 38.8456 74.3789 36.127 76.2013C33.6795 77.8424 31.6194 78.6745 30.0035 78.6745Z" fill="#616161"/>
<path d="M23.3419 41.9571C27.9388 41.9571 33.7025 43.1104 36.7917 44.1955C40.0357 45.3348 42.1053 48.0656 44.9939 55.0171C45.8793 57.1478 49.2838 57.3438 52.8884 57.5511C55.5429 57.7038 58.2878 57.8618 59.7275 58.8658C60.4651 59.3806 61.682 61.2339 61.3504 62.1674C61.2316 62.5028 60.7809 62.7586 60.304 63.0295C59.5832 63.4385 58.6862 63.9477 58.69 64.9946C58.6981 67.055 58.2009 68.6032 57.2126 69.5955C56.278 70.5339 54.867 71.0095 53.0183 71.0095C50.9271 71.0095 48.7438 70.4178 47.299 70.0264C46.5592 69.8261 46.0704 69.6938 45.8027 69.6938C45.7862 69.6938 45.7705 69.6941 45.7559 69.6951C43.9881 69.8048 43.1682 70.5053 41.5355 71.9014C40.3657 72.9013 38.7638 74.2709 36.0517 76.0887C33.627 77.7146 31.5921 78.5391 30.0038 78.5391C27.4205 78.5391 26.4945 76.3997 25.8186 74.8374C25.4505 73.9869 25.1847 73.3728 24.6945 73.3333C24.6515 73.3297 24.6087 73.3281 24.5662 73.3281C23.7826 73.3281 23.1143 73.9022 22.4065 74.5101C21.5482 75.2475 20.5754 76.083 19.2079 76.083C18.5524 76.083 17.8649 75.8992 17.1056 75.5211C16.8509 75.3942 16.4668 74.8461 16.0606 74.2655C15.0845 72.8718 13.7477 70.9624 11.7728 70.9624C11.7395 70.9624 11.7054 70.963 11.6719 70.9643C11.5969 70.9668 11.5216 70.9681 11.4458 70.9681C8.93481 70.9681 5.61338 69.5417 3.36896 67.4997C1.74059 66.018 0.0196437 61.1987 0.300061 58.9047C0.755875 55.1692 2.42593 52.4849 5.26367 50.9264C7.55411 49.6688 10.0048 49.481 11.2618 49.481C11.7157 49.481 11.9888 49.5064 11.9915 49.5067L12.1528 49.5221L12.2427 49.3876C12.2806 49.3308 16.0524 43.6916 17.9712 42.8078C19.1955 42.2432 21.0025 41.9571 23.3419 41.9571ZM23.3419 41.6864C21.1644 41.6864 19.2134 41.9368 17.8573 42.5618C15.8462 43.4877 12.0167 49.2374 12.0167 49.2374C12.0167 49.2374 11.7363 49.2103 11.261 49.2103C8.80191 49.21 1.12102 49.9335 0.0304742 58.8717C-0.249943 61.1673 1.45232 66.1222 3.18598 67.6995C5.28884 69.6128 8.63869 71.2385 11.445 71.2385C11.5241 71.2385 11.602 71.2372 11.68 71.2345C11.7106 71.2334 11.7417 71.2328 11.772 71.2328C14.4912 71.2328 16.0121 75.2791 16.9844 75.7631C17.8302 76.1845 18.5621 76.3534 19.2071 76.3534C21.8126 76.3534 23.0012 73.5985 24.5657 73.5985C24.6011 73.5985 24.6366 73.5999 24.6723 73.6028C25.6757 73.6832 25.9006 78.8092 30.0032 78.8092C31.4879 78.8092 33.4805 78.1383 36.2019 76.3131C42.6948 71.9612 42.8813 70.1439 45.7718 69.9647C45.7813 69.9642 45.7913 69.9639 45.8019 69.9639C46.5183 69.9639 49.8747 71.2797 53.0175 71.2797C56.1013 71.2797 58.9796 70.0129 58.9598 64.993C58.9542 63.4572 61.2427 63.2791 61.6046 62.2576C61.9857 61.1841 60.6984 59.2139 59.8815 58.6433C56.4848 56.2743 46.714 58.4524 45.2432 54.9126C42.1876 47.5589 40.0923 45.0674 36.8805 43.9395C33.7794 42.8506 28.0349 41.6864 23.3419 41.6864Z" fill="white"/>
<path d="M40.0065 107.865C39.751 107.865 39.5556 107.797 39.4091 107.658C36.3735 104.783 33.0118 104.278 30.3107 103.873C27.8398 103.503 26.0544 103.235 25.7212 101.301C25.5344 100.219 25.201 99.2137 24.8786 98.2411C23.4871 94.0454 22.0484 89.7068 32.5779 78.1802C36.4182 73.9769 48.5002 66.3786 53.7713 64.8525L54.2014 64.7269C55.9029 64.2289 59.0698 63.3013 61.3653 63.3013C62.7761 63.3013 63.6598 63.6491 63.9917 64.3347C65.1163 66.6587 65.2544 74.3851 64.3907 86.6788C64.3406 87.389 64.3844 88.3616 64.4304 89.3912C64.5566 92.1937 64.7133 95.6819 63.178 96.6225C63.0484 96.7021 62.896 96.7408 62.7125 96.7408H62.7122C62.2142 96.7408 61.5724 96.4485 60.9515 96.1659C60.2981 95.8684 59.6222 95.5612 59.0549 95.5612C58.8917 95.5612 58.7412 95.5869 58.6075 95.6372C57.2216 96.1607 55.816 97.8449 54.3273 99.6281C52.8148 101.44 51.2508 103.314 49.7984 103.726C49.7337 103.744 49.6503 103.754 49.5502 103.754C49.3198 103.754 49.0248 103.705 48.7393 103.657C48.4342 103.606 48.1186 103.554 47.8514 103.554C47.6717 103.554 47.5288 103.577 47.4143 103.626C46.8497 103.862 45.9811 104.477 44.9753 105.189C43.2911 106.381 41.195 107.865 40.0065 107.865Z" fill="#616161"/>
<path d="M61.3655 63.4366C62.72 63.4366 63.5626 63.7587 63.87 64.3937C64.9687 66.6636 65.1057 74.5746 64.256 86.6693C64.2051 87.3871 64.2493 88.3637 64.2955 89.3974C64.4198 92.1648 64.5746 95.6083 63.1076 96.5075C62.9998 96.5735 62.8704 96.6055 62.7124 96.6055C62.2438 96.6055 61.6153 96.3194 61.0074 96.0427C60.341 95.7396 59.6516 95.4259 59.055 95.4259C58.8756 95.4259 58.7089 95.4543 58.5597 95.5106C57.1406 96.0463 55.7236 97.7439 54.2235 99.5414C52.7243 101.338 51.1736 103.195 49.7612 103.596C49.7087 103.611 49.6378 103.619 49.5504 103.619C49.3311 103.619 49.0415 103.57 48.7616 103.523C48.4511 103.472 48.1301 103.418 47.8516 103.418C47.6535 103.418 47.4932 103.445 47.3622 103.501C46.7835 103.743 45.9095 104.362 44.8972 105.078C43.2288 106.259 41.1522 107.729 40.0064 107.729C39.7872 107.729 39.6226 107.674 39.5021 107.56C36.4357 104.655 33.0509 104.147 30.3309 103.74C27.916 103.377 26.1712 103.115 25.8545 101.278C25.6661 100.186 25.331 99.1755 25.007 98.1986C24.2849 96.0205 23.6025 93.9637 24.3707 90.9795C25.2425 87.5931 27.9598 83.4364 32.6779 78.2717C36.5071 74.0803 48.5537 66.5039 53.8091 64.9824C53.9409 64.944 54.0849 64.902 54.2395 64.8568C55.9347 64.3604 59.0894 63.4366 61.3655 63.4366ZM61.3655 63.1659C58.8474 63.1659 55.3671 64.25 53.7341 64.7223C48.381 66.2725 36.2335 73.9785 32.4784 78.089C19.4842 92.3137 24.5907 95.5447 25.5882 101.324C26.3109 105.518 33.4929 102.241 39.3162 107.756C39.4943 107.925 39.729 108 40.0067 108C41.9369 108 45.9444 104.389 47.4672 103.75C47.572 103.706 47.7035 103.689 47.8519 103.689C48.3594 103.689 49.0629 103.889 49.5506 103.889C49.6578 103.889 49.7539 103.879 49.8359 103.856C52.7216 103.038 55.8538 96.8217 58.6558 95.7639C58.7798 95.7171 58.9135 95.6965 59.0556 95.6965C60.1277 95.6965 61.6549 96.8761 62.7129 96.8761C62.9102 96.8761 63.0908 96.8355 63.2494 96.7381C65.44 95.3958 64.3416 89.3076 64.5262 86.6883C64.9281 80.9665 65.7261 67.6061 64.1142 64.2757C63.7174 63.4572 62.6707 63.1659 61.3655 63.1659Z" fill="white"/>
<path d="M86.688 97.931C84.1299 97.931 79.9788 95.2981 78.7275 93.6449C78.3889 93.1966 78.3023 92.2189 78.2257 91.3566C78.1683 90.708 78.1142 90.0958 77.9642 89.6852C76.9909 87.0255 75.0361 85.5122 73.3113 84.177C72.5039 83.5517 71.7412 82.9617 71.2272 82.3413C68.9665 79.6137 64.9665 74.125 63.5769 68.0137C63.222 66.4525 64.6073 63.0948 65.7452 62.1655C67.1508 61.0182 70.8461 60.3834 72.8628 60.3834C72.9836 60.3834 73.0989 60.3859 73.2071 60.3905C74.9681 60.4665 77.4448 61.2428 80.0674 62.0651C82.9276 62.9619 85.8849 63.8887 87.9802 63.8884C88.1139 63.8884 88.2444 63.8846 88.3705 63.877C89.7726 63.792 92.2734 62.4784 93.5201 61.6708C93.6449 61.5896 93.7797 61.4932 93.9226 61.3906C94.4542 61.0095 95.116 60.5347 95.7713 60.5347C96.9222 60.5347 97.8354 62.0908 98.4859 65.1597C98.7749 66.5223 100.754 67.536 102.669 68.5164C104.282 69.3424 105.95 70.1967 106.451 71.1974C106.633 71.562 106.663 72.2349 106.693 72.8853C106.735 73.8345 106.779 74.816 107.266 75.2339C108.138 75.9804 109.913 76.0105 111.63 76.04C113.163 76.066 114.748 76.0928 115.557 76.6395C116.642 77.3741 117.759 80.1613 117.914 81.591C118.012 82.4796 117.299 84.2944 116.787 85.241C116.304 86.1301 115.291 87.3298 114.311 88.4896C113.358 89.6175 112.458 90.6829 111.974 91.5209C111.87 91.699 111.755 91.9467 111.634 92.2089C111.354 92.8123 111.005 93.5626 110.645 93.8102C110.115 94.1767 109.08 94.3318 108.079 94.4818C107.162 94.619 106.297 94.7487 105.759 95.0345C105.423 95.2131 105.015 95.5499 104.582 95.9066C103.901 96.468 103.13 97.1046 102.566 97.1704C102.421 97.1874 102.264 97.1961 102.098 97.1961C100.705 97.1961 98.8058 96.6152 96.7958 96.0003C94.6664 95.349 92.4647 94.6753 90.7416 94.6753C89.781 94.6753 89.0556 94.8813 88.5229 95.3046C88.2441 95.5282 88.1881 96.0357 88.1285 96.573C88.0771 97.0391 88.0187 97.5672 87.7981 97.6882C87.5055 97.8495 87.1322 97.931 86.688 97.931Z" fill="#616161"/>
<path d="M72.8628 60.5188C72.9813 60.5188 73.0947 60.5212 73.2014 60.5255C74.9445 60.6008 77.4136 61.3749 80.0272 62.194C82.8972 63.0937 85.8643 64.0237 87.9804 64.0237C88.1177 64.0237 88.2516 64.0199 88.3791 64.0121C89.8069 63.9255 92.3358 62.5994 93.5947 61.7842C93.723 61.7008 93.8586 61.6036 94.0021 61.5005C94.518 61.1305 95.1603 60.6701 95.772 60.6701C96.8501 60.6703 97.719 62.1902 98.3542 65.1879C98.6569 66.6135 100.665 67.6418 102.608 68.6368C104.202 69.4532 105.85 70.2968 106.331 71.258C106.5 71.5969 106.53 72.2552 106.558 72.8915C106.602 73.8695 106.647 74.8807 107.179 75.3368C108.088 76.115 109.888 76.1456 111.628 76.1753C113.142 76.201 114.707 76.2276 115.482 76.7516C116.519 77.4543 117.632 80.2327 117.78 81.6061C117.875 82.4658 117.173 84.2452 116.669 85.1763C116.192 86.0536 115.184 87.2475 114.208 88.4022C113.252 89.535 112.348 90.6049 111.857 91.4532C111.751 91.6365 111.635 91.8868 111.512 92.1518C111.253 92.7091 110.899 93.4722 110.568 93.6993C110.065 94.0473 109.046 94.2003 108.06 94.3478C107.131 94.4872 106.255 94.6185 105.696 94.9151C105.348 95.1005 104.935 95.4413 104.497 95.8021C103.831 96.3516 103.076 96.9747 102.551 97.0361C102.412 97.0526 102.259 97.0608 102.098 97.0608C100.726 97.0608 98.8363 96.4829 96.8363 95.8709C94.6975 95.2167 92.4858 94.54 90.7424 94.54C89.7501 94.54 88.9968 94.7554 88.4384 95.1996C88.1166 95.4578 88.0573 95.9924 87.9945 96.5584C87.9539 96.9262 87.8925 97.4825 87.733 97.5699C87.4607 97.7198 87.1091 97.7956 86.6885 97.7956C84.1669 97.7956 80.0716 95.1961 78.836 93.5634C78.5207 93.1457 78.4357 92.1889 78.361 91.3447C78.3028 90.6869 78.2478 90.066 78.0919 89.6386C77.105 86.9422 75.0479 85.3495 73.3946 84.0701C72.5935 83.4497 71.8364 82.8639 71.3318 82.2552C69.079 79.5366 65.0928 74.0676 63.7097 67.9839C63.3632 66.4598 64.7185 63.1792 65.8312 62.2703C67.1605 61.1852 70.8224 60.5188 72.8628 60.5188ZM72.8628 60.2481C70.8094 60.2481 67.0758 60.9048 65.6596 62.0605C64.4318 63.0634 63.0882 66.4739 63.445 68.0438C64.7826 73.9266 68.5225 79.2897 71.1229 82.4276C72.7069 84.3388 76.4035 85.8129 77.8372 89.7315C78.1867 90.6888 78.0045 92.9121 78.6197 93.7263C79.9236 95.4494 84.1195 98.066 86.6882 98.066C87.1381 98.066 87.5379 97.9859 87.8635 97.8067C88.4086 97.5076 88.1206 95.801 88.6076 95.4105C89.1476 94.9809 89.883 94.8104 90.7421 94.8104C94.0454 94.8104 99.1809 97.3312 102.098 97.3312C102.267 97.3312 102.429 97.3228 102.582 97.3046C103.551 97.1912 104.964 95.611 105.823 95.1539C106.936 94.5627 109.685 94.639 110.722 93.9215C111.277 93.5407 111.753 92.174 112.091 91.5883C113.084 89.8728 115.961 87.0472 116.907 85.3051C117.37 84.4498 118.157 82.5521 118.05 81.5761C117.899 80.1891 116.79 77.3097 115.634 76.5272C113.882 75.343 108.963 76.5072 107.355 75.1311C106.582 74.4677 107.03 72.0489 106.573 71.1367C105.456 68.9061 99.1359 67.5671 98.6192 65.1313C97.8294 61.4052 96.7781 60.3994 95.772 60.3991C94.8948 60.3991 94.0522 61.1641 93.4472 61.5568C92.2868 62.3085 89.7498 63.6575 88.3629 63.7417C88.2392 63.7493 88.1114 63.7528 87.9807 63.7528C84.0305 63.7528 76.9594 60.417 73.2133 60.2549C73.1031 60.2505 72.9857 60.2481 72.8628 60.2481Z" fill="white"/>
<path d="M59.4639 59.3554C55.5963 59.3551 47.7118 55.6423 45.9947 53.7381C45.5868 53.2856 45.3597 52.4283 45.0969 51.4352C44.755 50.1452 44.3298 48.5396 43.3199 47.2019C41.8807 45.2969 39.2132 43.8859 37.4482 42.9518C37.0059 42.7179 36.624 42.5157 36.3135 42.3355C35.7099 41.9847 34.2329 41.7979 32.1887 41.54C28.2569 41.0436 22.3148 40.293 18.838 37.6233C16.2258 35.6187 15.8474 30.9683 16.8177 27.6103C17.3131 25.8969 20.471 25.665 23.5248 25.4406C25.5857 25.2893 27.5326 25.1464 28.6259 24.5498C30.5636 23.4936 32.3636 19.9237 33.9516 16.7739C35.1648 14.3679 36.3105 12.0956 37.239 11.5483C37.4541 11.4213 37.7446 11.3596 38.1268 11.3596C38.8446 11.3596 39.7484 11.5805 40.6224 11.7943C41.4498 11.9968 42.2313 12.1879 42.8265 12.1879C42.899 12.1879 42.9683 12.1849 43.0349 12.179C45.7256 11.9381 46.9475 10.5687 47.9292 9.4687C48.584 8.73518 49.1009 8.15567 49.8613 8.14754C50.1958 8.14754 50.5063 8.79554 50.7802 9.3672C51.0606 9.95267 51.3256 10.5057 51.6945 10.6773C51.7833 10.7184 51.8837 10.7392 51.9934 10.7392C52.4018 10.7392 52.8869 10.4605 53.4 10.1651C53.8588 9.90124 54.3333 9.62867 54.6679 9.62867C54.7258 9.62867 54.7786 9.63706 54.8243 9.65412C55.8602 10.0355 57.2155 12.2718 57.4783 14.6941C57.615 15.9527 57.5386 18.2599 55.4926 19.5683C53.363 20.9312 52.9507 27.3616 52.8752 29.3001C52.8511 29.9135 52.8181 30.5593 52.7843 31.2187C52.6432 33.9719 52.4968 36.8189 52.8928 38.6814C53.0796 39.5584 53.6631 40.7174 54.2808 41.9449C54.9337 43.242 55.609 44.5834 55.7522 45.52C55.809 45.8916 55.6545 46.4784 55.5048 47.0457C55.3435 47.6583 55.1911 48.2367 55.2509 48.6589C55.4352 49.9595 56.8844 51.5814 58.4186 53.2983C60.293 55.396 62.2313 57.5652 61.2948 58.7591C60.984 59.1551 60.3685 59.3557 59.4656 59.3557C59.4645 59.3554 59.4639 59.3554 59.4639 59.3554Z" fill="#616161"/>
<path d="M49.8631 8.01247V8.28314C50.1097 8.28314 50.4261 8.94358 50.6572 9.42592C50.9485 10.0339 51.2235 10.6082 51.6368 10.8001C51.7437 10.8497 51.8631 10.8746 51.9925 10.8746C52.4372 10.8746 52.9371 10.5871 53.4666 10.2826C53.9102 10.0276 54.3684 9.76399 54.6667 9.76399C54.709 9.76399 54.746 9.76968 54.7766 9.78104C55.7754 10.1486 57.0849 12.3343 57.3426 14.7087C57.4758 15.9364 57.4032 18.1852 55.4187 19.4544C53.2338 20.8524 52.8153 27.3396 52.7393 29.2944C52.7149 29.907 52.6824 30.5406 52.6481 31.2116C52.5068 33.9736 52.3603 36.8297 52.7596 38.7095C52.9501 39.6036 53.5375 40.7702 54.1592 42.0055C54.8075 43.2931 55.4777 44.6248 55.6176 45.5402C55.6701 45.884 55.5194 46.457 55.3732 47.0111C55.2083 47.6371 55.0522 48.2283 55.116 48.6776C55.3061 50.0185 56.7685 51.6553 58.3168 53.3881C60.1541 55.4442 62.0539 57.5703 61.1875 58.6749C60.9033 59.0366 60.3238 59.2198 59.4639 59.2198C55.6241 59.2198 47.7987 55.5367 46.0953 53.6472C45.7091 53.2192 45.486 52.3764 45.2275 51.4003C44.8827 50.0986 44.4537 48.4789 43.4276 47.1202C41.9705 45.1908 39.2868 43.7714 37.5112 42.8319C37.0703 42.5986 36.6894 42.3972 36.3811 42.218C35.7534 41.8534 34.2653 41.6653 32.2052 41.4052C28.2877 40.9104 22.3676 40.1628 18.9197 37.5153C16.3551 35.5473 15.9891 30.9623 16.9468 27.6474C17.4159 26.0244 20.6661 25.7857 23.5339 25.5751C25.6099 25.4227 27.571 25.2787 28.6897 24.6683C30.6642 23.5919 32.4745 20.0019 34.0717 16.8345C35.2757 14.4469 36.4128 12.1917 37.3068 11.6647C37.4977 11.5521 37.7732 11.4949 38.1256 11.4949C38.8272 11.4949 39.7229 11.7139 40.5893 11.9259C41.4246 12.1302 42.2139 12.3232 42.8253 12.3232C42.9025 12.3232 42.9769 12.32 43.0454 12.3137C45.7897 12.068 47.0838 10.6177 48.0287 9.55882C48.6613 8.84993 49.161 8.29018 49.8615 8.28287L49.8631 8.01247ZM49.8631 8.01247C49.8617 8.01247 49.8604 8.01247 49.859 8.01247C47.8577 8.03385 47.4909 11.6444 43.0218 12.0444C42.9596 12.0501 42.8938 12.0528 42.8256 12.0528C41.62 12.0528 39.5383 11.2245 38.1259 11.2245C37.7499 11.2245 37.4213 11.2833 37.1693 11.4319C34.9869 12.7184 31.9599 22.5777 28.5603 24.431C25.8709 25.8975 17.5517 24.5812 16.6869 27.5724C15.7071 30.9634 16.0928 35.6872 18.7549 37.7302C23.977 41.74 34.4799 41.4263 36.245 42.4521C37.8447 43.3813 41.4449 44.9445 43.2113 47.2831C44.9782 49.6231 44.9114 52.7383 45.8939 53.8283C47.6384 55.7628 55.5478 59.4902 59.4636 59.4902C60.3582 59.4902 61.0433 59.2961 61.4 58.8417C63.1718 56.5826 55.7968 51.5554 55.3835 48.6392C55.2709 47.8439 56.0063 46.2922 55.8848 45.4988C55.606 43.6734 53.4095 40.4619 53.0243 38.6527C52.5354 36.3536 52.8868 32.4137 53.0094 29.3047C53.0779 27.5486 53.4944 21.0064 55.5643 19.6817C59.6198 17.0881 56.8795 10.2664 54.87 9.52634C54.8072 9.50334 54.739 9.49251 54.6667 9.49251C53.9251 9.49251 52.7363 10.6031 51.9922 10.6031C51.9051 10.6031 51.8238 10.5879 51.7502 10.5538C51.0416 10.2252 50.6332 8.01247 49.8631 8.01247Z" fill="white"/>
<path d="M64.0025 57.7414C62.2072 57.7414 59.1756 54.8146 58.0537 53.2461C54.8822 48.8113 52.9588 45.2839 52.6367 43.3131C52.4716 42.3006 52.8245 40.6194 53.1366 39.1358C53.3158 38.2821 53.4853 37.4758 53.5391 36.8782C53.6709 35.4049 53.4438 33.1404 53.2243 30.9504C53.0213 28.9242 52.8113 26.8289 52.9028 25.4641C52.9932 24.1105 53.2885 22.2954 53.8225 21.6352C53.9717 21.4514 54.3479 21.2963 54.7119 21.1458C55.0673 20.9994 55.4027 20.8611 55.5922 20.6773C57.3404 18.9807 58.4965 15.3031 59.6146 11.7464C60.6107 8.57845 61.5513 5.58643 62.8552 3.96266C64.1395 2.36217 67.9097 0.13588 69.8621 0.13588C70.64 0.137233 72.0645 0.860745 72.9153 1.29301L73.2244 1.44919C73.5995 1.63622 74.0816 1.91015 74.5921 2.1995C76.0229 3.01179 77.8036 4.02248 78.9624 4.14293C78.9968 4.14645 79.0325 4.14834 79.069 4.14834C79.4631 4.14834 79.9576 3.94913 80.4814 3.738C80.9878 3.53391 81.5118 3.32279 81.8997 3.32279C82.0015 3.32279 82.09 3.33768 82.1636 3.36718C83.1565 3.76372 83.789 5.50712 84.401 7.19314C84.8825 8.51999 85.3376 9.7732 85.9677 10.4068C86.3526 10.7936 87.1159 10.9163 87.9244 11.0462C88.6292 11.1593 89.3581 11.2765 89.6848 11.5772C90.2944 12.1381 90.7897 14.065 90.5006 14.7495C90.2484 15.3453 89.34 15.9013 88.4614 16.4391C87.6957 16.9076 86.9724 17.3504 86.6314 17.8358C86.1848 18.4707 85.9295 20.084 86.0654 20.8245C86.1525 21.3015 86.4933 21.9059 86.8541 22.5455C87.2553 23.2571 87.6705 23.993 87.6916 24.5022C87.7308 25.4612 86.7459 27.3004 86.077 28.0956C85.7184 28.5214 85.0801 29.0224 84.4045 29.5529C83.5205 30.2467 82.6065 30.9642 82.2013 31.6103C81.7457 32.3354 81.5105 33.6631 81.2831 34.9474C81.1454 35.7248 81.0154 36.4592 80.8492 36.9512C80.3642 38.3872 78.7735 41.0495 77.8591 42.3406C77.6607 42.621 77.4355 42.944 77.19 43.2956C75.701 45.4304 73.4509 48.6562 71.8623 49.9774C71.5048 50.2749 70.8684 50.555 70.1947 50.8514C69.3895 51.206 68.5569 51.5722 68.1422 52.008C67.6712 52.5025 67.2322 53.4141 66.7675 54.3796C66.0496 55.871 65.2357 57.5617 64.2369 57.723C64.1625 57.7354 64.0837 57.7414 64.0025 57.7414Z" fill="#616161"/>
<path d="M69.862 0.000541049L69.8691 0.271214C70.6075 0.272568 72.0136 0.987148 72.8538 1.41373C72.9667 1.47111 73.0709 1.52389 73.164 1.57045C73.5359 1.75613 74.0161 2.0287 74.5249 2.3175C75.9668 3.13602 77.7614 4.15457 78.9483 4.27772C78.987 4.28178 79.0273 4.28368 79.0685 4.28368C79.4891 4.28368 79.9952 4.07959 80.5314 3.86359C81.026 3.66438 81.5375 3.45839 81.8994 3.45812C81.9836 3.45812 82.0553 3.46976 82.1127 3.49277C83.0493 3.86684 83.6715 5.58129 84.273 7.23916C84.7599 8.58062 85.2195 9.84737 85.8708 10.5021C86.2865 10.92 87.0712 11.0462 87.9016 11.1796C88.5867 11.2898 89.295 11.4035 89.5922 11.6768C90.1601 12.1995 90.643 14.0623 90.375 14.6965C90.1398 15.2524 89.2501 15.7968 88.3896 16.3235C87.6115 16.7996 86.8766 17.2492 86.5198 17.7578C86.0478 18.4288 85.7882 20.068 85.9314 20.8486C86.0226 21.348 86.3685 21.9619 86.7353 22.6121C87.1288 23.3098 87.5357 24.0312 87.5554 24.5076C87.592 25.403 86.6354 27.2203 85.9725 28.0087C85.6228 28.4239 84.9897 28.9209 84.3201 29.4468C83.4268 30.1479 82.5036 30.873 82.0859 31.5386C81.6163 32.2862 81.3787 33.6274 81.1491 34.9244C81.0122 35.6967 80.8833 36.4261 80.7204 36.9085C80.2397 38.3325 78.6576 40.9783 77.7481 42.2632C77.5494 42.5439 77.3242 42.8668 77.0785 43.219C75.5938 45.3475 73.3499 48.5645 71.7752 49.874C71.4322 50.1593 70.7753 50.4484 70.1398 50.728C69.3223 51.088 68.477 51.4599 68.0439 51.9154C67.5581 52.4254 67.1144 53.3465 66.6451 54.3217C65.9413 55.7831 65.1437 57.4401 64.2147 57.5898C64.1476 57.6006 64.0761 57.6063 64.002 57.6063C62.2523 57.6063 59.2709 54.7166 58.1635 53.1676C55.004 48.7496 53.0884 45.2422 52.7701 43.2918C52.6085 42.3044 52.9593 40.6359 53.2687 39.164C53.449 38.3065 53.6192 37.4961 53.6736 36.8903C53.8065 35.4043 53.5789 33.1334 53.3588 30.9371C53.1561 28.9166 52.9469 26.827 53.0373 25.4733C53.109 24.3993 53.3772 22.4001 53.927 21.7205C54.0545 21.5632 54.431 21.4081 54.7634 21.2709C55.1307 21.1193 55.4782 20.9761 55.6858 20.7745C57.459 19.0543 58.6204 15.3596 59.7435 11.787C60.6916 8.77036 61.6723 5.65139 62.9604 4.04738C64.2277 2.46827 67.9414 0.271214 69.8615 0.271214V0.000541049M69.862 0.000541049C67.8166 0.000541049 64.0231 2.29125 62.7498 3.87794C59.9221 7.39967 58.7303 17.4438 55.498 20.5801C55.1331 20.9341 54.0382 21.1542 53.7175 21.5499C53.0944 22.32 52.8351 24.4469 52.7677 25.4552C52.5777 28.2954 53.6579 34.0331 53.4046 36.866C53.2579 38.4952 52.2377 41.7089 52.5035 43.3348C52.9601 46.1309 56.2908 51.013 57.944 53.3245C59.0319 54.8457 62.0997 57.8765 64.0028 57.8765C64.0907 57.8765 64.1763 57.8702 64.2588 57.8567C65.9806 57.5787 67.0384 53.3635 68.2404 52.1016C68.971 51.334 71.1364 50.7575 71.9489 50.0816C73.8141 48.5304 76.5599 44.4099 77.9695 42.4191C78.8627 41.1575 80.4784 38.4724 80.9772 36.9945C81.4138 35.7005 81.5944 32.83 82.3155 31.6823C83.0124 30.5712 85.3378 29.1829 86.1799 28.1828C86.8238 27.4168 87.8678 25.5207 87.8261 24.4965C87.7844 23.4944 86.3785 21.7897 86.1977 20.7999C86.0637 20.0693 86.3247 18.5054 86.7412 17.9134C87.4601 16.8897 90.1333 15.9621 90.6246 14.802C90.9518 14.0276 90.4067 12.0582 89.7757 11.4776C89.0503 10.8099 86.7591 11.011 86.0629 10.311C84.6476 8.8881 84.0548 3.977 82.2131 3.24104C82.1192 3.20369 82.0139 3.18718 81.8992 3.18718C81.0866 3.18718 79.819 4.01246 79.0685 4.01246C79.0368 4.01246 79.0059 4.01084 78.9759 4.00786C77.4303 3.84735 74.693 2.03032 73.2847 1.32765C72.4627 0.917312 70.7745 0.00162404 69.8696 0C69.8672 0.000541347 69.8648 0.000541049 69.862 0.000541049Z" fill="white"/>
<path d="M89.5171 62.3347C88.6447 62.3347 87.493 61.9956 86.3794 61.6678C85.297 61.3489 84.2749 61.0479 83.5111 61.0479C83.4602 61.0479 83.4101 61.0493 83.362 61.0523C83.0461 61.0701 82.6523 61.3059 82.2712 61.5332C82.0013 61.6946 81.7222 61.8613 81.5268 61.9108C81.019 62.0383 80.3486 62.103 79.5347 62.103H79.5344C77.713 62.103 75.4965 61.7944 73.5409 61.5224C72.6125 61.393 71.7357 61.2712 71.0564 61.2074C70.8358 61.1868 70.5629 61.17 70.2581 61.1516C68.7957 61.0625 66.3474 60.9137 65.8551 59.9533C65.1871 58.6508 67.0517 55.4252 68.1829 54.5133C68.7223 54.0786 69.765 53.7273 70.773 53.3879C71.8781 53.0154 73.0206 52.6305 73.6104 52.1073C75.3636 50.5528 76.6566 47.0823 77.9068 43.7259C78.8409 41.2184 79.7233 38.85 80.7299 37.4544C82.3645 35.1883 87.2651 31.9075 90.0622 30.4039C90.4601 30.1901 91.054 29.9503 91.683 29.6964C92.711 29.2812 93.7745 28.8516 94.3581 28.4026C95.6589 27.4013 98.5676 24.6562 99.4167 23.1745C99.6936 22.6916 99.9321 22.0623 100.184 21.3956C100.596 20.3097 101.021 19.1867 101.638 18.6489C102.289 18.0802 103.709 17.6982 105.173 17.6982C106.34 17.6982 107.327 17.9367 107.883 18.3525C108.342 18.697 108.571 19.3529 108.773 19.9316C108.869 20.2074 108.96 20.4678 109.067 20.6632C109.792 21.9798 111.807 24.1162 112.947 24.942C113.26 25.168 113.759 25.3718 114.287 25.5878C115.037 25.8942 115.887 26.2418 116.186 26.6697C116.412 26.9956 116.398 27.7451 116.386 28.3476C116.38 28.6805 116.374 28.9951 116.405 29.2249C116.492 29.8729 116.871 30.7382 117.272 31.6544C117.706 32.6475 118.155 33.6745 118.19 34.3674C118.231 35.1632 117.668 36.3133 117.124 37.4255C116.448 38.8072 115.748 40.2364 116.04 41.2376C116.154 41.6298 116.696 41.894 117.221 42.1495C117.593 42.3306 117.979 42.5179 118.123 42.716C118.937 43.8328 119.256 46.925 118.672 48.0521C117.92 49.507 115.013 51.5024 113.422 52.1839C112.804 52.4484 111.842 52.6519 110.824 52.8671C109.499 53.1478 108.128 53.4379 107.354 53.9011C106.616 54.3417 105.925 55.399 105.193 56.5185C104.314 57.8643 103.405 59.2555 102.436 59.4837C102.377 59.4975 102.314 59.5045 102.247 59.5045C101.611 59.5045 100.739 58.8798 99.8952 58.2762C99.0202 57.6496 98.1935 57.0577 97.5203 57.0398L97.4719 57.0393C96.1521 57.0393 94.6826 58.4657 93.2616 59.8448C92.1459 60.928 91.0919 61.9509 90.1818 62.2451C89.9978 62.3041 89.7742 62.3347 89.5171 62.3347Z" fill="#616161"/>
<path d="M105.173 17.8333C106.311 17.8333 107.269 18.0618 107.802 18.4602C108.228 18.7801 108.45 19.4154 108.645 19.976C108.743 20.2572 108.836 20.523 108.949 20.7284C109.682 22.0591 111.717 24.2177 112.868 25.0516C113.194 25.2871 113.7 25.4939 114.236 25.7129C114.968 26.0122 115.799 26.3514 116.074 26.7466C116.276 27.0365 116.262 27.7619 116.251 28.3446C116.244 28.683 116.238 29.0024 116.27 29.2427C116.361 29.9091 116.743 30.7829 117.148 31.708C117.577 32.69 118.021 33.7053 118.055 34.3739C118.094 35.1345 117.539 36.2686 117.002 37.3654C116.314 38.7704 115.603 40.2234 115.91 41.2744C116.04 41.7248 116.61 42.002 117.162 42.2705C117.503 42.4364 117.889 42.6246 118.013 42.7948C118.789 43.8594 119.106 46.9177 118.552 47.989C117.813 49.4179 114.942 51.3849 113.368 52.0589C112.763 52.3176 111.807 52.5198 110.796 52.7342C109.46 53.017 108.078 53.3097 107.284 53.7841C106.519 54.241 105.82 55.311 105.08 56.4438C104.215 57.7671 103.321 59.1354 102.405 59.3511C102.356 59.3627 102.302 59.3684 102.246 59.3684C101.654 59.3684 100.799 58.7567 99.9736 58.1655C99.081 57.5265 98.2378 56.9226 97.523 56.9037C97.5056 56.9034 97.4886 56.9031 97.4713 56.9031C96.0965 56.9031 94.607 58.3488 93.1667 59.7471C92.1114 60.7716 91.0198 61.831 90.1393 62.1157C89.9687 62.171 89.7595 62.1991 89.5164 62.1991C88.6638 62.1991 87.5216 61.8629 86.4172 61.5378C85.3253 61.2163 84.2935 60.9123 83.5107 60.9123C83.4572 60.9123 83.4046 60.9139 83.354 60.9169C83.0051 60.9367 82.5964 61.1811 82.2015 61.4171C81.9398 61.5733 81.6693 61.7349 81.4937 61.7793C80.9965 61.9041 80.3374 61.9674 79.534 61.9674C77.7224 61.9674 75.5104 61.6594 73.5592 61.3879C72.6294 61.2585 71.7511 61.1364 71.0687 61.0723C70.8449 61.0515 70.5769 61.0349 70.2662 61.0163C68.8324 60.9291 66.4326 60.7832 65.9752 59.8916C65.3334 58.6398 67.1634 55.5089 68.2678 54.6186C68.7883 54.1991 69.819 53.8518 70.8162 53.5162C71.934 53.1394 73.0896 52.7502 73.6999 52.2086C75.4785 50.6316 76.7775 47.1448 78.0337 43.773C78.9645 41.2744 79.8439 38.9142 80.8397 37.5332C82.4616 35.2844 87.34 32.0204 90.1263 30.5227C90.5174 30.3124 91.108 30.074 91.7335 29.8214C92.7702 29.4027 93.8421 28.9699 94.4408 28.5095C95.749 27.5026 98.6766 24.7376 99.5341 23.2416C99.8164 22.7493 100.057 22.1148 100.311 21.4433C100.716 20.3728 101.135 19.266 101.727 18.7504C102.355 18.2017 103.74 17.8333 105.173 17.8333ZM105.173 17.5626C103.757 17.5626 102.272 17.9151 101.549 18.5465C100.522 19.4419 100.025 21.842 99.2994 23.1068C98.4749 24.5452 95.5855 27.2868 94.2754 28.2948C93.3435 29.0118 91.0363 29.7264 89.998 30.2843C87.4055 31.678 82.3422 34.9872 80.6202 37.3748C78.2499 40.6616 76.5477 49.3216 73.5207 52.0058C72.4153 52.9867 69.2492 53.4802 68.0981 54.4078C66.9204 55.357 65.0216 58.6241 65.7348 60.015C66.3644 61.2428 69.6888 61.2152 71.0438 61.3419C73.0909 61.5341 76.8008 62.2381 79.5343 62.2381C80.3073 62.2381 81.0024 62.1818 81.5597 62.0416C82.0475 61.9187 82.8649 61.2157 83.3697 61.1871C83.4155 61.1843 83.4628 61.183 83.511 61.183C85.0455 61.183 87.7855 62.4698 89.5167 62.4698C89.7776 62.4698 90.0156 62.4405 90.2229 62.3734C92.3512 61.6854 95.2052 57.1741 97.4713 57.1741C97.4864 57.1741 97.5008 57.1743 97.5159 57.1746C98.8035 57.209 100.912 59.6393 102.247 59.6393C102.323 59.6393 102.396 59.6315 102.467 59.6147C104.3 59.183 105.816 54.9757 107.423 54.0164C108.764 53.2149 112.033 52.9242 113.474 52.3076C115.036 51.6388 118.011 49.6239 118.792 48.1135C119.413 46.9134 119.053 43.7622 118.232 42.6354C117.861 42.1276 116.343 41.8003 116.169 41.1992C115.658 39.4436 118.418 36.1725 118.325 34.3598C118.257 33.0102 116.721 30.5493 116.538 29.2059C116.45 28.5541 116.676 27.1372 116.296 26.5915C115.763 25.8271 113.78 25.3767 113.026 24.8318C111.871 23.9952 109.874 21.8469 109.185 20.5974C108.865 20.016 108.686 18.7858 107.963 18.2434C107.342 17.7781 106.279 17.5626 105.173 17.5626Z" fill="white"/>
<path d="M74.6037 19.5136C75.6923 20.6843 80.4408 18.4104 80.4751 16.7931C80.5087 15.198 77.2945 12.4851 75.7007 12.5592C73.6701 12.654 70.1517 15.4668 68.9677 17.1198C61.7654 27.178 62.3817 55.4769 63.1504 59.3164C63.3916 60.5217 64.4502 65.317 64.3027 64.0965C61.5559 41.37 69.5914 23.8918 70.0353 22.8998C70.4984 21.8642 72.621 17.3807 74.6037 19.5136Z" fill="#616161" stroke="white" stroke-width="0.816807" stroke-miterlimit="10"/>
<path d="M43.312 42.0656C43.1685 42.8857 40.4477 43.2398 39.9737 42.5428C39.506 41.8556 40.141 39.7573 40.8586 39.3375C41.7726 38.8029 44.1088 39.033 45.0957 39.4195C51.0979 41.7706 58.8605 54.3122 59.6146 56.2077C59.8506 56.8032 60.7495 59.1992 60.4675 58.6243C55.2175 47.9124 46.7452 42.5558 46.2696 42.248C45.7737 41.9273 43.5726 40.571 43.312 42.0656Z" fill="#616161" stroke="white" stroke-width="0.816807" stroke-miterlimit="10"/>
</svg>
