<?xml version="1.0" encoding="utf-8"?>
<!-- Generator: Adobe Illustrator 14.0.0, SVG Export Plug-In . SVG Version: 6.00 Build 43363)  -->
<!DOCTYPE svg PUBLIC "-//W3C//DTD SVG 1.1//EN" "http://www.w3.org/Graphics/SVG/1.1/DTD/svg11.dtd">
<svg version="1.1" id="Calque_1" xmlns="http://www.w3.org/2000/svg" xmlns:xlink="http://www.w3.org/1999/xlink" x="0px" y="0px"
	 width="170.08px" height="42.52px" viewBox="0 0 170.08 42.52" enable-background="new 0 0 170.08 42.52" xml:space="preserve">
<polygon fill="#BD1F2D" points="35.95,2.121 46.183,19.799 56.372,2.121 59.118,2.121 58.756,2.76 58.756,30.781 56.354,30.781 
	56.354,6.923 46.183,24.545 35.969,6.923 35.969,30.781 33.586,30.781 33.586,2.76 33.206,2.121 "/>
<g>
	<path fill="#BD1F2D" d="M112.185,2.121h2.401v20.439c-0.297,2.244-1.228,4.139-2.774,5.691c-1.853,1.85-4.1,2.783-6.713,2.783
		c-2.641,0-4.881-0.938-6.734-2.795c-1.854-1.861-2.782-4.092-2.782-6.7V2.121h2.42v19.419c0,1.94,0.69,3.604,2.081,4.991
		c1.386,1.387,3.057,2.078,5.016,2.078c1.965,0,3.635-0.691,5.014-2.078c1.382-1.387,2.072-3.051,2.072-4.991V2.121z"/>
	<path fill="#BD1F2D" d="M130.849,21.125h-4.314v9.657h-2.4V2.122h7.755c2.229,0.299,4.121,1.23,5.675,2.781
		c1.85,1.852,2.771,4.092,2.771,6.71c0,2.634-0.922,4.876-2.771,6.731c-1.293,1.286-2.574,2.086-3.859,2.406l6.521,10.032h-2.928
		L130.849,21.125z M126.534,4.539v14.185h4.314c1.953,0,3.621-0.695,5.007-2.083c1.388-1.386,2.081-3.063,2.081-5.028
		c0-1.955-0.693-3.623-2.081-5c-1.386-1.383-3.054-2.074-5.007-2.074H126.534z"/>
	<polygon fill="#BD1F2D" points="155.881,19.234 146.01,2.122 148.774,2.122 157.092,16.549 165.409,2.122 168.177,2.122 
		158.282,19.234 158.282,30.781 155.881,30.781 	"/>
	<polygon fill="#BD1F2D" points="12.99,21.743 12.505,20.469 21.144,20.469 21.144,21.645 	"/>
	<polygon fill="#BD1F2D" points="3.637,30.781 6.189,30.781 14.605,7.681 23.002,30.781 25.554,30.781 14.605,0.684 	"/>
	<polygon fill="#BD1F2D" points="76.145,21.743 75.66,20.469 84.299,20.469 84.299,21.645 	"/>
	<polygon fill="#BD1F2D" points="66.792,30.781 69.344,30.781 77.765,7.681 86.157,30.781 88.709,30.781 77.765,0.684 	"/>
	<polygon fill-rule="evenodd" clip-rule="evenodd" points="159.196,34.65 159.196,34.215 155.43,34.215 155.43,41.748 
		159.196,41.748 159.196,41.309 155.854,41.309 155.854,38.211 159.196,38.211 159.196,37.773 155.854,37.773 155.854,34.65 	"/>
	<path fill-rule="evenodd" clip-rule="evenodd" d="M152.117,34.215h-1.694v7.533h0.426v-2.611h1.269
		c1.364,0,2.471-1.104,2.471-2.461C154.588,35.32,153.481,34.215,152.117,34.215 M152.117,38.703h0.014h-1.282V34.65h0.758
		l0.511-0.004c1.127,0,2.032,0.906,2.032,2.029C154.149,37.795,153.244,38.703,152.117,38.703"/>
	<path fill-rule="evenodd" clip-rule="evenodd" d="M134.204,36.676c0-1.355-1.103-2.461-2.471-2.461h-1.697v7.533h0.426v-2.611
		h1.271c0.04,0,0.075-0.006,0.113-0.006l1.699,2.617h0.519l-1.743-2.68C133.402,38.803,134.204,37.838,134.204,36.676
		 M130.462,34.65h0.759l0.513-0.006c1.127,0,2.033,0.91,2.033,2.031s-0.906,2.027-2.033,2.027h0.018h-1.289V34.65z"/>
	<path fill-rule="evenodd" clip-rule="evenodd" d="M148.565,34.215v4.643h0.004l0.004,0.484c0,1.123-0.906,2.031-2.031,2.031
		c-1.122,0-2.032-0.908-2.032-2.031l0.002,0.016v-5.143h-0.435v5.127c0,1.365,1.104,2.465,2.465,2.465
		c1.357,0,2.464-1.1,2.464-2.465v-5.127H148.565z"/>
	<path fill-rule="evenodd" clip-rule="evenodd" d="M138.906,34.125c-2.142,0-3.878,1.729-3.878,3.855
		c0,2.133,1.736,3.855,3.878,3.855c2.144,0,3.88-1.723,3.88-3.855C142.786,35.854,141.05,34.125,138.906,34.125 M138.906,41.404
		c-1.883,0-3.405-1.527-3.405-3.424c0-1.885,1.522-3.426,3.405-3.426c1.886,0,3.404,1.541,3.404,3.426
		C142.311,39.877,140.792,41.404,138.906,41.404"/>
	<path fill-rule="evenodd" clip-rule="evenodd" d="M128.248,40.65c-0.581,0.473-1.323,0.754-2.125,0.754
		c-1.883,0-3.405-1.527-3.405-3.424c0-1.885,1.522-3.424,3.405-3.424c0.87,0,1.663,0.328,2.265,0.869l0.315-0.314
		c-0.687-0.613-1.587-0.988-2.585-0.988c-2.135,0-3.871,1.729-3.871,3.857c0,2.135,1.736,3.854,3.871,3.854
		c1.003,0,1.904-0.373,2.59-0.988v-2.48h-0.46V40.65z"/>
</g>
</svg>
