<?xml version="1.0" encoding="utf-8"?>
<!-- Generator: Adobe Illustrator 14.0.0, SVG Export Plug-In . SVG Version: 6.00 Build 43363)  -->
<!DOCTYPE svg PUBLIC "-//W3C//DTD SVG 1.1//EN" "http://www.w3.org/Graphics/SVG/1.1/DTD/svg11.dtd">
<svg version="1.1" id="Calque_1" xmlns="http://www.w3.org/2000/svg" xmlns:xlink="http://www.w3.org/1999/xlink" x="0px" y="0px"
	 width="253.41px" height="34.5px" viewBox="0 0 253.41 34.5" enable-background="new 0 0 253.41 34.5" xml:space="preserve">
<g>
	<g>
		<g>
			<path fill="#FFFFFF" d="M-0.006,0H253.41v34.5c-36.631,0-73.26,0-109.893,0c-47.842,0-95.685,0-143.523,0V0"/>
		</g>
	</g>
	<g>
		<polyline fill="#B0B2B3" points="142.11,10.906 142.11,14.25 147.81,14.25 147.81,18.659 142.11,18.659 142.11,26.55 
			136.897,26.55 136.897,6.493 148.368,6.493 148.368,10.906 142.11,10.906 		"/>
		<path fill="#B0B2B3" d="M158.853,10.798h-0.964l-0.642,4.573h0.909c2.14,0,3.607-1.017,3.607-2.539
			C161.764,11.521,160.721,10.798,158.853,10.798 M161.685,26.55l-4.787-7.943l-0.96,7.943h-5.083l2.463-20.057h6.522
			c4.76,0,7.089,2.006,7.089,6.1c0,2.111-0.535,3.581-1.767,4.728c-0.645,0.616-1.176,0.913-2.486,1.448l4.922,7.781H161.685z"/>
		<path fill="#B0B2B3" d="M179.493,12.696l-2.195,6.393h4.335L179.493,12.696 M184.363,26.55l-1.313-3.479h-7.191l-1.365,3.479
			h-5.511l7.702-20.057h5.673l7.568,20.057H184.363z"/>
		<polyline fill="#B0B2B3" points="207.034,26.55 197.463,14.274 197.463,26.55 192.243,26.55 192.243,6.493 197.463,6.493 
			207.034,18.769 207.034,6.493 212.25,6.493 212.25,26.55 207.034,26.55 		"/>
		<path fill="#B0B2B3" d="M230.916,25.638c0,0.295-0.248,0.537-0.751,0.725c-1.421,0.482-2.727,0.723-3.958,0.723
			c-1.845,0-3.611-0.455-5.322-1.391c-3.422-1.9-5.322-5.082-5.322-9.012c0-2.167,0.59-4.118,1.738-5.885
			c1.177-1.766,2.754-3.076,4.732-3.904c1.287-0.562,2.647-0.83,4.119-0.83c0.991,0,2.058,0.16,3.21,0.455
			c0.346,0.078,0.617,0.188,0.857,0.295l0.291,0.136c0.24,0.106,0.374,0.291,0.374,0.532v5.162c0,0.131-0.052,0.188-0.134,0.188
			c-0.027,0-0.106-0.058-0.24-0.136c-0.401-0.399-0.987-0.722-1.767-0.991c-0.821-0.293-1.577-0.425-2.218-0.425
			c-2.325,0-4.276,1.229-5.161,3.289c-0.292,0.666-0.43,1.389-0.43,2.165c0,1.522,0.562,2.753,1.684,3.718
			c1.047,0.883,2.329,1.338,3.852,1.338c1.739,0,3.08-0.484,4.067-1.471c0.083-0.109,0.161-0.162,0.213-0.162
			c0.11,0,0.165,0.162,0.165,0.506V25.638"/>
		<polyline fill="#B0B2B3" points="234.229,26.55 234.229,6.493 245.613,6.493 245.613,10.906 239.44,10.906 239.44,14.25 
			245.298,14.25 245.298,18.659 239.44,18.659 239.44,22.136 245.613,22.136 245.613,26.55 234.229,26.55 		"/>
		<polyline fill="#B0B2B3" points="142.11,10.906 142.11,14.25 147.81,14.25 147.81,18.659 142.11,18.659 142.11,26.55 
			136.897,26.55 136.897,6.493 148.368,6.493 148.368,10.906 142.11,10.906 		"/>
		<path fill="#B0B2B3" d="M158.853,10.798h-0.964l-0.642,4.573h0.909c2.14,0,3.607-1.017,3.607-2.539
			C161.764,11.521,160.721,10.798,158.853,10.798 M161.685,26.55l-4.787-7.943l-0.96,7.943h-5.083l2.463-20.057h6.522
			c4.76,0,7.089,2.006,7.089,6.1c0,2.111-0.535,3.581-1.767,4.728c-0.645,0.616-1.176,0.913-2.486,1.448l4.922,7.781H161.685z"/>
		<path fill="#B0B2B3" d="M179.493,12.696l-2.195,6.393h4.335L179.493,12.696 M184.363,26.55l-1.313-3.479h-7.191l-1.365,3.479
			h-5.511l7.702-20.057h5.673l7.568,20.057H184.363z"/>
		<polyline fill="#B0B2B3" points="207.034,26.55 197.463,14.274 197.463,26.55 192.243,26.55 192.243,6.493 197.463,6.493 
			207.034,18.769 207.034,6.493 212.25,6.493 212.25,26.55 207.034,26.55 		"/>
		<path fill="#B0B2B3" d="M230.916,25.638c0,0.295-0.248,0.537-0.751,0.725c-1.421,0.482-2.727,0.723-3.958,0.723
			c-1.845,0-3.611-0.455-5.322-1.391c-3.422-1.9-5.322-5.082-5.322-9.012c0-2.167,0.59-4.118,1.738-5.885
			c1.177-1.766,2.754-3.076,4.732-3.904c1.287-0.562,2.647-0.83,4.119-0.83c0.991,0,2.058,0.16,3.21,0.455
			c0.346,0.078,0.617,0.188,0.857,0.295l0.291,0.136c0.24,0.106,0.374,0.291,0.374,0.532v5.162c0,0.131-0.052,0.188-0.134,0.188
			c-0.027,0-0.106-0.058-0.24-0.136c-0.401-0.399-0.987-0.722-1.767-0.991c-0.821-0.293-1.577-0.425-2.218-0.425
			c-2.325,0-4.276,1.229-5.161,3.289c-0.292,0.666-0.43,1.389-0.43,2.165c0,1.522,0.562,2.753,1.684,3.718
			c1.047,0.883,2.329,1.338,3.852,1.338c1.739,0,3.08-0.484,4.067-1.471c0.083-0.109,0.161-0.162,0.213-0.162
			c0.11,0,0.165,0.162,0.165,0.506V25.638"/>
		<polyline fill="#B0B2B3" points="234.229,26.55 234.229,6.493 245.613,6.493 245.613,10.906 239.44,10.906 239.44,14.25 
			245.298,14.25 245.298,18.659 239.44,18.659 239.44,22.136 245.613,22.136 245.613,26.55 234.229,26.55 		"/>
		<rect x="1.064" y="1.113" fill="#B0B2B3" width="129.107" height="32.274"/>
		<path fill="#FFFFFF" d="M124.655,18.663c0,0-0.031,0.053-0.109,0.053h-6.963c-0.114,0-0.17,0.055-0.17,0.055
			s-0.078,0.027-0.078,0.164v7.424c0,0.104-0.051,0.135-0.051,0.135s-0.031,0.055-0.114,0.055h-5.523
			c-0.079,0-0.134-0.055-0.134-0.055s-0.027-0.031-0.027-0.16v-7.428c0-0.08-0.082-0.135-0.082-0.135s-0.024-0.055-0.107-0.055
			h-7.127c-0.139,0-0.166-0.029-0.166-0.029s-0.055-0.051-0.055-0.215v-5.438c0-0.055,0.055-0.137,0.055-0.137
			s0.027-0.027,0.083-0.027h7.293c0.052,0,0.052-0.026,0.052-0.026s0.055-0.029,0.055-0.081V6.265c0-0.084,0.027-0.136,0.027-0.136
			s0.055-0.034,0.217-0.034h5.416c0.107,0,0.139,0.034,0.139,0.034s0.051,0.052,0.051,0.161v6.524h7.073
			c0.188,0,0.247,0.029,0.247,0.029s0.079,0.026,0.079,0.19v5.49C124.734,18.581,124.655,18.663,124.655,18.663 M103.083,26.304
			c-0.031,0.158-0.059,0.213-0.059,0.213s-0.028,0.061-0.162,0.061H91.655c-0.326,0-0.405-0.084-0.405-0.084
			s-0.056-0.107-0.032-0.354l2.777-19.307c0.023-0.244,0.079-0.326,0.079-0.326s0.032,0,0.299,0h5.091
			c0.137,0,0.188,0.029,0.188,0.029s0.028,0.08,0,0.188l-2.097,15.095c-0.027,0.16,0.055,0.188,0.055,0.188s0.056,0.025,0.271,0.025
			h5.551c0.11,0,0.166,0.057,0.166,0.057s0.023,0.027,0.023,0.164L103.083,26.304z M88.803,26.599h-4.983
			c-0.111,0.059-0.193-0.051-0.193-0.051s-0.023-0.031-0.047-0.189l-0.657-3.072c-0.056-0.166-0.11-0.244-0.11-0.244
			s-0.133-0.084-0.295-0.084h-6.479c-0.134,0-0.216,0.084-0.216,0.084s-0.11,0.107-0.165,0.273l-1.467,3.123
			c-0.028,0.078-0.079,0.109-0.079,0.109s-0.11,0.029-0.166,0.029h-5.605c-0.138,0.021-0.189-0.061-0.189-0.061
			s-0.027-0.055,0.051-0.158L78.08,6.642c0.055-0.025,0.11-0.105,0.11-0.105s0.055-0.029,0.216-0.029h6.121
			c0.135,0,0.217,0.082,0.217,0.082s0.027,0.027,0.055,0.11l4.107,19.794c0,0.055-0.023,0.084-0.023,0.084
			S88.882,26.599,88.803,26.599z M65.487,26.577h-4.981c-0.084,0-0.165,0-0.165,0s-0.027-0.029-0.051-0.061l-6.914-12.259
			c-0.051-0.053-0.081-0.053-0.081-0.053s-0.055,0-0.055,0.079l-1.711,12.049c-0.032,0.129-0.055,0.16-0.055,0.16
			s-0.059,0.023-0.136,0.023h-4.957c-0.079,0-0.134-0.055-0.134-0.055s-0.108-0.104-0.081-0.211l2.72-19.498
			c0.023-0.111,0.077-0.137,0.077-0.137s0.086-0.08,0.171-0.08h5.521c0.083,0,0.136,0.053,0.136,0.053s0.055,0.027,0.081,0.11
			l6.229,10.931c0.108,0.217,0.193,0.188,0.193,0.188s0.081,0,0.138-0.243l1.575-10.875c0-0.083,0.055-0.11,0.055-0.11
			s0.025-0.053,0.108-0.053l5.195,0.053c0.11,0,0.138,0.027,0.138,0.027s0.024,0.025,0.024,0.083l-2.801,19.659
			c-0.023,0.104-0.079,0.189-0.079,0.189S65.621,26.577,65.487,26.577z M43.723,26.517l-4.845,0.031
			c-0.11,0-0.193-0.055-0.193-0.055s-0.025-0.031-0.055-0.217l-0.759-3.127c0-0.082-0.055-0.107-0.055-0.107s-0.028,0-0.083,0
			h-6.825c-0.142,0-0.219,0.107-0.219,0.107s-0.11,0.084-0.194,0.273l-1.355,2.91c-0.059,0.105-0.083,0.129-0.083,0.129
			s-0.083,0.055-0.165,0.055h-5.631c-0.161,0.031-0.191-0.055-0.191-0.055s-0.027-0.076,0.03-0.186l9.764-19.635
			c0.057-0.105,0.136-0.135,0.136-0.135s0.057,0,0.19,0h6.231c0.106,0,0.188,0.082,0.188,0.082s0.03,0.027,0.057,0.11l4.188,19.687
			c0,0.076-0.055,0.107-0.055,0.107S43.773,26.517,43.723,26.517z M80.609,12.188c0,0-0.028,0-0.051,0.11l-2.722,6.149
			c-0.055,0.188-0.027,0.215-0.027,0.215s0.083,0.053,0.138,0.053l4.024-0.029c0.024,0,0.055,0,0.055,0s0.028-0.023,0-0.105
			l-1.361-6.308C80.636,12.188,80.609,12.188,80.609,12.188z M35.452,12.273c0,0-0.032,0-0.057,0.054l-2.72,6.174
			c-0.057,0.08-0.029,0.135-0.029,0.135s0.029,0.027,0.165,0.027l3.999,0.023c0.028,0,0.055-0.023,0.055-0.023s0.025-0.027,0-0.109
			l-1.387-6.227C35.477,12.273,35.452,12.273,35.452,12.273z M21.52,25.843c-0.026,0.217-0.136,0.377-0.136,0.377
			s-0.108,0.113-0.301,0.166c-2.61,1.059-5.523,0.707-5.523,0.707c-4.707-0.516-7.698-3.4-8.648-7.123
			C5.496,14.392,8.3,10.423,8.979,9.579c1.656-1.982,4.241-3.398,6.772-3.728c3.238-0.456,5.633,0.301,6.609,0.628
			c0,0,1.09,0.354,1.908,0.898c0.409,0.271,0.462,0.379,0.462,0.379s0.027,0.054-0.083,0.492l-0.761,3.999
			c-0.026,0.161-0.136,0.245-0.136,0.245s-0.055,0.023-0.437-0.22c-2.445-1.743-5.305-1.519-5.305-1.519
			c-2.177,0.132-4.705,1.272-5.468,4.154c-0.679,2.557,0.027,4.705,1.55,5.986c1.037,0.895,2.642,1.357,4.327,1.275
			c1.851-0.139,3.32-0.871,3.21-0.818c0,0,0.083-0.025,0.164-0.053c0.383-0.191,0.466-0.164,0.466-0.164s0.079,0.082,0.026,0.324
			L21.52,25.843z"/>
	</g>
</g>
</svg>
