<svg xmlns="http://www.w3.org/2000/svg" width="290" height="19.69" viewBox="0 0 290 19.69"><defs><style>.ab81f95e-18e5-4291-8b10-a9371665ad6d{fill:#e2001a;}.b8b1d28c-53c5-4877-a57d-1075dfb4766d{fill:#00a7e3;}</style></defs><title>logo-fmm-2021</title><g id="b0f805d0-3095-47b3-9f98-40123658d5ee" data-name="Calque 2"><g id="b8aaefd3-c2b0-4273-926c-d57d7b5275fc" data-name="Calque 1"><path d="M3.59,3.61V8.08h8.9v3.08H3.59v8.16H0V.4H13.37V3.61Z"/><path d="M23.07,5.45V8.53h-.85c-2.48,0-4,1.22-4,3.83v7H14.91V5.61h3.24V8.05a4.18,4.18,0,0,1,4.09-2.66A3.91,3.91,0,0,1,23.07,5.45Z"/><path d="M33.06,19.32a4.45,4.45,0,0,1-.37-1.68,5.11,5.11,0,0,1-4.41,2c-2.93,0-5-1.46-5-4.12,0-2.29,1.38-3.91,5.26-4.28l2.08-.19c1.27-.15,1.94-.55,1.94-1.56s-.56-1.7-2.5-1.7-2.71.5-2.84,2.18H24c.19-2.9,1.89-4.68,6.17-4.68,4.09,0,5.71,1.65,5.71,4.12v7.3a5.11,5.11,0,0,0,.56,2.61Zm-.45-5.42V12.65a2.67,2.67,0,0,1-1.57.56l-1.81.21c-1.86.21-2.47.88-2.47,2s.77,1.86,2.31,1.86A3.23,3.23,0,0,0,32.61,13.9Z"/><path d="M50.73,10.23v9.09H47.38V10.79A2.29,2.29,0,0,0,44.8,8.18c-1.46,0-3,1-3,3.46v7.68H38.4V5.61h3.24v2a5.06,5.06,0,0,1,4.28-2.28C48.79,5.29,50.73,7,50.73,10.23Z"/><path d="M52.83,12.46c0-4.38,2.68-7.17,6.78-7.17,3.58,0,6,2,6.37,5.26H62.64a2.87,2.87,0,0,0-3-2.47c-2,0-3.35,1.38-3.35,4.38s1.41,4.39,3.35,4.39a2.92,2.92,0,0,0,3.08-2.63H66c-.37,3.35-2.93,5.42-6.43,5.42C55.54,19.64,52.83,16.85,52.83,12.46Z"/><path d="M80.87,13.5H70.61c.24,2.44,1.62,3.53,3.56,3.53a3.14,3.14,0,0,0,3.14-2h3.21c-.69,2.79-3.08,4.57-6.38,4.57-4,0-6.83-2.79-6.83-7.18S70,5.29,74.09,5.29s6.78,3.05,6.78,7.41ZM70.64,11.16h6.88a3.39,3.39,0,0,0-3.46-3.27C72.28,7.89,71,8.9,70.64,11.16Z"/><path d="M121.44,10.26v9.06h-3.35V10.79c0-1.76-.77-2.61-2.36-2.61s-2.84,1-2.84,3.59v7.55h-3.33V10.79c0-1.76-.79-2.61-2.39-2.61-1.41,0-2.81,1-2.81,3.59v7.55H101V5.61h3.24v2a4.45,4.45,0,0,1,3.91-2.28,4.34,4.34,0,0,1,4.25,2.55,5,5,0,0,1,4.25-2.55C119.71,5.29,121.44,7.23,121.44,10.26Z"/><path d="M137.1,13.5H126.84c.24,2.44,1.62,3.53,3.56,3.53a3.11,3.11,0,0,0,3.13-2h3.22c-.69,2.79-3.08,4.57-6.38,4.57-4,0-6.83-2.79-6.83-7.18s2.71-7.17,6.78-7.17,6.78,3.05,6.78,7.41Zm-10.24-2.34h6.89a3.39,3.39,0,0,0-3.46-3.27C128.51,7.89,127.18,8.9,126.86,11.16Zm5-7.33h-2.74L131.38,0h3.85Z"/><path d="M152.38.4V19.32h-3.25V17.41a5,5,0,0,1-4.33,2.23c-3.8,0-6.16-2.82-6.16-7.18S141,5.29,144.8,5.29A4.89,4.89,0,0,1,149,7.39V.4Zm-3.27,12.06c0-2.89-1.36-4.41-3.54-4.41s-3.51,1.62-3.51,4.52,1.36,4.3,3.51,4.3S149.11,15.36,149.11,12.46Z"/><path d="M155.09,5.61h3.34V19.32h-3.34Zm0-4.92h3.3V3.83h-3.3Z"/><path d="M170.13,19.32a4.27,4.27,0,0,1-.37-1.68,5.11,5.11,0,0,1-4.42,2c-2.92,0-4.94-1.46-4.94-4.12,0-2.29,1.38-3.91,5.26-4.28l2.08-.19c1.27-.15,1.94-.55,1.94-1.56s-.56-1.7-2.5-1.7-2.71.5-2.85,2.18H161c.19-2.9,1.89-4.68,6.16-4.68,4.1,0,5.72,1.65,5.72,4.12v7.3a5.11,5.11,0,0,0,.56,2.61Zm-.45-5.42V12.65a2.67,2.67,0,0,1-1.57.56l-1.81.21c-1.86.21-2.47.88-2.47,2s.77,1.86,2.31,1.86A3.23,3.23,0,0,0,169.68,13.9Z"/><path d="M174.7,15H178c.18,1.73,1.06,2.34,3.05,2.34s2.71-.61,2.71-1.65-.61-1.46-2.68-1.81l-1.57-.26c-2.95-.51-4.49-1.81-4.49-4.15,0-2.57,2-4.14,5.69-4.14,4.22,0,5.95,1.83,6.06,4.65h-3.17c-.08-1.76-1.17-2.26-2.89-2.26s-2.39.61-2.39,1.59.79,1.41,2.28,1.68l1.73.26c3.29.59,4.75,1.81,4.75,4.18,0,2.76-2.25,4.3-6.08,4.3S174.91,18.28,174.7,15Z"/><path d="M228,10.26v9.06h-3.35V10.79c0-1.76-.77-2.61-2.37-2.61s-2.84,1-2.84,3.59v7.55h-3.32V10.79c0-1.76-.8-2.61-2.39-2.61-1.41,0-2.82,1-2.82,3.59v7.55h-3.35V5.61h3.24v2a4.46,4.46,0,0,1,3.91-2.28A4.33,4.33,0,0,1,219,7.84a5,5,0,0,1,4.25-2.55C226.3,5.29,228,7.23,228,10.26Z"/><path d="M230.13,12.46c0-4.36,2.81-7.17,7-7.17s7,2.81,7,7.17-2.79,7.18-7,7.18S230.13,16.82,230.13,12.46Zm10.55,0c0-2.89-1.41-4.41-3.56-4.41s-3.56,1.52-3.56,4.41,1.38,4.41,3.56,4.41S240.68,15.36,240.68,12.46Z"/><path d="M258.51,10.23v9.09h-3.35V10.79a2.29,2.29,0,0,0-2.58-2.61c-1.46,0-3.05,1-3.05,3.46v7.68h-3.35V5.61h3.24v2a5.06,5.06,0,0,1,4.28-2.28C256.57,5.29,258.51,7,258.51,10.23Z"/><path d="M274.35.4V19.32h-3.24V17.41a5,5,0,0,1-4.34,2.23c-3.8,0-6.16-2.82-6.16-7.18s2.36-7.17,6.16-7.17A4.89,4.89,0,0,1,271,7.39V.4Zm-3.27,12.06c0-2.89-1.36-4.41-3.54-4.41S264,9.67,264,12.57s1.35,4.3,3.5,4.3S271.08,15.36,271.08,12.46Z"/><path d="M290,13.5H279.74C280,15.94,281.36,17,283.3,17a3.13,3.13,0,0,0,3.14-2h3.21c-.69,2.79-3.08,4.57-6.37,4.57-4,0-6.83-2.79-6.83-7.18s2.71-7.17,6.77-7.17S290,8.34,290,12.7Zm-10.23-2.34h6.88a3.39,3.39,0,0,0-3.45-3.27C281.42,7.89,280.09,8.9,279.77,11.16Z"/><rect class="ab81f95e-18e5-4291-8b10-a9371665ad6d" x="87.36" y="9.03" width="6.86" height="6.86"/><rect class="b8b1d28c-53c5-4877-a57d-1075dfb4766d" x="193.84" y="9.03" width="6.86" height="6.86"/></g></g></svg>