<?xml version="1.0" encoding="utf-8"?>
<!-- Generator: Adobe Illustrator 23.0.1, SVG Export Plug-In . SVG Version: 6.00 Build 0)  -->
<svg version="1.1"
	 id="svg6171" xmlns:cc="http://creativecommons.org/ns#" xmlns:dc="http://purl.org/dc/elements/1.1/" xmlns:rdf="http://www.w3.org/1999/02/22-rdf-syntax-ns#" xmlns:svg="http://www.w3.org/2000/svg"
	 xmlns="http://www.w3.org/2000/svg" xmlns:xlink="http://www.w3.org/1999/xlink" x="0px" y="0px" width="615.343px" height="125px"
	 viewBox="0 0 615.343 125" enable-background="new 0 0 615.343 125" xml:space="preserve">
<g>
	<g>
		<path fill="#232323" d="M209.448,123.494V50.452h18.825v5.873c5.572-4.517,12.5-7.379,20.632-7.379
			c10.091,0,19.277,4.519,25.301,11.747c4.819,5.724,7.53,13.103,7.53,25.602v37.199h-19.578V84.789
			c0-7.228-1.657-10.993-4.368-13.704c-2.56-2.56-6.476-4.067-10.994-4.067c-8.283,0-15.06,5.272-17.77,9.037v47.439H209.448z"/>
		<path fill="#232323" d="M437.962,111.898c-7.078,8.433-18.675,13.102-29.97,13.102c-21.837,0-38.253-15.06-38.253-37.951
			c0-20.331,13.856-38.102,35.542-38.102c20.18,0,34.487,17.018,34.487,37.349c0,1.959-0.151,3.916-0.452,5.573h-50.602
			c1.055,10.241,9.338,17.32,19.729,17.32c8.283,0,14.909-4.67,18.373-8.435L437.962,111.898z M419.739,77.561
			c-0.603-6.476-6.476-12.801-14.458-12.801c-8.133,0-14.759,6.174-15.663,12.801H419.739z"/>
		<path fill="#232323" d="M193.523,123.494h-18.825v-5.874c-6.025,5.121-12.953,7.38-20.331,7.38
			c-10.844,0-21.085-4.819-27.561-12.349c-5.723-6.626-9.337-15.662-9.337-25.603c0-21.536,15.963-38.103,35.844-38.103
			c8.283,0,15.662,2.712,21.385,7.38v-5.874h18.825V123.494z M173.945,76.054c-4.066-5.422-10.542-9.036-18.072-9.036
			c-11.446,0-18.826,9.488-18.826,20.03c0,11.446,8.284,19.88,19.277,19.88c7.38,0,13.856-3.614,17.621-9.036V76.054z"/>
		<path fill="#232323" d="M365.257,108.584c-8.584,11.445-19.428,16.415-33.132,16.415c-22.59,0-39.157-16.867-39.157-37.951
			c0-21.235,17.018-38.102,39.307-38.102c12.65,0,23.946,5.872,30.723,14.609l-13.855,12.199c-3.916-5.12-9.789-8.736-16.868-8.736
			c-11.295,0-19.729,8.886-19.729,20.031c0,11.445,8.283,19.879,20.18,19.879c7.982,0,14.308-4.819,17.47-9.639L365.257,108.584z"/>
		<path fill="#232323" d="M114.459,67.771c-1.356-0.452-4.216-0.753-7.078-0.753c-8.584,0-15.361,6.175-17.771,10.542v45.934H70.031
			V50.451h18.826v7.379c4.367-5.421,12.349-8.885,21.234-8.885c2.861,0,4.518,0.301,6.626,0.602L114.459,67.771z"/>
		<g>
			<path fill="#232323" d="M57.981,33.133c-1.657-0.452-4.066-0.754-5.873-0.754c-4.819,0-8.584,1.356-10.994,4.217
				c-1.657,2.108-2.711,4.819-2.711,11.597v2.258h22.59v16.566h-22.59v56.476H18.825V67.018H0V50.452h18.825V47.44
				c0-11.747,2.711-18.825,7.831-23.795c5.121-4.969,12.801-8.584,22.741-8.584c3.916,0,7.53,0.302,11.596,1.356L57.981,33.133z"/>
		</g>
	</g>
	<g>
		<g>
			<g>
				<g>
					<g>
						<g>
							<circle fill="#FFC300" cx="478.217" cy="86.973" r="19.949"/>
						</g>
					</g>
				</g>
			</g>
		</g>
		<g>
			<polygon fill="#232323" points="564.652,9.48 573.089,18.071 586.914,18.071 572.177,0 557.125,0 542.388,18.071 556.214,18.071 
							"/>
			<path fill="#232323" d="M564.651,25.006c-29.998,0-50.691,22.36-50.691,49.997c0,27.637,20.693,49.997,50.691,49.997
				c29.998,0,50.692-22.359,50.692-49.997C615.343,47.365,594.649,25.006,564.651,25.006z M564.651,106.679
				c-17.422,0-30.356-14.254-30.356-31.676c0-17.422,12.934-31.676,30.356-31.676c17.422,0,30.357,14.254,30.357,31.676
				C595.008,92.425,582.073,106.679,564.651,106.679z"/>
		</g>
	</g>
</g>
</svg>
