<svg xmlns="http://www.w3.org/2000/svg" viewBox="0 0 33 24" id="m6"><g fill="none" fill-rule="evenodd"><path fill="#FFFFFE" d="M0 24L4.071 0l12.215 12L28.5 0l4.071 24H24.43l-1.164-6.857L16.285 24l-6.979-6.857L8.143 24H0"/><path d="M19.52 0c-.75 1.046-1.867 2.807-2.982 4.705 3.839.133 6.948 3.287 6.948 7.07 0 3.906-3.23 7.082-7.2 7.082s-7.2-3.176-7.2-7.081c0-.614.081-1.229.242-1.825.684-2.926 3.156-7.068 5.226-9.951zm-3.246 8.68c-1.728 0-3.133 1.388-3.133 3.096 0 1.707 1.405 3.096 3.133 3.096 1.727 0 3.131-1.389 3.131-3.096 0-1.708-1.404-3.097-3.131-3.097z" fill="#D93032"/></g></svg>