<?xml version="1.0" encoding="UTF-8" standalone="no"?>
<!-- Created with Inkscape (http://www.inkscape.org/) -->

<svg
   version="1.1"
   id="svg2"
   xml:space="preserve"
   width="499.99997"
   height="233.66013"
   viewBox="0 0 499.99996 233.66013"
   sodipodi:docname="mouv-details.svg"
   inkscape:version="1.1.1 (1:1.1+202109281954+c3084ef5ed)"
   inkscape:export-filename="/home/gub/OneDrive/Logo Radio France 2021/logos Radio France + chaines 2021/Mouv'/mouv.png"
   inkscape:export-xdpi="192"
   inkscape:export-ydpi="192"
   xmlns:inkscape="http://www.inkscape.org/namespaces/inkscape"
   xmlns:sodipodi="http://sodipodi.sourceforge.net/DTD/sodipodi-0.dtd"
   xmlns="http://www.w3.org/2000/svg"
   xmlns:svg="http://www.w3.org/2000/svg"><defs
     id="defs6" /><sodipodi:namedview
     id="namedview4"
     pagecolor="#ffffff"
     bordercolor="#666666"
     borderopacity="1.0"
     inkscape:pageshadow="2"
     inkscape:pageopacity="0.0"
     inkscape:pagecheckerboard="0"
     showgrid="false"
     inkscape:zoom="1.5773437"
     inkscape:cx="201.60476"
     inkscape:cy="139.158"
     inkscape:window-width="2560"
     inkscape:window-height="1376"
     inkscape:window-x="0"
     inkscape:window-y="27"
     inkscape:window-maximized="1"
     inkscape:current-layer="g8" /><g
     id="g8"
     inkscape:groupmode="layer"
     inkscape:label="ink_ext_XXXXXX"
     transform="matrix(1.3333333,0,0,-1.3333333,-687.88713,497.52925)"><path
       id="path940"
       style="fill:#000000;fill-opacity:1;fill-rule:nonzero;stroke:none;stroke-width:0.0934696"
       d="m 674.90059,272.95681 c -1.13005,-0.3764 -2.26103,-0.75318 -3.39108,-0.75318 -5.08755,0 -9.42173,3.95676 -9.42173,9.04421 0,1.31923 0.18881,2.63799 0.94217,3.76842 h -11.68183 c -0.18881,-1.31886 -0.37668,-2.44919 -0.37668,-3.76842 0,-10.73984 9.23199,-19.78377 20.91476,-19.78377 1.13004,0 2.26102,0 3.39107,0.18769 -0.37668,0.1888 -0.37668,11.30505 -0.37668,11.30505 m -3.39108,17.33534 c 5.08755,0 9.4208,-3.95676 9.4208,-9.04431 0,-1.50719 -0.37668,-2.82671 -1.13004,-4.33353 h 11.68182 c 0.18881,1.31914 0.37669,2.63799 0.37669,4.33353 0,8.29075 -5.46423,15.63924 -13.3783,18.46576 v 8.66744 H 668.1175 v -18.6541 c 1.31886,0.56521 2.26103,0.56521 3.39201,0.56521 m -125.87082,-21.35341 -9.72084,72.34546 -20.00249,-0.18694 V 228.55988 h 13.08574 v 77.20588 l 11.40329,-77.20588 h 10.65554 l 11.40329,77.39282 v -77.39282 h 13.08574 v 112.53738 l -20.00249,0.18694 -9.90778,-72.34546 m 330.13459,69.35443 c -0.18694,-0.18694 -0.18694,-0.37387 -0.18694,-0.56081 v 0 l -0.18694,-0.18694 -0.18694,0.18694 c 0,0.18694 0.18694,0.56081 0.37388,0.74775 h 0.18694 c 0,0 0,0 0,-0.18694 z m 14.02044,0 c -0.18694,0.37388 -0.18694,0.56082 -0.18694,0.9347 0,0.56082 0,1.30857 0,1.86939 0,0.18694 0,0.18694 0,0.37388 0,0.37388 0,0.56082 -0.18694,0.9347 0,0 0,0.18694 -0.18694,0.18694 -0.18694,0.74775 -0.56082,1.30857 -0.93469,1.86939 -0.18694,0.37388 -0.37388,0.56081 -0.37388,0.93469 0,0.18694 0,0.37388 -0.18694,0.56082 -0.18694,0.37388 -0.37388,0.74776 -0.56082,0.9347 -0.56082,0.93469 -1.30857,1.68245 -2.05633,2.43021 -0.74776,0.74775 -1.49551,1.30857 -2.24327,1.86939 -0.56082,0.37388 -1.30857,0.56082 -2.05633,0.74775 -0.18694,0 -0.37388,0.18694 -0.56082,0.18694 -0.18694,0 -0.18694,0.18694 -0.37388,0.18694 -0.18694,0 -0.18694,0 -0.37387,0 -0.37388,-0.18694 -0.56082,-0.37388 -0.74776,-0.56081 -0.18694,0 -0.18694,-0.18694 0,-0.37388 0,-0.18694 0.18694,-0.37388 0.18694,-0.56082 0,-0.37388 -0.18694,-0.74776 -0.37388,-1.12164 -0.18694,-0.37387 -0.37388,-0.93469 -0.56082,-1.30857 0,-0.18694 0,-0.18694 0,-0.37388 0,-0.18694 0,-0.37388 -0.18694,-0.56082 -0.18694,-0.37387 -0.37388,-0.74775 -0.37388,-1.12163 0,-0.18694 -0.18694,-0.37388 0,-0.56082 0,-0.37388 0,-0.56082 -0.18694,-0.93469 -0.18693,-0.18694 -0.37387,-0.56082 -0.37387,-0.74776 -0.18694,-0.74776 -0.37388,-1.30858 -0.74776,-2.05633 -0.18694,-0.56082 -0.37388,-1.30858 -0.56082,-1.86939 -0.18694,-0.37388 -0.18694,-0.74776 -0.37388,-1.12164 0,-0.37388 -0.18694,-0.56082 -0.18694,-0.9347 v -0.18693 c 0,-0.18694 0,-0.37388 0,-0.56082 0,-0.18694 0,-0.18694 0,-0.37388 0,0 0,0 0.18694,0 0,0 0,0 0.18694,0 0.37388,0.18694 0.37388,0.18694 0.37388,-0.18694 v -0.18694 c 0,-0.37388 0,-0.74776 -0.18694,-1.12163 -0.18694,-0.56082 -0.37388,-1.30858 -0.37388,-1.8694 0,-0.56081 -0.18694,-1.12163 -0.37387,-1.68245 0,-0.18694 -0.18694,-0.18694 -0.18694,-0.18694 h -0.18694 c -0.18694,-0.18694 0,-0.37388 0.18694,-0.56081 0.37387,-0.18694 0.18694,-0.37388 0.18694,-0.74776 -0.18694,-0.37388 -0.18694,-0.74776 -0.37388,-1.12164 0,-0.18694 0,-0.56081 -0.18694,-0.74775 -0.18694,-0.37388 -0.18694,-0.9347 -0.37388,-1.30858 0,-0.37388 -0.18694,-0.56081 -0.18694,-0.74775 0,-0.18694 -0.18694,-0.37388 -0.18694,-0.56082 v -0.18694 c 0,0 0.18694,0 0.18694,0.18694 0,0.18694 0.18694,0.18694 0.18694,0.37388 0,0.18694 0.18694,0.18694 0.37388,0.18694 0,-0.18694 0,-0.18694 0,-0.18694 0,-0.18694 -0.18694,-0.37388 -0.18694,-0.56082 v -0.18694 c 0.18694,-0.37388 0,-0.56082 -0.18694,-0.9347 0,-0.18694 -0.18694,-0.37387 -0.37388,-0.37387 -0.18694,0 -0.18694,-0.18694 -0.18694,-0.37388 0,-0.18694 0.18694,-0.18694 0.18694,-0.18694 v 0 c 0.18694,0 0.18694,-0.18694 0.18694,-0.37388 l -0.18694,-0.18694 -0.18694,-0.18694 c 0.37388,0 0.37388,-0.37388 0.37388,-0.56082 0,-0.18694 0,-0.18694 -0.18694,-0.18694 -0.18694,0 -0.37388,0 -0.37388,-0.37387 0,-0.18694 0,-0.37388 0,-0.37388 -0.18694,-0.37388 -0.18694,-0.74776 -0.18694,-1.12164 0,-0.18694 0,-0.56081 -0.18694,-0.74775 v -0.18694 c 0,-0.18694 0,-0.18694 0.18694,-0.37388 l 0.18694,-0.18694 c 0,-0.18694 0.18694,-0.56082 0,-0.74776 -0.18694,-0.18694 -0.18694,-0.37388 0,-0.37388 0.18694,-0.18693 0.18694,-0.56081 0,-0.74775 -0.18694,-0.18694 -0.18694,-0.37388 0,-0.56082 0.18694,-0.18694 0,-0.37388 0,-0.56082 -0.18694,0 -0.18694,-0.18694 0,-0.37388 0.18694,-0.18693 0.18694,-0.18693 0,-0.37387 0,-0.56082 -0.18694,-0.9347 -0.18694,-1.49552 0,-0.18694 0,-0.18694 0,-0.37388 0,-0.74775 0,-1.49551 -0.18694,-2.05633 0,0 0,-0.18694 0,-0.37388 0,-0.18693 0,-0.37387 -0.18693,-0.56081 -0.18694,-0.18694 -0.18694,-0.37388 0,-0.37388 v -0.18694 c 0,-0.37388 -0.18694,-0.74776 -0.18694,-1.12164 0,-0.37387 -0.18694,-0.56081 -0.18694,-0.93469 v -0.18694 c 0,-0.37388 0,-0.56082 0,-0.9347 0,-0.18694 0,-0.37387 0,-0.56081 0,-0.37388 0,-0.56082 0.18694,-0.9347 0,-0.56082 0.18694,-0.9347 0.18694,-1.49551 0,-0.18694 0,-0.56082 0.18693,-0.74776 0,-0.37388 0.18694,-0.56082 0.18694,-0.9347 0.18694,-0.56081 0.37388,-0.93469 0.56082,-1.30857 0.18694,-0.37388 0.18694,-0.74776 0.37388,-0.9347 0,-0.18694 0.18694,-0.56081 0.18694,-0.74775 0.37388,-0.74776 0.74776,-1.49552 1.30857,-2.24327 0.18694,-0.18694 0.37388,-0.56082 0.56082,-0.74776 0.18694,-0.18694 0.18694,-0.18694 0.37388,0 0.18694,0.18694 0.18694,0.37388 0.37388,0.56082 0.18694,0.37388 0.37388,0.56082 0.56081,0.74775 0.18694,0.18694 0.37388,0.37388 0.37388,0.37388 0,0.18694 0.18694,0.18694 0.18694,0.37388 0.18694,0.37388 0.18694,0.56082 0.18694,0.9347 0,0.18694 0,0.56081 0.18694,0.74775 0,0.37388 0,0.74776 0.18694,1.12164 0,0.18694 0,0.37388 0.18694,0.56082 0,0.18694 0,0.37387 0,0.56081 0,0.37388 0.18694,0.9347 0.37388,1.30858 0,0.18694 0,0.37388 0.18694,0.37388 0.18694,0.56081 0.37388,1.12163 0.37388,1.68245 v 0 c 0.18693,0.18694 0.18693,0.56082 0.37387,0.74776 0.18694,0.18694 0.37388,0.56081 0.37388,0.74775 0.18694,0.37388 0.18694,0.56082 0.37388,0.9347 0.37388,0.56082 0.56082,1.12163 0.9347,1.68245 0.18694,0.56082 0.37387,1.12164 0.74775,1.68245 0,0.18694 0.18694,0.18694 0.18694,0.37388 0.18694,0.56082 0.37388,0.9347 0.56082,1.30858 0.18694,0.18694 0.18694,0.37387 0.18694,0.56081 0.18694,0.18694 0.18694,0.56082 0.37388,0.74776 0.18694,0.18694 0.18694,0.37388 0.37388,0.56082 0.18693,0.56082 0.37387,0.93469 0.37387,1.49551 0.18694,0.56082 0.37388,1.12164 0.56082,1.68245 0,0.18694 0.18694,0.18694 0.18694,0.37388 0,0.18694 0.18694,0.18694 0.37388,0 0.18694,0 0.18694,-0.18694 0,-0.37388 v -0.18693 -0.18694 c 0,0 0.18694,0 0.18694,0.18694 0,0.18693 0.18694,0.18693 0.18694,0.37387 0,0.18694 0.18694,0.37388 0.18694,0.37388 0,0.18694 0.18694,0.37388 0.18694,0.56082 0,0.18694 0.18693,0.37388 0.18693,0.56082 0.18694,0.74775 0.37388,1.49551 0.37388,2.24327 0,0.18694 0,0.18694 0.18694,0.37388 0.18694,0.56081 0.37388,0.93469 0.37388,1.49551 0,0.18694 0,0.18694 0,0.37388 0.18694,0.56081 0.37388,1.30857 0.56082,1.86939 0.18694,0.37388 0.18694,0.74776 0.37388,1.30857 0,0.56082 0,1.30858 0.37387,1.8694 v 0.18693 c 0.18694,0.56082 0.18694,1.12164 0.56082,1.68246 v 0.18694 c 0.18694,0.56081 0.37388,1.12163 0.37388,1.49551 0,0.18694 0,0.37388 0.18694,0.56082 0.18694,0.37388 0.37388,0.74775 0.37388,1.30857 0,0.18694 0,0.18694 0.18694,0.37388 0.18694,0.37388 0.18694,0.9347 0.37388,1.30857 0.18694,0.37388 0.18694,0.9347 0.18694,1.30858 -1.12164,0.18694 -1.12164,0.56082 -1.12164,0.93469 m -172.17098,5.60818 v 0 0 m 15.70289,-15.14207 v 0 0 0 c 0.18694,0 0.18694,0 0.37387,-0.18694 v 0 0 0 0 0 c -0.18693,0.18694 -0.18693,0.18694 -0.37387,0.18694 v 0 0 0 0 m -109.54636,28.41475 v 0.18694 -0.18694 m 112.1635,-29.91027 c 0,0 0,-0.18694 0,0 v 0 c 0,-0.18694 0,0 0,0 m -117.3978,26.54537 c -0.18694,0 -0.18694,0 0,0 -0.18694,0 -0.18694,0 -0.18694,0 0,-0.18694 0,-0.18694 0.18694,0 -0.18694,-0.18694 -0.18694,-0.18694 0,0 m 103.19043,-1.8694 v 0 0 0 0 0 c -0.18694,0 0,0 0,0 v 0 m -0.37388,0.56082 c 0,0 -0.18694,0 0,0 -0.18694,0 -0.18694,0 0,0 -0.18694,0 -0.18694,0 0,0 m 0.18694,-0.56082 c 0,0.18694 -0.18694,0.37388 -0.37388,0.56082 0.18694,-0.37388 0.18694,-0.37388 0.37388,-0.56082 m 2.99102,-2.80408 c 0,0.18694 -0.18693,0.18694 0,0 0,0.18694 -0.18693,0.18694 -0.18693,0.18694 0,0 0,0 0.18693,-0.18694 -0.18693,0 -0.18693,0 0,0 m -0.18693,0.18694 c 0,0.18693 0,0.18693 0,0 v 0 c 0,0.18693 -0.18694,0.18693 0,0 -0.18694,0.18693 0,0.18693 0,0 0,0.18693 0,0.18693 0,0 m -143.19542,-59.6336 h 0.18694 v 0 c 0,0.18694 0,0.18694 -0.18694,0 v 0 m 139.08275,65.05483 v 0 c 0,0 0,0.18694 0,0 v 0 0 m 0.37388,-0.37388 v 0 c 0,0.37388 0,0.37388 -0.18694,0.37388 0,-0.18694 0,-0.18694 0.18694,-0.37388 -0.18694,0 -0.18694,0 0,0 m 3.55185,-4.86042 c 0,0.18694 -0.18694,0.37388 -0.18694,0.56082 0,0.18694 -0.18694,0.18694 -0.37388,0.37388 0,-0.56082 0.37388,-0.74776 0.56082,-0.9347 m 13.45962,-25.04985 c 0,-0.18693 0.18694,-0.56081 0.37388,-0.56081 0,0 0,0 0.18694,0 v 0 c 0,0.18694 -0.18694,0.18694 -0.18694,0.37388 -0.18694,0.18693 -0.37388,0.18693 -0.18694,0.37387 v 0 0 0 0 0 c -0.18694,0 -0.18694,0 -0.18694,-0.18694 m -17.57229,31.03191 h -0.18693 v -0.18694 c 0.18693,-0.18694 0.37387,-0.37388 0.56081,-0.56082 -0.18694,0.37388 -0.18694,0.56082 -0.37388,0.74776 m 3.55185,-5.04736 c -0.18694,0.37388 -0.37388,0.56082 -0.56082,0.74776 -0.18694,0.18694 -0.37388,0.18694 -0.56082,0.18694 v 0 c 0,0 0,0 0,-0.18694 0.18694,-0.37388 0.56082,-0.56082 1.12164,-0.74776 -0.18694,0 0,0 0,0 m 0,-0.18694 v 0 0 0 c 0,0.18694 0,0.18694 0,0 0,0.18694 0,0.18694 0,0 v 0 m 6.54287,-7.85144 v 0.18694 c -0.18694,0.56081 -0.56082,1.12163 -1.30857,1.30857 0,0 0,0 -0.18694,0 0.18694,-0.56082 0.74775,-0.9347 1.12163,-1.49551 0.18694,0 0.37388,0 0.37388,0 m 3.55184,-4.67348 c 0,0 0.18694,0.18694 0,0.37387 -0.37387,0.56082 -0.74775,1.12164 -1.12163,1.68246 -0.37388,0.56082 -0.9347,1.12163 -1.49551,1.68245 h -0.18694 v -0.18694 c 0.93469,-1.12163 1.68245,-2.24327 2.43021,-3.3649 0.18694,0 0.37387,0 0.37387,-0.18694 m 3.36491,-12.71187 c 0.18694,-0.18694 0.18694,-0.18694 0.74776,-0.18694 h -0.18694 c -0.56082,0.56082 -1.12164,1.12164 -1.30858,2.05633 l -0.18694,0.18694 v 0 c -0.18694,0 -0.18694,0 -0.37387,0 -0.37388,0.18694 -0.56082,0.37388 -0.9347,0.56082 -0.18694,0.18694 -0.37388,0.18694 -0.37388,0.37388 -0.18694,0.37388 -0.37388,0.37388 -0.74776,0.56082 0.18694,-0.56082 0.56082,-0.9347 0.9347,-1.30858 0.74776,-0.74775 1.49551,-1.49551 2.43021,-2.24327 m -5.42124,-74.21485 c -0.18694,-0.18694 -0.18694,-0.37388 -0.18694,-0.56082 -0.18693,-0.56082 -0.37387,-1.12163 -0.74775,-1.49551 -0.37388,-0.37388 -0.74776,-0.9347 -0.9347,-1.30858 l -0.18694,-0.18694 v 0 0 0 0 c 0,0.18694 0,0.18694 0,0.37388 0,0.37388 0.18694,0.56082 0.37388,0.9347 0,0.18694 0.18694,0.37388 0.18694,0.37388 0,0.74775 0.37388,1.49551 0.74776,2.24327 0.18694,0.56081 0.37388,1.12163 0.56081,1.68245 0.18694,0.56082 0.37388,1.12163 0.74776,1.68245 h 0.18694 v 0 c 0,-0.18694 0,-0.37388 0.18694,-0.37388 0.18694,-0.18694 0.18694,-0.37388 0.18694,-0.56081 -0.37388,-0.9347 -0.56082,-1.8694 -1.12164,-2.80409 z m -73.84097,-50.0997 v 0 c -0.18694,0.18694 -0.18694,0.18694 0,0.18694 0.18694,0 0.18694,0 0,-0.18694 0.18694,0.18694 0.18694,0.18694 0,0 z m -1.12164,-0.18694 c -0.56082,0 -1.12163,0.18694 -1.49551,0.56082 -0.18694,0.18694 -0.37388,0.18694 -0.74776,0.18694 -0.37388,0 -0.74775,0 -1.12163,0.18693 -0.18694,0 -0.18694,0 -0.37388,0 -0.18694,0 -0.18694,0.18694 -0.18694,0.18694 0,0 0.18694,0.18694 0.37388,0.37388 0.18694,0 0.37388,0 0.37388,0 0.93469,0 1.68245,-0.18694 2.43021,-0.56082 0.18693,-0.18693 0.56081,-0.37387 0.93469,-0.37387 0.18694,0 0.18694,-0.18694 0.18694,-0.18694 -0.18694,-0.18694 -0.37388,-0.37388 -0.37388,-0.37388 z m -39.81804,17.57228 v 0 0 c 0,0.18694 0,0.18694 0,0 0.18694,0 0.18694,0 0,0 0.18694,0 0,0 0,0 z m -1.49552,0.37388 v 0 c -0.18694,0 -0.37387,0.18694 -0.37387,0.37388 0,0 0,0 0.18693,0.18694 0.18694,-0.18694 0.37388,-0.37388 0.18694,-0.56082 0.18694,0 0.18694,0 0,0 z m 75.52343,152.35543 c 0.18694,0 0.37388,0 0.56082,-0.18694 0,0 0.18694,-0.18694 0,-0.18694 0,0 -0.18694,0 -0.18694,-0.18694 0,0 0,0 -0.18694,0 -0.18694,0 -0.37388,0 -0.37388,0.18694 0,0.37388 0.18694,0.37388 0.18694,0.37388 z m 13.45962,-4.48654 c 0.18694,0 0.18694,0 0,0 0.37388,0 0.74776,-0.18694 0.9347,-0.56082 0,0 0,0 0,-0.18694 v 0 c -0.18694,0 -0.18694,0 -0.37388,0 -0.18694,0.18694 -0.37388,0.37388 -0.56082,0.56082 0,0 0,0 0,0.18694 z m 2.05633,-2.05633 c 0.18694,0 0.18694,0 0,0 0.18694,0 0.18694,-0.18694 0,0 0.18694,-0.18694 0,-0.18694 0,0 0,-0.18694 0,0 0,0 z m 0.9347,-0.56082 z m 0.37388,0.9347 c 0.37388,0 0.56082,-0.18694 0.74776,-0.37388 0,0 0,0 0,-0.18694 v 0 c -0.37388,0 -0.74776,0 -0.9347,0.37388 0,0 0,0 0.18694,0.18694 -0.18694,-0.18694 -0.18694,0 0,0 z m 8.22532,-6.16899 h 0.18694 v -0.18694 c 0,0 0,-0.18694 -0.18694,-0.18694 v 0 c 0,0.18694 -0.18694,0.18694 0,0.37388 -0.18694,-0.18694 -0.18694,0 0,0 z m 1.30858,-0.74776 v 0 0 c -0.18694,0 0,0 0,0 v 0 0 c 0,-0.18694 0.18694,-0.37388 0.18694,-0.56082 v 0 c 0,0 0,0 -0.18694,0 0,0 -0.18694,0 -0.18694,0.18694 0,0 0,0.18694 0.18694,0.37388 z m 0.37388,-2.05633 v 0 0 0 c 0.18693,-0.18694 0.37387,-0.37388 0.56081,-0.56082 0.37388,-0.18694 0.56082,-0.56082 0.74776,-0.74776 0,0 0,-0.18694 0,-0.37387 0,0 -0.18694,0 -0.37388,0 l -0.18694,0.18693 c -0.37388,0.37388 -0.56082,0.74776 -0.93469,0.9347 0,0.18694 0.18694,0.37388 0.18694,0.56082 0,-0.18694 0,0 0,0 0,-0.18694 0,-0.18694 0,0 0,-0.18694 0,-0.18694 0,0 z m 6.16899,-16.82453 c 0.18694,0 0.18694,0 0,0 0.18694,-0.18694 0,-0.18694 0,-0.18694 0,0.18694 0,0.18694 0,0.18694 z m 1.30857,-1.12163 c 0,0 0.18694,0.18694 0.37388,0.18694 0,0 0.18694,0 0.18694,-0.18694 0.18694,-0.18694 0.18694,-0.56082 0.18694,-0.74776 0,0 0,-0.18694 -0.18694,-0.18694 h -0.18694 c -0.18694,0.18694 -0.18694,0.37388 -0.37388,0.56082 -0.18694,0.18694 -0.18694,0.37388 0,0.37388 z m 5.60818,0 c 0,0 0,-0.18694 0,0 0.18694,-0.18694 0.18694,-0.18694 0,0 0.18694,-0.18694 0.18694,-0.37388 0.37388,-0.56082 0.18694,0 0.18694,-0.18694 0.37387,-0.18694 v 0 l 0.18694,-0.18694 v -0.18694 h -0.18694 c 0,0 0,0.18694 0,0.37388 v 0 c -0.18693,0 -0.18693,0.18694 -0.37387,0.18694 -0.18694,0.18694 -0.18694,0.18694 -0.37388,0.56082 0.18694,-0.18694 0.18694,-0.18694 0,0 0,-0.18694 0,-0.18694 0,0 -0.18694,-0.18694 -0.18694,-0.18694 0,0 -0.18694,0 0,0 0,0 z m 0,2.05633 c 0,0 0,-0.18694 0,0 0,-0.18694 0,-0.18694 0,0 0,-0.18694 0,-0.18694 0,0 0,-0.18694 0,-0.18694 0.18694,-0.18694 0.93469,-0.74776 1.49551,-1.68245 2.05633,-2.61715 0,0 0,0 0,-0.18694 h -0.18694 c -0.56082,0.74776 -1.30858,1.49551 -1.86939,2.24327 -0.18694,0.18694 -0.18694,0.37388 -0.18694,0.74776 0,-0.18694 0,-0.18694 0,0 0,-0.18694 0,-0.18694 0,0 0,-0.18694 0,-0.18694 0,0 z m 1.68245,-4.2996 c 0,0 0,0.18694 0,0 -0.18694,0.18694 -0.18694,0.37387 -0.37388,0.37387 v 0.18694 0 c 0.37388,0 0.37388,-0.18694 0.37388,-0.56081 0,0.18694 0,0.18694 0,0 0.18694,0 0.18694,0 0,0 0,0.18694 0,0 0,0 z m -0.74776,-2.43021 c -0.18694,0 -0.18694,0 -0.37387,0 -0.18694,0.18694 -0.37388,0.37388 -0.37388,0.74775 v 0 c 0,0 0,0 0.18694,0 0.37387,0 0.56081,-0.18694 0.56081,-0.74775 0.18694,0.18694 0,0 0,0 z m 1.49552,1.86939 0.18694,-0.18694 v -0.18694 h -0.18694 c -0.18694,0.18694 -0.18694,0.18694 0,0.37388 -0.18694,0 0,0 0,0 z m 0.56081,0.56082 c 0.18694,0 0.18694,-0.18694 0,0 0,-0.18694 0,-0.18694 0,-0.18694 0,0 0,0 0,0.18694 z m 1.49552,-3.17797 v 0 0 0 c -0.18694,0 -0.18694,0 0,0 z m 0.37388,-0.18694 c 0.18694,0 0.18694,-0.18694 0.37387,-0.18694 v 0 0 c -0.18693,0 -0.37387,0 -0.37387,0.18694 -0.18694,0 -0.18694,0 0,0 -0.18694,0 -0.18694,0 0,0 z m 0.93469,0 c 0.18694,0 0.37388,-0.37388 0.37388,-0.56082 v 0 h -0.18694 c -0.37388,0 -0.37388,0.18694 -0.18694,0.56082 -0.18694,0 0,0 0,0 z m 1.12164,-1.86939 v 0 0 c -0.18694,0 -0.18694,0 0,0 z m 0.56082,-0.9347 v 0 0 c 0.18693,0 0.18693,0 0,0 0.18693,0 0.18693,0 0,0 0.18693,0 0.18693,-0.18694 0,0 0.18693,0 0.18693,0 0,0 0.18693,0 0,0 0,0 z m 21.68494,-43.36989 c 0,0 0,0.18694 0,0 0,0.74776 -0.18694,1.30858 -0.18694,2.05633 0,0.37388 0,0.74776 -0.18694,1.12164 -0.18694,1.49551 -0.37388,3.17797 -0.93469,4.67348 -0.18694,0.9347 -0.37388,1.68245 -0.56082,2.61715 0,0.18694 -0.18694,0.37388 -0.18694,0.74775 0,0.18694 -0.18694,0.56082 -0.18694,0.74776 -0.37388,1.12164 -0.74776,2.43021 -1.49551,3.36491 -0.37388,0.37387 -0.56082,0.93469 -0.9347,1.30857 -0.74776,1.12164 -1.30857,2.24327 -1.86939,3.55185 -0.18694,0.56081 -0.37388,0.93469 -0.56082,1.49551 -0.37388,0.56082 -0.56082,1.30857 -0.93469,1.86939 -0.37388,0.74776 -0.74776,1.30857 -1.12164,1.86939 0,0.18694 -0.18694,0.37388 -0.37388,0.56082 -0.18694,0.37388 -0.56082,0.56082 -0.74776,0.9347 -0.18693,0.37387 -0.56081,0.37387 -0.74775,0.37387 -0.18694,0 -0.18694,0 -0.37388,0 -0.37388,0 -0.56082,0 -0.74776,0.18694 -0.56081,0.37388 -0.93469,0.74776 -1.49551,1.12164 -0.56082,0.56082 -1.30857,0.93469 -1.86939,1.30857 -0.37388,0.18694 -0.56082,0.37388 -0.9347,0.37388 -0.18694,0 -0.37388,0 -0.74775,0.18694 -0.18694,0.18694 -0.56082,0.18694 -0.74776,0.37388 -0.74776,0.37388 -1.49551,0.56082 -2.24327,1.12163 h -0.18694 c -0.18694,0 -0.18694,0 -0.37388,-0.18694 -0.18694,0 -0.18694,-0.37387 0,-0.37387 0.18694,-0.18694 0.18694,-0.37388 0.37388,-0.37388 0.18694,-0.18694 0.37388,-0.56082 0.37388,-0.74776 0,-0.74776 0.18694,-1.49551 0.18694,-2.24327 0,-1.68245 0,-3.17797 -0.18694,-4.86042 0,-1.12163 -0.18694,-2.43021 -0.18694,-3.55184 0,-0.37388 0,-0.56082 0,-0.9347 0.18694,-0.56082 0,-1.12163 0,-1.68245 0,-0.9347 -0.18694,-1.86939 -0.18694,-2.99103 0,-0.18694 0,-0.18694 0,-0.37388 0,-0.56081 -0.18694,-1.30857 -0.18694,-1.86939 0,-0.56082 0,-1.12163 -0.18694,-1.68245 -0.18694,-1.12164 -0.37388,-2.05633 -0.37388,-3.17797 -0.18694,-1.12163 -0.37388,-2.24327 -0.37388,-3.55184 0,-0.74776 -0.18693,-1.68245 -0.37387,-2.43021 -0.18694,-0.56082 -0.18694,-0.9347 -0.18694,-1.49551 -0.18694,-0.9347 -0.18694,-1.8694 -0.37388,-2.61715 0,0 0,0 0,-0.18694 0,-0.74776 -0.18694,-1.49551 0,-2.24327 v -0.18694 c -0.18694,-1.68245 -0.56082,-3.55185 -0.9347,-5.2343 -0.18694,-1.49551 -0.56082,-2.99102 -0.93469,-4.2996 -0.37388,-1.68245 -0.56082,-3.17797 -1.12164,-4.86042 -0.18694,-0.56082 -0.37388,-1.12163 -0.37388,-1.68245 0,-0.18694 0,-0.37388 -0.18694,-0.74776 -0.37387,-0.93469 -0.74775,-2.05633 -0.93469,-3.17796 -0.37388,-1.30858 -0.74776,-2.61715 -1.30858,-3.92573 -0.18694,-0.56081 -0.37387,-0.93469 -0.56081,-1.49551 -0.37388,-1.12163 -0.74776,-2.05633 -1.12164,-3.17797 -0.74776,-2.05633 -1.68245,-4.11266 -2.80409,-6.16899 -0.37387,-0.56082 -0.56081,-1.12163 -0.93469,-1.86939 v -0.18694 c 0,0 0,0 0.18694,0 0.18694,0.18694 0.37388,0.18694 0.37388,0.37388 0.18693,0.74776 0.74775,1.30857 1.12163,1.86939 0.18694,0.18694 0.18694,0.56082 0.37388,0.74776 0,0 0,0 0.18694,0 0,0 0,0 0,-0.18694 0,-0.37388 -0.18694,-0.74776 -0.37388,-1.12164 -0.56082,-0.74775 -0.9347,-1.49551 -1.30857,-2.43021 -0.18694,-0.37387 -0.37388,-0.56081 -0.56082,-0.74775 0,0 -0.18694,0 -0.37388,0 0,0.18694 -0.18694,0.37388 -0.18694,0.56081 0,0 0,0.18694 -0.18694,0.18694 0,0 0,0 -0.18694,0 -0.37388,-0.56081 -0.74776,-1.30857 -1.12163,-1.86939 -0.56082,-0.93469 -1.12164,-1.86939 -1.68246,-2.80409 -0.56081,-0.74775 -1.12163,-1.68245 -1.68245,-2.61714 -0.18694,-0.56082 -0.56082,-1.12164 -0.93469,-1.49552 -0.74776,-0.74775 -1.49552,-1.68245 -2.05634,-2.61715 -0.37387,-0.56081 -0.93469,-1.12163 -1.49551,-1.68245 -0.18694,-0.18694 -0.37388,-0.18694 -0.37388,-0.37388 -0.37388,-0.56081 -0.93469,-0.93469 -1.49551,-1.49551 -0.56082,-0.37388 -0.9347,-0.9347 -1.30858,-1.49551 -0.18693,-0.37388 -0.56081,-0.74776 -0.93469,-0.9347 -0.56082,-0.56082 -1.30858,-1.12163 -2.05633,-1.68245 -0.74776,-0.56082 -1.30858,-1.12164 -2.05633,-1.49552 -1.49552,-0.93469 -2.80409,-2.05633 -4.48654,-2.80408 -0.18694,0 -0.18694,-0.18694 -0.37388,-0.18694 -1.30858,-0.74776 -2.61715,-1.49552 -3.92572,-2.05633 -0.56082,-0.18694 -1.12164,-0.37388 -1.68246,-0.74776 -0.74775,-0.37388 -1.49551,-0.74776 -2.24327,-0.9347 -0.18694,0 -0.56081,-0.18694 -0.74775,-0.37387 -0.37388,-0.37388 -0.74776,-0.74776 -1.30858,-0.9347 -0.74775,-0.37388 -1.49551,-0.74776 -2.24327,-0.9347 -0.37388,-0.18694 -0.74776,-0.18694 -0.74776,-0.74775 0,-0.18694 -0.18693,-0.37388 -0.37387,-0.37388 -0.18694,-0.18694 -0.56082,-0.18694 -0.74776,-0.18694 -0.56082,-0.18694 -1.30857,-0.18694 -1.86939,-0.56082 -0.18694,-0.18694 -0.56082,-0.18694 -0.74776,-0.18694 -0.74776,0 -1.30857,-0.37388 -2.05633,-0.37388 -0.74776,-0.37387 -1.49551,-0.37387 -2.05633,-0.93469 -0.37388,-0.18694 -0.74776,-0.37388 -1.12164,-0.56082 -0.74775,0 -1.49551,-0.37388 -2.24327,-0.37388 -0.37387,0 -0.74775,-0.18694 -1.12163,-0.18694 -0.9347,0 -1.86939,0 -2.80409,0 -1.12163,0 -2.43021,0 -3.55184,0.18694 -0.18694,0 -0.37388,0 -0.37388,0 -0.37388,0 -0.56082,0 -0.9347,-0.18694 -0.18694,0 -0.56081,0 -0.74775,-0.18694 -0.37388,-0.18694 -0.74776,-0.18694 -1.12164,-0.18694 -0.56082,0 -1.12163,0 -1.68245,0.18694 -1.12164,0.18694 -2.05633,0.37388 -3.17797,0.18694 -0.18694,0 -0.56082,0 -0.74775,0 -0.74776,0.18694 -1.49552,0.18694 -2.24327,0.37388 -0.18694,0 -0.37388,0 -0.56082,0 -0.37388,0 -0.74776,0 -1.12164,0.18694 -0.93469,0.18694 -1.86939,0.37388 -2.80409,0.56082 -0.18693,0 -0.18693,0 -0.37387,0.18694 -0.18694,0 -0.37388,0.18694 -0.37388,0.37388 -0.18694,0.18694 -0.18694,0.18694 -0.37388,0.18694 0.9347,0.18693 0.74776,0.18693 0.37388,0.18693 -0.18694,0 -0.37388,0 -0.56082,0.18694 -0.56082,0.18694 -1.68245,0.37388 -2.24327,0.74776 -0.56082,0.18694 -1.12163,0.37388 -1.68245,0.56082 -0.18694,0.18694 -0.56082,0.18694 -0.74776,0.18694 0,0 -0.18694,0 -0.37388,0 -0.74775,0.18694 -1.30857,0.56081 -2.05633,0.93469 -0.18694,0.18694 -0.37388,0.18694 -0.74775,0.18694 -0.18694,0 -0.56082,0 -0.74776,0.18694 -0.9347,0.37388 -1.68245,0.74776 -2.61715,1.12164 -0.56082,0.18694 -0.9347,0.56081 -1.49551,0.56081 -0.37388,0 -0.56082,0.18694 -0.9347,0.37388 -0.37388,0 -0.74776,0 -0.9347,0.18694 -0.74775,0.37388 -1.49551,0.56082 -2.05633,0.9347 -1.12163,0.56081 -2.24327,1.12163 -3.3649,1.86939 -0.56082,0.37388 -1.12164,0.56082 -1.68245,0.93469 -1.12164,0.74776 -2.05634,1.49552 -3.17797,2.24328 -0.37388,0.18693 -0.74776,0.56081 -1.12164,0.74775 -1.49551,1.12164 -2.99102,2.43021 -4.2996,3.73879 -1.30857,1.30857 -2.80408,2.80408 -4.11266,4.11266 -0.56082,0.56081 -1.12163,1.30857 -1.86939,1.86939 -0.18694,0.18694 -0.37388,0.37388 -0.56082,0.56082 -0.37388,0.56081 -0.93469,1.12163 -1.30857,1.49551 -0.37388,0.37388 -0.56082,0.74776 -0.9347,1.12164 -1.30857,1.49551 -2.43021,2.99102 -3.55184,4.67347 -0.18694,0.18694 -0.18694,0.37388 -0.37388,0.56082 -0.56082,0.56082 -0.74776,1.12164 -1.12164,1.86939 -0.18693,0.37388 -0.37387,0.56082 -0.56081,0.9347 -0.18694,0.37388 -0.56082,0.74776 -0.74776,1.12163 -0.18694,0.18694 -0.18694,0.56082 -0.56082,0.56082 -0.37388,0.18694 -0.56082,0.56082 -0.56082,0.9347 0,0.18694 -0.18693,0.56082 -0.18693,0.74776 -0.18694,0.74775 -0.37388,1.49551 -0.9347,2.24327 -0.18694,0.37387 -0.56082,0.93469 -0.74776,1.49551 -0.37388,1.12163 -0.74775,2.24327 -1.30857,3.17796 -0.18694,0.37388 -0.18694,0.56082 -0.37388,0.9347 -0.18694,0.9347 -0.37388,1.68245 -0.74776,2.61715 -0.37387,1.12163 -0.56081,2.05633 -0.93469,3.17797 0,0.37387 -0.18694,0.56081 -0.37388,0.93469 -0.18694,0.37388 -0.37388,0.56082 -0.56082,0.9347 -0.37388,0.74775 -0.74775,1.49551 -0.93469,2.24327 -0.18694,1.49551 -0.56082,2.99102 -0.74776,4.48654 0,0.18694 0,0.37388 0,0.37388 0,0.93469 -0.18694,1.86939 -0.37388,2.61714 -0.18694,0.74776 -0.18694,1.30858 -0.18694,2.05634 0,0.18693 0,0.56081 0,0.74775 -0.18694,0.74776 -0.18694,1.30858 -0.18694,2.05633 0,0.9347 0,1.68246 0,2.61715 0,0.56082 0,0.9347 0,1.49552 0,0.18693 0,0.37387 0,0.56081 0,1.12164 0,2.05633 0.18694,3.17797 0.18694,0.93469 0.37388,1.68245 0.9347,2.43021 0.56082,0.56082 0.74775,1.30857 0.93469,2.05633 0.18694,0.93469 0.37388,1.68245 0.56082,2.61715 0.18694,0.74775 0.18694,1.49551 0.37388,2.24327 0,0.37388 0,0.74775 0,1.12163 -0.18694,0.37388 -0.18694,0.9347 -0.18694,1.30858 0,0.18694 0,0.37388 0,0.56081 -0.18694,0.56082 -0.18694,1.30858 -0.18694,2.05634 0,0.93469 0,1.86939 0.18694,2.80408 0.18694,0.9347 0.56082,1.8694 0.74776,2.99103 0.18694,1.12164 0.56081,2.43021 0.74775,3.55184 0,0.37388 0.18694,0.74776 0.37388,0.9347 0.18694,0.56082 0.37388,0.9347 0.37388,1.49551 0,0.56082 0.18694,1.12164 0.56082,1.68246 0.18694,0.56081 0.37388,1.12163 0.56082,1.68245 0.37387,0.9347 0.74775,1.86939 1.12163,2.80409 0,0.18694 0.18694,0.37388 0.37388,0.56081 0.56082,0.74776 0.93469,1.68246 1.30857,2.61715 0.18694,0.37388 0.37388,0.74776 0.37388,1.12164 0.18694,0.56082 0.37388,1.12163 0.74776,1.68245 0.56082,0.74776 0.74776,1.68245 1.30857,2.43021 v 0.18694 c 0,0.56082 0.37388,0.9347 0.74776,1.30857 0.37388,0.37388 0.56082,0.9347 0.9347,1.30858 0.56081,0.56082 0.93469,1.30857 1.30857,1.86939 0.18694,0.56082 0.56082,1.12163 1.12163,1.49551 0.37388,0.37388 0.56082,0.74776 0.74776,1.12164 0,0.18694 0.18694,0.37388 0.37388,0.37388 0.37388,0.18694 0.56082,0.56081 0.56082,0.74775 0.18694,0.37388 0.18694,0.56082 0.56081,0.74776 0.56082,0.37388 0.9347,0.74776 1.12164,1.30857 0.18694,0.18694 0.18694,0.37388 0.37388,0.56082 0.37388,0.37388 0.93469,0.9347 1.12163,1.49551 0,0.18694 0.18694,0.18694 0.18694,0.37388 0.37388,0.37388 0.74776,0.9347 1.12164,1.30858 0.37388,0.56082 0.93469,1.12163 1.30857,1.68245 0.18694,0.18694 0.37388,0.37388 0.74776,0.18694 0.18694,0 0.18694,0 0.37388,0.18694 0.18694,0.18694 0.37388,0.56082 0.37388,0.74776 0,0.37387 0.37387,0.74775 0.56081,0.93469 0.18694,0.18694 0.37388,0.18694 0.37388,0.56082 0,0.18694 0.18694,0.18694 0.18694,0.37388 1.30857,0.93469 2.43021,2.05633 3.73878,2.99102 0.56082,0.37388 1.12164,0.9347 1.8694,1.30858 0.37387,0.18694 0.74775,0.37388 0.93469,0.56082 1.12164,0.74775 2.05633,1.49551 3.17797,2.05633 1.86939,1.12163 3.92572,2.05633 5.79511,3.3649 0,0 0,0 0.18694,0 0.56082,0.37388 1.30858,0.74776 2.05633,0.9347 0.56082,0.18694 1.12164,0.37388 1.68246,0.74775 1.30857,0.56082 2.80408,1.12164 4.11266,1.49552 2.24327,0.74775 4.48654,1.30857 6.54287,1.86939 1.12163,0.37388 2.43021,0.56082 3.73878,0.74776 1.30858,0.18694 2.61715,0.37387 3.73879,0.56081 1.49551,0.18694 3.17796,0.37388 4.86041,0.37388 0.37388,0.56082 0.74776,0.56082 1.12164,0.56082 1.49551,0 2.99103,0 4.48654,0 1.86939,0 3.92572,-0.18694 5.79511,-0.37388 1.49552,-0.18694 3.17797,-0.37388 4.67348,-0.93469 0.18694,0 0.18694,0 0.37388,0 1.30858,-0.37388 2.61715,-0.56082 3.92572,-0.9347 1.49552,-0.37388 3.17797,-0.9347 4.67348,-1.49551 1.30858,-0.37388 2.43021,-0.9347 3.73879,-1.49552 0.37388,-0.18694 0.74775,-0.37388 1.30857,-0.56081 1.30858,-0.56082 2.80409,-1.30858 4.11266,-2.05634 0.37388,-0.18693 0.74776,-0.56081 1.12164,-0.37387 0.18694,0 0.37388,-0.18694 0.37388,-0.18694 0.37388,-0.18694 0.56082,-0.37388 0.93469,-0.56082 h 0.18694 c 0.56082,0.37388 0.9347,0.18694 1.49552,0 0.56081,-0.37388 1.12163,-0.74776 1.68245,-1.12164 0.18694,-0.18693 0.37388,-0.37387 0.56082,-0.56081 0,-0.18694 0.18694,-0.37388 0.37387,-0.37388 0.18694,0 0.37388,-0.18694 0.74776,-0.18694 0.74776,-0.37388 1.49551,-0.9347 2.05633,-1.49551 0.18694,-0.56082 0.56082,-0.74776 0.9347,-1.12164 0.18694,-0.18694 0.56082,-0.37388 0.74775,-0.37388 0.18694,0 0.37388,-0.18694 0.37388,-0.18694 0.37388,-0.37388 0.74776,-0.74775 1.12164,-0.93469 0.18694,-0.18694 0.37388,-0.37388 0.74776,-0.37388 0.37387,0 0.56081,-0.37388 0.93469,-0.56082 0.18694,-0.18694 0.18694,-0.37388 0.18694,-0.56082 0,-0.18694 0,-0.37387 0.18694,-0.37387 0,-0.18694 0.18694,-0.18694 0.37388,-0.18694 v 0 c 0.18694,0.18694 0.37388,0.18694 0.56082,0 0.37387,-0.37388 0.74775,-0.56082 1.12163,-1.12164 0.18694,-0.18694 0.37388,-0.18694 0.37388,-0.37388 0,-0.18694 0,-0.37388 0,-0.37388 0,0 0,-0.18693 0.18694,-0.18693 0.37388,-0.37388 0.74775,-0.9347 0.93469,-1.49552 0.18694,-0.37388 0.56082,-0.93469 0.9347,-1.30857 0.18694,0 0.18694,0 0.37388,0 l 0.18694,0.18694 c 0.18694,0.18694 0.37388,0.18694 0.37388,0 0,-0.18694 0,-0.37388 0.18693,-0.56082 0.37388,-0.37388 0.56082,-0.74776 0.9347,-1.12164 0.18694,-0.18694 0.18694,-0.18694 0.37388,-0.18694 0.18694,0 0.18694,0 0.37388,0 0.37388,-0.74775 0.93469,-1.30857 1.49551,-1.86939 0.18694,-0.18694 0.56082,-0.37388 0.74776,-0.74775 0.56082,0 0.74775,-0.56082 1.12163,-0.74776 0.56082,-0.37388 0.9347,-0.9347 1.49552,-1.30857 0.18694,0 0.18694,-0.18694 0.18694,-0.18694 0.93469,-0.9347 2.05633,-1.8694 2.99102,-2.80409 0.18694,-0.18694 0.18694,-0.18694 0.37388,-0.37388 0.56082,-0.18694 0.9347,-0.74776 1.30857,-1.12163 0,0.18693 0,0.37387 0,0.37387 -0.18693,0.37388 -0.56081,0.74776 -0.93469,0.9347 -0.18694,0 -0.37388,0.18694 -0.37388,0.37388 -0.18694,0.18694 -0.37388,0.56082 -0.56082,0.74775 -0.18694,0.18694 -0.37388,0.18694 -0.37388,0.37388 -0.37387,0.74776 -1.12163,1.12164 -1.68245,1.68246 -0.56082,0.56081 -1.12163,1.12163 -1.68245,1.68245 0,0 0,0.18694 -0.18694,0.18694 v 0.18694 0 0 0 0 c 0.18694,0 0.37388,-0.18694 0.56082,-0.37388 0.18694,-0.18694 0.18694,-0.37388 0.37388,-0.37388 0.74775,-0.18694 1.12163,-0.74776 1.68245,-1.12164 0.18694,-0.37387 0.37388,-0.37387 0.56082,-0.37387 0.18694,0 0.18694,-0.18694 0.18694,-0.37388 0,-0.37388 0.18693,-0.56082 0.74775,-0.56082 0.18694,0 0.18694,0 0.37388,-0.18694 0.18694,-0.18694 0.37388,-0.37388 0.74776,-0.56082 0,0.18694 0,0.37388 0,0.37388 0,0.18694 0,0.37388 0,0.37388 v 0 h 0.18694 c 0.18694,0 0.18694,-0.18694 0.18694,-0.18694 0.18693,-0.37388 0.37387,-0.56082 0.56081,-0.93469 0.18694,-0.18694 0.18694,-0.37388 0.56082,-0.37388 0.18694,0 0.37388,-0.18694 0.56082,-0.37388 0.18694,-0.18694 0.37388,-0.56082 0.56082,-0.74776 0.18693,-0.18694 0.37387,-0.37388 0.56081,-0.56082 0.37388,-0.18693 0.74776,-0.56081 0.9347,-0.93469 0.18694,-0.37388 0.37388,-0.56082 0.56082,-0.9347 0.18694,-0.37388 0.37388,-0.56081 0.37388,-0.93469 0,-0.18694 0.18693,-0.37388 0.37387,-0.56082 0.18694,-0.18694 0.56082,-0.56082 0.74776,-0.74776 0.18694,-0.18694 0.37388,-0.37388 0.56082,-0.56082 0.18694,0 0.18694,-0.18693 0.18694,-0.18693 0.37388,-0.56082 0.74775,-1.12164 1.12163,-1.68246 0.56082,-0.93469 1.30858,-1.68245 1.86939,-2.43021 0,0 0,0 0.18694,0 0,0 0,0 0,0.18694 -0.18694,0.9347 -0.56081,1.68246 -0.93469,2.43021 -0.18694,0.37388 -0.37388,0.56082 -0.37388,0.74776 -0.18694,0.74776 -0.56082,1.30857 -0.9347,1.86939 -0.18694,0.56082 -0.56081,0.9347 -0.74775,1.49551 -0.18694,0.56082 -0.37388,0.9347 -0.56082,1.30858 -0.18694,0.18694 -0.18694,0.56082 -0.37388,0.93469 0,0.56082 -0.37388,1.12164 -0.9347,1.49552 h -0.18693 c -0.37388,0.18694 -0.37388,0.18694 -0.37388,0.56082 0,0.37387 0,0.74775 -0.18694,0.93469 -0.18694,0.18694 -0.18694,0.18694 -0.18694,0.37388 -0.18694,0.18694 -0.37388,0.56082 -0.74776,0.56082 -0.18694,0 -0.18694,0.18694 -0.37388,0.37388 0,0.37387 -0.18694,0.56081 -0.18694,0.93469 -0.18694,0.18694 -0.37387,0.18694 -0.56081,0.37388 -0.18694,0.18694 -0.37388,0.37388 -0.37388,0.56082 -0.9347,0.93469 -1.12164,1.12163 -1.86939,2.24327 0,0.18694 -0.18694,0.18694 -0.37388,0.37388 -0.37388,0.37387 -0.56082,0.74775 -0.9347,0.93469 -0.18694,0 -0.18694,0.18694 -0.18694,0.37388 -0.18694,0.18694 -0.18694,0.37388 -0.18694,0.56082 -0.18694,0.37388 -0.37387,0.56082 -0.74775,0.74775 -0.37388,0.18694 -0.56082,0.37388 -0.9347,0.74776 -0.37388,0.56082 -0.74776,0.9347 -1.12163,1.49551 -0.37388,0.56082 -0.9347,1.12164 -1.49552,1.68246 0,0.18694 -0.18694,0.18694 -0.37388,0.37388 -0.37387,0.18693 -0.56081,0.56081 -0.93469,0.93469 -0.18694,0.18694 -0.37388,0.37388 -0.56082,0.56082 -0.74776,0.93469 -1.68245,1.86939 -2.61715,2.80409 -0.74775,0.74775 -1.49551,1.68245 -2.05633,2.43021 -0.18694,0.18694 -0.18694,0.37387 -0.37388,0.56081 v 0.18694 0 0 h -0.18694 v 0 c 0,0 0,0 0,-0.18694 v 0 0 c 0.18694,0 0.18694,0 0.37388,0 0.18694,0 0.18694,0 0.37388,0 0,0.37388 -0.18694,0.74776 -0.37388,0.9347 -0.18694,0.18694 -0.37388,0.18694 -0.56082,0.37388 -0.37387,0.18694 -0.56081,0.37388 -0.56081,0.56082 0,0.18693 -0.18694,0.56081 -0.56082,0.56081 -0.18694,0.18694 -0.37388,0.37388 -0.37388,0.74776 0,0.18694 0,0.18694 0.18694,0.37388 0.18694,0 0.18694,0.18694 0.18694,0.37388 0,0.18694 -0.18694,0.18694 -0.18694,0.37387 -0.37388,0.18694 -0.56082,0.56082 -0.74776,0.9347 -0.18694,0.18694 -0.37387,0.37388 -0.56081,0.56082 -0.37388,0.37388 -0.56082,0.56082 -0.9347,0.93469 -0.37388,0 -0.56082,0 -0.74776,0.37388 0,0 0,0 -0.18694,0 h -0.37387 c -0.37388,0.37388 -0.74776,0.74776 -0.9347,1.30858 v 0 c 0,0.18694 -0.18694,0 -0.37388,0 -0.37388,-0.37388 -0.37388,-0.37388 -0.56082,0.18694 0,0.18693 -0.18694,0.18693 -0.18694,0.37387 -0.18693,0.18694 -0.37387,0.18694 -0.56081,0 -0.37388,-0.18694 -0.37388,-0.18694 -0.56082,0.18694 -0.18694,0.37388 -0.37388,0.74776 -0.56082,1.30858 0,0.18694 -0.18694,0.18694 -0.37388,0.37388 -0.37387,0.18694 -0.56081,0.56081 -0.74775,0.93469 0,0.18694 -0.18694,0.18694 -0.37388,0.37388 -0.18694,0.18694 -0.37388,0.18694 -0.56082,0.56082 -0.18694,0.18694 -0.37388,0.37388 -0.56082,0.56082 -0.18694,0 -0.37387,0.18693 -0.56081,0.37387 -0.18694,0.18694 -0.37388,0.37388 -0.74776,0.56082 -0.18694,0.18694 -0.18694,0.18694 -0.37388,0 -0.18694,0 -0.37388,0 -0.37388,0 -0.18694,0 -0.18694,0.18694 -0.37388,0 -0.18693,-0.18694 -0.37387,-0.18694 -0.37387,0 -0.56082,0.37388 -1.30858,0.56082 -2.05633,0.9347 0,0 -0.18694,0 -0.37388,0 h -0.18694 v -0.18694 c 0,-0.18694 -0.18694,-0.37388 -0.37388,-0.18694 -0.37388,0.18694 -0.74776,0.37388 -1.12164,0.56082 0,0 -0.18694,0.18694 -0.37387,0.18694 -0.37388,0 -0.74776,0.18693 -0.74776,0.56081 0,0.18694 -0.18694,0.37388 -0.18694,0.56082 -0.18694,0.18694 -0.18694,0.37388 -0.56082,0.56082 -0.37388,0.18694 -0.56082,0.37388 -0.93469,0.37388 h -0.18694 c 0,0 0,-0.18694 0,-0.37388 v 0 c 0.37388,-0.18694 0.56081,-0.56082 0.93469,-0.74776 v -0.18694 l -0.18694,-0.18694 c -0.18694,0 -0.18694,0 -0.37387,0.18694 -0.56082,0.56082 -1.12164,0.74776 -1.68246,0.9347 -0.37388,0.18694 -0.74775,0 -0.93469,0.18694 -0.37388,0.18694 -0.56082,0.37388 -0.9347,0.56081 -0.18694,0.18694 -0.37388,0.18694 -0.74776,0.18694 -0.18693,0 -0.37387,0 -0.56081,0.18694 -0.18694,0.18694 -0.37388,0.18694 -0.56082,0 -0.37388,-0.18694 -0.56082,0 -0.74776,0.37388 -0.18694,0.18694 -0.18694,0.37388 -0.37388,0.37388 -0.18693,0 -0.37387,0.18694 -0.56081,0.37388 -0.18694,-0.37388 -0.37388,-0.18694 -0.56082,0 -0.18694,0.18694 -0.18694,0.18694 -0.37388,0.18694 -0.56082,0 -1.12163,0.37388 -1.86939,0.18694 0,0 -0.18694,0 -0.18694,-0.18694 v -0.18694 c 0.37388,-0.18694 0.74776,-0.18694 0.9347,-0.37388 v -0.18694 0 c -0.18694,-0.18694 -0.37388,0 -0.56082,0 -0.37388,0.18694 -0.9347,0.56082 -1.30858,0.74776 -0.37387,0.18694 -0.93469,0.37388 -1.49551,0.56081 -0.18694,0 -0.37388,0.18694 -0.56082,0.37388 h -0.18694 c 0,0 -0.18694,0 -0.18694,-0.18694 0,0 0,0 0,-0.18694 0,-0.37387 -0.18693,-0.37387 -0.37387,-0.18693 -0.37388,0.37387 -0.9347,0.56081 -1.49552,0.74775 -0.74775,0.18694 -1.49551,0.18694 -2.24327,0.18694 -0.56081,0 -1.12163,0.18694 -1.68245,0 -1.30857,0 -2.43021,0 -3.73878,0 -0.37388,0 -0.74776,0 -1.12164,0 -0.93469,0 -1.86939,0 -2.80409,-0.18694 -0.37387,-0.18694 -0.74775,-0.18694 -1.30857,0 -0.56082,0 -1.12164,0 -1.68245,0 -0.74776,-0.18694 -1.49552,-0.18694 -2.24327,-0.37388 -0.18694,0 -0.18694,0 -0.37388,-0.18694 -0.37388,-0.37387 -0.9347,-0.37387 -1.49552,-0.37387 -0.37387,0 -0.93469,0 -1.30857,0 -0.56082,0 -1.12163,-0.18694 -1.68245,-0.37388 -0.18694,0 -0.37388,-0.18694 -0.74776,-0.18694 -0.74776,0 -1.30857,-0.18694 -2.05633,-0.37388 -0.18694,0 -0.56082,-0.18694 -0.74776,-0.18694 -1.12163,0 -2.05633,-0.37388 -3.17796,-0.56082 -1.12164,-0.37387 -2.24327,-0.37387 -3.36491,-0.74775 0,0 -0.56082,0 -0.93469,0 -0.74776,-0.18694 -1.49552,-0.37388 -2.24327,-0.56082 -0.18694,0 -0.56082,-0.18694 -0.74776,-0.18694 -0.18694,0 -0.37388,0 -0.56082,-0.18694 -0.37388,-0.37388 -0.93469,-0.37388 -1.30857,-0.56082 -0.18694,-0.18694 -0.18694,-0.37387 -0.37388,-0.56081 -0.18694,0 -0.37388,-0.18694 -0.56082,-0.18694 -0.56082,-0.18694 -0.93469,-0.18694 -1.49551,-0.37388 -0.56082,-0.18694 -1.12164,-0.37388 -1.68245,-0.56082 -0.56082,-0.18694 -1.12164,-0.56082 -1.68246,-0.74776 -0.56081,-0.18693 -1.12163,-0.56081 -1.68245,-0.74775 -0.56082,-0.18694 -1.12163,-0.37388 -1.68245,-0.74776 -0.37388,-0.18694 -0.74776,-0.37388 -1.30858,-0.56082 -0.74775,-0.18694 -1.49551,-0.56081 -2.24327,-0.93469 -1.12163,-0.56082 -2.05633,-0.9347 -3.17796,-1.49552 -0.56082,-0.37387 -1.12164,-0.74775 -1.68246,-0.93469 -0.56081,-0.18694 -0.93469,-0.37388 -1.30857,-0.74776 -0.37388,-0.37388 -0.74776,-0.56082 -1.12163,-0.74776 -0.37388,0 -0.56082,-0.18693 -0.9347,-0.56081 0,-0.18694 -0.18694,-0.18694 -0.37388,-0.37388 -0.56082,-0.37388 -1.30857,-0.9347 -1.86939,-1.30858 0,0 -0.18694,0 -0.18694,-0.18693 -0.18694,0 -0.18694,0 -0.37388,0.18693 -0.18694,0.18694 -0.18694,0.37388 -0.37388,0.18694 -0.74775,-0.37387 -0.74775,-0.37387 -1.49551,-1.12163 l -0.18694,-0.18694 c 0,0 0,0 0,-0.18694 l 0.18694,-0.18694 c 0,-0.37388 -0.37388,-0.37388 -0.56082,-0.56082 -0.74775,-0.56081 -1.49551,-0.93469 -2.43021,-1.49551 -0.18694,0 -0.37388,-0.18694 -0.37388,0 -0.18693,0.18694 -0.37387,0 -0.56081,0 -0.37388,-0.37388 -0.74776,-0.56082 -1.12164,-0.9347 -0.18694,-0.18693 -0.56082,-0.37387 -0.74775,-0.74775 -0.56082,-0.56082 -0.9347,-1.12164 -1.8694,-1.30858 -0.37387,-0.18694 -0.74775,-0.37388 -0.93469,-0.56081 -0.18694,-0.18694 -0.37388,-0.37388 -0.56082,-0.56082 -0.56082,-0.56082 -1.30857,-1.12164 -1.86939,-1.68245 -0.18694,-0.18694 -0.37388,-0.37388 -0.74776,-0.37388 -0.37388,-0.37388 -0.93469,-0.56082 -1.30857,-0.9347 -0.9347,-0.74776 -1.68246,-1.68245 -2.61715,-2.61715 -0.74776,-0.93469 -1.68245,-1.86939 -2.43021,-2.61715 -0.9347,-0.93469 -1.86939,-1.86939 -2.61715,-2.80408 -0.18694,-0.18694 -0.56082,-0.56082 -0.74776,-0.74776 -0.18693,-0.37388 -0.56081,-0.74776 -0.93469,-0.9347 -0.37388,-0.18694 -0.74776,-0.56081 -0.9347,-0.93469 -0.18694,-0.18694 -0.37388,-0.37388 -0.56082,-0.56082 -0.18693,0 -0.18693,-0.18694 -0.37387,-0.18694 -0.18694,-0.18694 -0.37388,-0.37388 -0.37388,-0.56082 0,-0.18694 0,-0.18694 0,-0.37387 0,-0.18694 0,-0.37388 -0.18694,-0.74776 0,-0.18694 -0.18694,-0.18694 -0.18694,-0.37388 -0.18694,-0.37388 -0.56082,-0.56082 -1.12164,-0.56082 v 0 0 c 0,-0.18694 0,-0.18694 0,-0.18694 h -0.18693 v 0.18694 c 0,0 0.18693,0.18694 0.18693,0 v 0 0 0.18694 c 0,0.18694 0,0.18694 -0.18693,0.18694 h -0.18694 c -0.18694,-0.18694 -0.37388,-0.56082 -0.56082,-0.74776 -0.18694,-0.18693 -0.37388,-0.37387 -0.56082,-0.74775 0,-0.37388 0,-0.56082 0,-0.9347 0,-0.18694 0,-0.37388 0.37388,-0.56082 0.37388,-0.18693 0.37388,-0.56081 0.18694,-0.74775 -0.18694,-0.37388 -0.56082,-0.9347 -0.74776,-1.30858 -0.56082,-0.93469 -1.30857,-1.68245 -1.86939,-2.80408 0,-0.18694 -0.18694,-0.18694 -0.18694,-0.18694 -0.18694,-0.18694 -0.37388,-0.37388 -0.37388,-0.74776 -0.37388,-0.9347 -1.12163,-1.68245 -1.68245,-2.43021 -0.18694,-0.18694 -0.37388,-0.37388 -0.74776,-0.37388 -0.18694,0 -0.37387,0 -0.37387,-0.18694 -0.18694,-0.74775 -0.18694,-1.49551 -0.56082,-2.24327 0,-0.18694 0,-0.37388 0,-0.37388 0,-0.18693 0,-0.37387 -0.18694,-0.56081 -0.37388,-0.56082 -0.56082,-1.12164 -0.9347,-1.68246 -0.18694,-0.18693 -0.18694,-0.56081 -0.18694,-0.74775 0.18694,-0.37388 0,-0.56082 -0.18694,-0.9347 -0.37387,-0.37388 -0.37387,-0.74776 -0.37387,-1.12163 0,-0.18694 0.18693,-0.37388 0.18693,-0.74776 0,-0.18694 0,-0.18694 0,-0.37388 -0.18693,-0.37388 -0.37387,-0.56082 -0.74775,-0.74776 -0.18694,0 -0.37388,-0.37387 -0.18694,-0.56081 0.18694,-0.37388 0.37388,-0.56082 0.37388,-0.74776 0.18694,-0.37388 0.18694,-0.74776 0.37388,-0.9347 -0.56082,-0.74775 -0.74776,-1.49551 -1.12164,-2.24327 -0.18694,-0.37387 -0.18694,-0.93469 -0.18694,-1.30857 0,-0.18694 0,-0.37388 0,-0.56082 -0.18694,-0.18694 -0.18694,-0.56081 -0.37388,-0.74775 -0.18694,-0.56082 -0.56081,-1.12164 -0.37388,-1.68246 0,-0.18694 0,-0.56081 -0.18693,-0.74775 0,-0.18694 0,-0.18694 0,-0.37388 0.18693,-0.18694 0.18693,-0.37388 0.18693,-0.56082 0,-0.18694 0,-0.56082 0,-0.74776 0,-0.56081 0,-1.12163 -0.18693,-1.68245 0,-0.18694 -0.18694,-0.56082 -0.18694,-0.74776 0,-0.74775 0,-1.30857 -0.18694,-2.05633 -0.18694,0 -0.18694,0 -0.18694,0.18694 0,0.18694 -0.18694,0.18694 -0.18694,0.37388 h -0.18694 c 0,0 -0.18694,0 -0.18694,-0.18694 0,-0.18694 0,-0.18694 0,-0.37388 0,-0.37387 0,-0.93469 0,-1.30857 0,-0.18694 0,-0.18694 0,-0.37388 0,0 0.18694,0 0.18694,-0.18694 0,0 0,0 0.18694,0 0,0.18694 0.18694,0.18694 0.18694,0.37388 h 0.18694 c 0,0 0.18694,0 0.18694,-0.18694 0.18694,-1.12163 0,-2.24327 0.18694,-3.17797 v -0.18693 c 0,-0.37388 0,-0.56082 0,-0.9347 0.18693,-0.9347 0.18693,-1.86939 0.18693,-2.80409 0,-0.74775 0,-1.68245 -0.18693,-2.43021 0,-0.18694 0,-0.56081 0.18693,-0.74775 0.18694,-0.56082 0.18694,-1.12164 0.18694,-1.68246 0,-1.12163 0.18694,-2.24327 0.37388,-3.3649 0,-0.56082 0.18694,-1.30858 0,-1.86939 0,-0.37388 0,-0.9347 0.18694,-1.30858 0.18694,-0.56082 0.18694,-1.12163 0.37388,-1.68245 0,-0.37388 0.18694,-0.56082 0.37388,-0.9347 0.18694,-0.37387 0.37388,-0.74775 0.37388,-1.12163 0,-1.12164 0.37387,-2.24327 0.56081,-3.36491 0,-0.93469 0.18694,-1.68245 0.56082,-2.43021 0.18694,-0.37387 0.18694,-0.56081 0.37388,-0.93469 0,-0.37388 0.18694,-0.9347 0.37388,-1.30858 0,-0.18694 0,-0.18694 0,-0.37387 -0.18694,-0.37388 0,-0.9347 0.18694,-1.30858 0,-0.18694 0.18694,-0.56082 0.18694,-0.74776 0.56081,-0.56081 0.74775,-1.30857 0.93469,-2.05633 0.18694,-0.18694 0.18694,-0.56081 0.37388,-0.74775 0.18694,-0.18694 0.18694,-0.18694 0.18694,-0.37388 0,-0.37388 0,-0.74776 0.37388,-0.9347 0.37388,-0.37388 0.74776,-0.93469 0.93469,-1.49551 0.18694,-0.74776 0.56082,-1.30858 0.74776,-1.86939 0.37388,-0.74776 0.74776,-1.68246 1.30858,-2.24327 0.18693,-0.18694 0.37387,-0.37388 0.37387,-0.74776 0.18694,-0.56082 0.56082,-0.9347 0.74776,-1.30857 0.37388,-0.56082 0.74776,-1.12164 0.9347,-1.68246 0.18694,-0.37387 0.18694,-0.74775 0.37387,-0.93469 0.56082,-0.74776 0.9347,-1.49552 1.12164,-2.24327 0.18694,-0.37388 0.37388,-0.74776 0.56082,-0.9347 0.37388,-0.37388 0.74775,-0.93469 1.12163,-1.30857 0.18694,-0.18694 0.18694,-0.18694 0.18694,-0.37388 0.18694,-0.37388 0.37388,-0.9347 0.37388,-1.30858 0,0 0,-0.18693 -0.18694,-0.37387 0,0 -0.18694,0 -0.37388,0 -0.18694,0 -0.18694,0.18694 -0.37388,0.37387 -0.18694,0.18694 -0.18694,0.18694 -0.37387,0.37388 h -0.18694 v 0 c 0,-0.37388 0,-0.74775 0.18694,-0.93469 0.18693,-0.18694 0.37387,-0.37388 0.56081,-0.56082 0.18694,-0.37388 0.56082,-0.74776 0.9347,-0.9347 0.37388,-0.18694 0.56082,-0.37387 0.56082,-0.74775 0.18694,-0.56082 0.74775,-0.9347 0.93469,-1.49552 0.18694,-0.37387 0.56082,-0.74775 0.74776,-0.93469 0.18694,-0.18694 0.37388,-0.37388 0.56082,-0.56082 0.56081,-0.37388 1.12163,-0.74776 1.30857,-1.30857 0.18694,-0.37388 0.56082,-0.9347 0.9347,-1.12164 0.56081,-0.37388 0.93469,-0.9347 1.12163,-1.49551 0,0 0.18694,0 0.18694,-0.18694 v 0 0 0 0 0 c 0,0 0,0.18694 0.18694,0.18694 0,0 0.18694,0 0.18694,-0.18694 0.18694,-0.37388 0.56082,-0.74776 0.74776,-0.9347 0.56081,-0.56082 1.12163,-1.12163 1.68245,-1.68245 0.18694,-0.18694 0.18694,-0.18694 0.18694,-0.37388 0,-0.37388 0.18694,-0.56082 0.18694,-0.93469 0,-0.18694 0,-0.37388 -0.18694,-0.37388 -0.37388,-0.37388 -0.37388,-0.37388 0,-0.56082 0.18694,-0.18694 0.37388,-0.37388 0.56082,-0.56082 0.37387,-0.56082 0.56081,-0.93469 1.12163,-1.12163 0.37388,-0.56082 0.9347,-0.74776 1.30858,-1.30858 0.37387,-0.56081 0.56081,-0.93469 1.12163,-1.30857 0,0.18694 0,0.18694 0.18694,0.37388 0,0.18694 0.18694,0.18694 0.37388,0 l 0.18694,-0.18694 c 0.37388,-0.74776 0.74775,-1.30858 1.12163,-1.86939 0.18694,-0.37388 0.37388,-0.74776 0.9347,-0.9347 0.18694,0 0.37388,-0.37388 0.56082,-0.56082 0.18693,-0.18694 0.18693,-0.37388 0.56081,-0.56082 0.37388,-0.18693 0.56082,-0.37387 0.9347,-0.56081 0,0 0,0 0.18694,0 0,0 0.18694,0.18694 0,0.18694 -0.18694,0.18694 -0.18694,0.37387 -0.37388,0.56081 0,0 0,0.18694 0,0.37388 0,0.18694 0.37388,0.18694 0.37388,0.18694 l 0.18694,-0.18694 c 0,-0.18694 0.18694,-0.18694 0.37388,-0.18694 0.18693,0 0.37387,0 0.56081,-0.18694 0.18694,-0.18694 0.18694,-0.37387 0.37388,-0.56081 0.74776,-0.74776 1.12164,-1.49552 1.68245,-2.43021 0.18694,0 0.56082,-0.18694 0.74776,-0.18694 0.18694,0 0.18694,0 0.37388,0 -0.37388,0.18694 -0.56082,0.37388 -0.56082,0.74775 v 0.18694 h 0.18694 c 0.37388,-0.18694 0.56082,-0.56081 0.74776,-0.93469 0.18694,-0.37388 0.37388,-0.74776 0.74775,-0.9347 0,0 0.18694,0 0.18694,-0.18694 0.18694,-0.37388 0.56082,-0.37388 0.9347,-0.37388 0.56082,0 0.9347,-0.74775 1.49551,-0.74775 0.18694,0 0.18694,-0.18694 0.37388,-0.18694 l 0.18694,-0.18694 c 0.56082,-0.37388 1.12164,-0.74776 1.68245,-0.9347 0.74776,-0.18694 1.68246,-0.56081 2.43021,-0.93469 0.56082,-0.18694 0.9347,-0.37388 1.30858,-0.74776 0.18694,-0.18694 0.37387,-0.18694 0.56081,-0.18694 1.12164,-0.37388 2.24327,-0.56082 3.17797,-1.30857 0,0 0.18694,0 0.37388,-0.18694 0.74776,-0.18694 1.30857,-0.37388 2.05633,-0.74776 1.30857,-0.56082 2.80409,-1.12163 4.11266,-1.68245 0.18694,0 0.37388,-0.18694 0.37388,-0.37388 0.18694,-0.18694 0.37388,-0.18694 0.56082,-0.18694 0.37388,0.18694 0.56081,0 0.74775,-0.18694 0,-0.18694 0.18694,-0.37388 0.37388,-0.37388 0.18694,0 0.37388,0 0.37388,0 0.37388,0 0.9347,0 1.30858,-0.18694 0.93469,-0.37387 1.68245,-0.74775 2.61714,-1.12163 0.37388,-0.18694 0.74776,-0.18694 0.9347,-0.56082 0.18694,-0.18694 0.37388,-0.18694 0.56082,-0.18694 0.56081,0 0.93469,0 1.30857,0.18694 0.18694,0 0.18694,0 0.37388,0 0.18694,0 0.37388,0 0.37388,-0.18694 0,-0.18694 0,-0.37388 0.18694,-0.37388 0,-0.18693 0.18694,-0.18693 0.18694,-0.18693 0.74775,-0.37388 1.30857,-0.56082 2.05633,-0.37388 0.37388,0.18694 0.56081,0.18694 0.93469,-0.18694 0.18694,-0.18694 1.30858,-0.18694 1.49552,-0.18694 0.37387,0.18694 0.93469,0 1.30857,0 0.37388,0 0.56082,0 0.9347,0.18694 0.18694,0.18694 0.18694,0.18694 0.37388,0.37388 0.18693,0.18694 0.56081,0.18694 0.74775,0 0.18694,-0.18694 0.37388,-0.37388 0.56082,-0.74776 0,-0.18694 0,-0.18694 0.18694,-0.37388 0,-0.18694 0.18694,-0.18694 0.37388,-0.18694 0.37388,0 0.74775,0 1.12163,0.18694 0.37388,0 0.56082,0 0.9347,-0.18694 0.18694,0 0.37388,0 0.37388,0 0.18694,0 0.56081,0.18694 0.74775,0.18694 0.74776,0 1.49552,0 2.24327,-0.37388 0.56082,-0.18694 1.12164,-0.37388 1.68246,-0.37388 0.37387,0 0.56081,-0.18693 0.93469,-0.18693 0.74776,-0.37388 1.49552,-0.74776 2.43021,-0.56082 0.18694,0 0.37388,0 0.56082,0 1.12163,-0.18694 2.05633,-0.37388 3.17796,-0.18694 0.18694,0 0.56082,0 0.74776,0 0.37388,0 0.56082,0 0.9347,-0.18694 0.37388,0 0.93469,0 1.30857,0.18694 0.74776,0.37388 1.68245,0.37388 2.43021,0.37388 0.18694,0 0.37388,0 0.56082,-0.18694 0.18694,-0.18694 0.18694,-0.37388 0.56082,-0.56082 0.37387,0 0.74775,0 1.12163,0 1.68245,0 3.55185,0.18694 5.2343,0.37388 0.74775,0 1.30857,0.18694 2.05633,0.37388 0.74776,0 1.49551,0.18694 2.24327,0.37388 0.18694,0 0.37388,0 0.37388,0 0.56082,0 1.12163,0.18693 1.68245,0.37387 0.18694,0 0.37388,0.18694 0.74776,0.18694 0.37388,0 0.74775,0.18694 1.12163,0.18694 0.56082,0.18694 1.12164,0.18694 1.49552,0.37388 0.37387,0 0.74775,0.18694 0.93469,0.18694 0.18694,0 0.37388,0.18694 0.56082,0.18694 0.74776,0.18694 1.49551,0.37388 2.24327,0.37388 0.18694,0 0.37388,0.18694 0.56082,0.18694 1.12163,0.56081 2.24327,0.74775 3.3649,1.30857 1.68245,0.56082 2.99103,1.30857 4.48654,2.05633 0.18694,0 0.18694,0.18694 0.37388,0.18694 0.37388,0.37388 0.9347,0.56082 1.30857,0.9347 0.56082,0.37387 1.12164,0.74775 1.68246,0.93469 0.18694,0 0.18694,0.18694 0.37388,0.18694 0.56081,0.56082 1.12163,0.9347 1.86939,1.30858 0.37388,0.18693 0.74775,0.56081 0.93469,0.93469 0.56082,0.74776 1.30858,1.30858 2.05633,2.05633 0.56082,0.56082 1.30858,0.9347 2.05634,1.30858 0.18693,0.18694 0.56081,0.37388 0.56081,0.56081 0.18694,0.37388 0.37388,0.56082 0.74776,0.9347 0.18694,0.18694 0.56082,0.37388 0.74776,0.74776 0.37387,0.37388 0.74775,0.74775 1.12163,1.12163 0.18694,0.18694 0.37388,0.18694 0.56082,0 0.37388,-0.18694 0.56082,-0.18694 0.93469,0 l 0.18694,0.18694 c 0.37388,0 0.56082,0.37388 0.74776,0.56082 0.37388,0.56082 0.9347,0.93469 1.49551,1.30857 0.37388,0.18694 0.74776,0.56082 1.12164,0.9347 0.56082,0.56082 0.9347,1.12163 1.49551,1.49551 0.37388,0.37388 0.56082,0.74776 1.12164,0.9347 0.18694,0 0.18694,0.18694 0.18694,0.18694 0.37388,0.18694 0.56081,0.56082 0.74775,0.93469 0.18694,0.18694 0.18694,0.37388 0.37388,0.56082 0.74776,0.56082 1.30858,1.30858 1.68245,2.05633 0.56082,0.9347 1.12164,1.68245 2.24327,2.24327 0.18694,0.18694 0.37388,0.18694 0.56082,0.37388 0.37388,0.37388 0.74776,0.56082 0.9347,0.9347 0.18694,0.37387 0.74776,0.56081 0.93469,0.93469 0.18694,0.18694 0.37388,0.56082 0.56082,0.74776 0.37388,0.74776 0.9347,1.30857 1.49552,1.86939 0.18693,0 0.37387,-0.18694 0.37387,-0.18694 0.18694,-0.18694 0.37388,-0.18694 0.37388,0 l 0.18694,0.18694 c 0.9347,1.49551 2.05633,3.17797 2.99103,4.67348 0.18694,0.18694 0.37388,0.56082 0.56082,0.74776 0.37387,0.56081 0.93469,0.93469 1.12163,1.49551 0,0.18694 0.18694,0.18694 0.18694,0.37388 0.37388,0.37388 0.56082,0.74776 0.74776,1.12163 0.37387,0.9347 0.93469,1.68246 1.30857,2.61715 0.18694,0.37388 0.56082,0.9347 0.74776,1.30858 0.37388,0.93469 0.93469,1.86939 1.30857,2.80408 0.56082,1.12164 0.9347,2.05634 1.68245,2.99103 0.37388,0.74776 0.74776,1.49551 0.9347,2.24327 0,0.37388 0.18694,0.56082 0.37388,0.74776 0.37388,0.37388 0.37388,0.74775 0.56082,1.12163 0,0.37388 0.18694,0.74776 0.18694,0.9347 0.18693,0.37388 0.18693,0.74776 0.18693,0.93469 0.18694,0.9347 0.18694,1.68246 0.56082,2.43021 0,0.18694 0,0.37388 0.18694,0.37388 0.18694,0.9347 0.37388,2.05633 0.74776,2.99103 0.18694,0.56082 0.37388,1.12163 0.56082,1.86939 0.37387,1.30858 0.74775,2.61715 1.12163,4.11266 0.18694,1.12164 0.37388,2.05633 0.74776,3.17797 0,0.18694 0,0.37388 0.18694,0.37388 0.18694,1.30857 0.56081,2.43021 0.56081,3.73878 0.18694,1.68245 0.37388,3.36491 0.37388,5.04736 v 0.18694 c 0.18694,1.12163 0.18694,2.24327 0.18694,3.55184 0.74776,0.37388 0.74776,1.30858 0.37388,2.05633 m -38.69641,66.55035 z m 11.40329,-21.12413 v 0 0 0 0 0 0 m 108.98554,-70.10219 -8.41226,79.82303 h -15.14208 l 15.88984,-112.53738 h 14.76819 l 16.26371,112.53738 h -14.20738 l -9.16002,-79.82303 m -45.8001,-12.8988 c 0,-4.67348 -2.43021,-7.47757 -6.91675,-7.47757 -4.2996,0 -6.54287,2.61715 -6.54287,7.47757 v 92.72183 h -14.95513 v -91.97407 c 0,-13.27269 9.34696,-22.24577 21.498,-22.24577 12.15105,0 21.12413,8.97308 21.12413,22.24577 v 91.97407 H 795.76331 V 248.37543 M 600.41187,233.23336 v 0 0 0 0 0 0 0 0 m 6.35593,-5.98206 c 0.18694,0 0.18694,-0.18694 0.37388,-0.18694 v 0 c -0.18694,0 -0.37388,0 -0.37388,0.18694 v 0 m 5.79512,-7.29063 v 0 0 0 0 0 0 0 m 0.37387,-0.18694 v 0 c 0,0 -0.18693,0 0,0 -0.18693,0 0,0 0,0 v 0 0 0 0 0 m -21.31106,30.09721 h 0.18694 -0.18694 m -7.47757,17.19841 v 0 0 m -0.18694,0.18694 z m 0.18694,0 v 0 0 0 0 0 0 0 m 17.38534,-35.89233 c -0.18693,0 0,0 0,0 0,-0.18694 0,-0.18694 0,-0.18694 0,0 0,0 0,0.18694 v 0 m 0,-0.18694 v 0 0 c 0,-0.18694 0,-0.18694 0,0 v 0 0 0 0 m -0.93469,2.05634 c 0,0 -0.18694,0 0,0 -0.18694,0 -0.18694,0 0,0 0,-0.18694 0,-0.18694 0,0 v 0 0 m -15.70289,29.34945 v -0.18694 c 0,0 0,-0.18694 0.18694,-0.18694 0,0 0,0 0,0.18694 -0.18694,0 -0.18694,0 -0.18694,0.18694 m 36.82702,-49.53889 c 0,0.18694 0,0.37388 -0.18694,0.56082 v 0 0 0 0 c 0,-0.18694 0,-0.37388 0.18694,-0.56082 m -15.32902,14.7682 v 0 c 0,0 -0.18694,-0.18694 0,0 0,-0.37388 0,-0.56082 0.37388,-0.56082 0,0.18694 -0.18694,0.37388 -0.37388,0.56082 m 0.37388,-0.56082 z m -9.34696,9.72084 v 0 c 0,-0.18694 0,-0.37388 0.18694,-0.56082 0,0 0,0 0.18694,0 v 0 c 0,0.37388 -0.18694,0.56082 -0.37388,0.56082 v 0 m 9.90778,-11.21635 c 0,-0.18694 0.18694,-0.18694 0.18694,0 v 0.18694 c -0.18694,0.37388 -0.37388,0.56081 -0.74776,0.93469 0.37388,-0.37388 0.56082,-0.74775 0.56082,-1.12163 m -0.37388,1.12163 c 0,0 0.18694,0 0,0 0.18694,0 0.18694,0 0,0 0,0.18694 0,0 0,0 m -17.94616,26.35843 z m 0,0 c 0,-0.18694 0,-0.18694 0,-0.37388 0.18694,-0.74776 0.56082,-1.30858 0.9347,-1.86939 0,0 0,0 0.18693,0 0,0 0.18694,0.18694 0,0.18694 -0.37387,0.56081 -0.56081,1.30857 -1.12163,2.05633 0,-0.18694 0,-0.18694 0,0 m -5.04736,11.40329 c 0,0.18694 -0.18694,0.18694 -0.37388,0.18694 0,-0.74776 0.18694,-1.30858 0.56082,-1.8694 0.18694,-0.18693 0.37388,-0.37387 0.56082,-0.56081 -0.18694,0.56081 -0.37388,1.12163 -0.56082,1.68245 0,0.37388 0,0.56082 -0.18694,0.56082 m 0.9347,-2.05633 v 0 0 0 0 0 0 0 m 4.11266,-9.34696 z m -1.12164,2.43021 c -0.18693,-0.18694 0,-0.37388 0,-0.37388 0,-0.18694 0.18694,-0.37388 0.18694,-0.56082 0.18694,-0.37388 0.37388,-0.74776 0.56082,-1.30857 0,-0.18694 0.18694,-0.18694 0.18694,-0.18694 h 0.18694 c 0,0.37388 0,0.74775 -0.18694,0.93469 -0.37388,0.56082 -0.56082,1.12164 -0.9347,1.49552" /></g></svg>
