<svg xmlns="http://www.w3.org/2000/svg" xml:space="preserve" width="451.253" height="178.953" version="1.0" viewBox="0 0 451.253 178.953"><path d="M3.1 4.4h450.3v178H3.1z" style="fill:#363a90;stroke:#fff;stroke-width:.9531;stroke-miterlimit:10" transform="translate(-2.623 -3.923)"/><path d="M410.3 125.8V97.2h12.1V83.8h-12.1V59.1h12.9V44.8H393V140h31.5v-14.3h-14.2ZM300.2 44.9H284v95.2h28.4v-14.4h-12.1V44.9ZM68 89.7 48.3 38l-16.4 9.6V140h18.8V94l35.6 57.7V29.3l-18.3 6zm273.1 17h3.9v12.5c0 4.1-.3 6.8-.8 8.3-.7 1.8-2 2.7-3.8 2.7-1.7 0-3-.9-3.5-2.5-.5-1.3-.7-3.9-.7-7.8V67.6c0-6 .4-7.6.7-8.4.6-1.4 1.8-2.2 3.4-2.2 1.8 0 3.1.9 3.6 2.5q.6 1.95.6 9.3v5.9c2-.4 15.9-3.1 17.3-3.3-.1-6.3-.6-10.6-1.6-14-1.1-3.4-3.4-6.4-6.9-8.8-3.5-2.5-8.1-3.8-13.5-3.8-5.5 0-10 1.5-13.4 4.3-3.4 2.9-5.5 6-6.3 9.4-.7 3.5-1.1 9.4-1.1 17.3v36.9c0 5.7.2 10.1.5 12.9.4 2.7 1.2 5.4 2.6 7.9s3.4 4.6 6.1 6.3 5.5 2.5 8.6 2.5c2.5 0 4.7-.6 6.5-1.8s3.4-3 4.6-5.5l.7-1.3s10.5 11.8 13.2 14.8V91.3c-2.1.5-19.2 4.2-20.6 4.5v10.9zM164.8 80.9c-3.2-2.4-5.1-4.5-5.8-6.3-.8-1.8-1.1-4.3-1.1-7.6 0-2.7.3-4.7 1-6 1-2 2.5-2.4 3.7-2.4 1.5 0 2.6.7 3.3 2 .3.7.8 2.1.8 6.8v5.7l15.8-4.2c-.1-6.5-.6-11.2-1.6-14-1.1-2.9-3.3-5.4-6.6-7.3q-5.1-3-12.3-3c-4.4 0-8.2.9-11.3 2.7-3 1.8-5.3 4.3-6.6 7.5-1.4 3.2-2.1 8.5-2.1 15.7q0 7.5 1.5 12.3c1 3.1 2.2 5.6 3.7 7.3 1.5 1.8 4.7 4.8 9.5 8.8 4.9 4.1 8 7.1 9.3 8.9 1.3 1.9 2 5.8 2 11.7 0 2.8-.3 4.8-1.1 6.3-1 2.1-2.7 2.6-3.9 2.6-2.2 0-3.2-1.2-3.7-2.2-.4-.8-.9-2.3-.9-7.4v-10.1l-15.8 5.8c0 6.6.6 11.6 1.6 15.3 1.1 3.6 3.3 6.7 6.8 9.1s7.7 3.6 12.7 3.6c4.5 0 8.5-1.1 11.9-3.1 3.3-2 5.6-4.6 6.8-7.6 1.2-3.1 1.8-8.1 1.8-14.7 0-9.2-1.1-15.9-3.2-20q-3.45-6.45-16.2-16.2m204.1 59.2h16.7V44.8h-16.7ZM243.4 44.9l-18.6 95.2h17.6l2.9-17.9h10.8l2.8 17.9h17l-16.8-95.2Zm3.2 63.4 4.5-39.7 4.4 39.7zM132.3 53.2c-1.8-2.9-4.3-5-7.3-6.5-3-1.4-6.4-2.2-10.2-2.2-4 0-7.5.8-10.5 2.3s-5.4 3.7-7.1 6.5c-1.8 2.8-2.8 6-3.1 9.4s-.5 9.3-.5 17.5V106c0 8.4.2 14.4.5 17.7.3 3.4 1.4 6.5 3.3 9.4 1.8 2.9 4.3 5 7.3 6.5 3 1.4 6.4 2.2 10.2 2.2 4 0 7.5-.8 10.5-2.3s5.4-3.7 7.1-6.5c1.8-2.8 2.8-6 3.2-9.4.3-3.4.5-9.3.5-17.5V80.3c0-8.4-.2-14.4-.5-17.7-.5-3.5-1.6-6.6-3.4-9.4M119 118.1c0 5.1-.3 8.3-.8 9.6s-1.7 2-3.5 2-2.9-.6-3.4-1.8-.7-4.3-.7-9.3V66.1c0-4.4.4-7.1 1.1-8s1.8-1.4 3.2-1.4c1.7 0 2.8.6 3.3 1.7s.8 3.7.8 7.7zm108.3-72.5h-39.5v14.1h11.1V140h17.2V59.7h11.1V45.6Z" style="fill:#fff" transform="translate(-2.623 -3.923)"/></svg>