<svg viewBox="0 0 1774 1420" xmlns="http://www.w3.org/2000/svg" xml:space="preserve" style="fill-rule:evenodd;clip-rule:evenodd;stroke-linejoin:round;stroke-miterlimit:2"><path d="M36.591 25.821 6.586 31.257c-1.736.327-3.357-.653-3.617-2.168L.712 15.93c-.145-.772.116-1.575.665-2.228L8.38 5.801c.492-.565 1.215-.951 1.996-1.099L32.28.751c1.736-.327 3.356.653 3.617 2.168l3.356 19.575c.26 1.515-.926 3.001-2.662 3.327Z" style="fill-rule:nonzero" transform="scale(44.35)"/><path d="M5.92 32c-.723 0-1.446-.178-2.054-.564a3.237 3.237 0 0 1-1.591-2.258L.047 16.049c-.174-.98.144-2.02.839-2.822l7.002-7.902a4.055 4.055 0 0 1 2.373-1.307L32.164.068A4.222 4.222 0 0 1 35 .543a3.24 3.24 0 0 1 1.591 2.258l3.356 19.575c.174.95-.086 1.901-.723 2.673a4.215 4.215 0 0 1-2.488 1.456L6.702 31.941c-.261.029-.521.059-.782.059ZM32.916 1.375c-.173 0-.347.029-.521.059L10.492 5.385c-.637.119-1.215.416-1.591.891l-7.003 7.901c-.434.476-.607 1.07-.52 1.634L3.635 28.94c.202 1.129 1.475 1.872 2.835 1.605l30.005-5.407.116.684-.116-.684c1.36-.237 2.315-1.366 2.113-2.525L35.231 3.038c-.173-.98-1.157-1.663-2.315-1.663Z" style="fill:#fff;fill-rule:nonzero" transform="scale(44.35)"/><path d="m17.292 11.979.26 1.693 1.013-.594s.694 4.456.723 4.664c.087 1.366-1.302 1.188-1.765.921-.145-.089-1.244-.654-1.244-.654.897-.534 2.199-2.109 1.186-3.772-1.215-1.664-2.749-.773-2.749-.773l-4.282 2.496.261 1.663.607-.356.347 2.317-3.356-2.406-2.778 1.633.261 1.664.839-.505.723 4.723-.839.505.26 1.752 3.212-1.871-.607-3.921 1.244.861c.231-.356.521-.861.578-.95a9.99 9.99 0 0 1 .753-1.04c.26-.297.607-.653 1.331-.95.694-.327 1.446-.357 1.996-.208.781.178 2.141 1.099 2.923 1.336.434.149.926.387 1.707.179 1.649-.416 2.257-1.634 2.141-3-.203-1.218-1.157-7.456-1.157-7.456l-3.588 2.049Zm-2.228 4.872c-.29.178-1.187.713-1.187.713l-.26-1.604s.608-.357.926-.535c.289-.178.636.119.694.446.058.297.174.713-.173.98ZM18.97 9.989c.868-.149 1.447-1.04 1.302-1.961-.116-.831-.781-1.425-1.563-1.425-.086 0-.202 0-.289.029-.868.149-1.447 1.04-1.302 1.961.174.921.984 1.544 1.852 1.396Z" style="fill:#f80402;fill-rule:nonzero" transform="scale(44.35)"/><path d="M16.54 19.762c-.377-.178-1.245-.446-1.245-.446-2.227-.505-3.501 1.129-3.906 2.377-.058.208-.058.861.405 0 1.013-2.05 2.662-2.169 3.704-1.991 0 0 .868.179.521.06s-.434-.178-.174-.149c.261.03.781.179.695.149ZM16.8 25.168l-1.215.208-.29-1.634-.463 1.753-1.041.178-1.013-1.485.289 1.634-1.186.237-.521-3 1.563-.297 1.215 1.812.55-2.139 1.562-.297.55 3.03ZM17.668 24.693c-.405-.178-.665-.535-.752-1.069-.087-.535.029-.981.347-1.278.347-.297.868-.534 1.62-.653.753-.149 1.331-.119 1.736.059.406.178.666.535.753 1.07.087.534-.029.98-.347 1.277-.348.297-.868.535-1.621.653-.752.119-1.331.089-1.736-.059Zm2.228-1.129a.608.608 0 0 0 .174-.535.547.547 0 0 0-.347-.445c-.174-.089-.434-.089-.724-.03-.289.06-.521.149-.665.297a.609.609 0 0 0-.174.535.546.546 0 0 0 .347.445c.174.09.434.09.724.03.289-.059.52-.148.665-.297ZM25.567 22.287c.116.089.174.237.203.416.058.267-.029.475-.174.653-.173.178-.434.297-.752.356l-2.836.505-.521-3 2.749-.505c.347-.059.608-.029.81.089.203.119.319.298.377.535.028.149.028.297-.029.416-.058.119-.116.238-.232.327a.758.758 0 0 1 .405.208Zm-1.62-.624-1.129.208.058.267 1.129-.208c.115-.029.144-.059.144-.148-.057-.119-.115-.149-.202-.119Zm.376 1.218c.029-.03.029-.06.029-.089 0-.03-.029-.06-.058-.089-.029-.03-.058-.03-.116-.03l-1.186.208.058.267 1.186-.208c.029 0 .058-.03.087-.059ZM26.869 20.237l.521 3-1.215.208-.521-3 1.215-.208ZM31.151 22.554l-3.298.594-.521-3 1.215-.208.376 2.139 2.084-.386.144.861ZM32.367 20.415l1.967-.356.145.772-1.968.357.029.237 2.17-.386.145.862-3.385.623-.521-3 3.385-.624.145.862-2.17.386.058.267Z" style="fill:#fff;fill-rule:nonzero" transform="scale(44.35)"/></svg>