<svg viewBox="0 0 89 24" id="parispremierereplay" xmlns="http://www.w3.org/2000/svg" width="890" height="240"><g fill="none"><path fill="#131819" d="M0 12h89v12H0z"/><path fill="#F35E17" d="M0 0h89v12H0z"/><path fill="#FFF" d="M7.173 11.978a3.16 3.16 0 0 1 2.887 1.794c.16.376.244.78.248 1.189a3.109 3.109 0 0 1-.857 2.108 3.212 3.212 0 0 1-2.188.897H3.88v4.015H2.774V11.978h4.399zM27.654 1.907l.203.47.474 1.122.677 1.57.79 1.795.789 1.816.699 1.593.519 1.211.205.493h.314v1.032h-5.188v3.365h4.06v1.032h-4.06v3.566h5.12v1.01h-6.18V11.977h3.947l-.158-.382-.293-.65-.293-.673-.18-.404h-4.196l-.158.381-.294.673-.293.673L24 12h-1.985l.203-.493.497-1.167.699-1.592c.27-.584.519-1.212.767-1.817l.767-1.817.676-1.593.474-1.143.203-.471h1.353zm56.685.628a3.722 3.722 0 0 1 1.354 2.063l-.361.09-.497.112-.496.112-.383.09a1.898 1.898 0 0 0-.248-.583 1.797 1.797 0 0 0-.429-.494 1.627 1.627 0 0 0-.609-.336 2.176 2.176 0 0 0-.744-.135 2.004 2.004 0 0 0-2.053 1.817l.541.202 1.083.404 1.353.493 1.331.494 1.06.403.497.18c.067.291.09.605.067.942A3.69 3.69 0 0 1 84.7 11.08c-.406.401-.89.706-1.417.9l2.477-.002v1.031h-5.188v3.365h4.06v1.032h-4.06v3.566h5.098v1.01h-6.18l.022-10.004h.947a4.139 4.139 0 0 1-1.105-.628 3.81 3.81 0 0 1-1.24-1.997l.338-.09.496-.112.519-.112.36-.09a2.096 2.096 0 0 0 2.099 1.57 2.037 2.037 0 0 0 1.42-.493c.384-.381.61-.897.61-1.458l-.496-.18-1.06-.403-1.331-.493-1.354-.494-1.105-.404-.564-.224-.023-.381v-.471a3.79 3.79 0 0 1 2.301-3.5 4.102 4.102 0 0 1 4.015.517zM48.88 1.95a3.167 3.167 0 0 1 2.287.928 3.13 3.13 0 0 1 .916 2.28 3.347 3.347 0 0 1-.18 1.054 3.188 3.188 0 0 1-1.196 1.525c-.243.174-.52.296-.812.36l.248.38.429.696.519.852.519.853.428.695.248.381-1.24.012V21.98h-1.083V11.955h.031l-.189-.336-.383-.65-.474-.786a25.498 25.498 0 0 0-.902-1.48l-.226-.382h-2.459v3.633l.249.001v10.026h-1.15v-7.469l-2.956 6.46h-.992l-2.978-6.46v7.47h-1.15V11.954h1.15l3.52 7.581 3.394-7.559h-.891V1.952h5.323zm13.782 10.027v1.031h-5.82v3.365h4.692v1.032h-4.691v3.566h5.73v1.01H55.76l.023-10.004h6.88zm9.09 0c.43 0 .858.09 1.264.246a2.915 2.915 0 0 1 1.76 2.76c0 .38-.068.74-.204 1.098a3.053 3.053 0 0 1-.564.875 2.936 2.936 0 0 1-1.646.942l.248.359.473.718.587.92.586.919.474.74.27.404h-1.33l-.226-.381-.45-.718-1.129-1.75-.45-.717-.249-.404H68.37v3.992h-1.083V11.978h4.467zm-53.481 0a2.864 2.864 0 0 1 2.21.942 3.127 3.127 0 0 1 .61 3.185 3.535 3.535 0 0 1-.542.874 2.936 2.936 0 0 1-1.647.942l.249.36.473.717.587.92.586.92.496.74.271.403h-1.33l-.226-.381-.451-.718-.564-.875-.564-.874-.451-.718-.248-.404h-2.843v3.97h-1.082V11.978h4.466zm-11.143 1.01H3.835l.022 3.992h3.27c.249 0 .497-.044.745-.157a1.89 1.89 0 0 0 1.083-1.031 2.066 2.066 0 0 0 0-1.638 2.133 2.133 0 0 0-.451-.628 1.9 1.9 0 0 0-1.376-.538zm64.534 0h-3.27v3.992h3.27c.271 0 .564-.044.812-.157.226-.112.452-.246.61-.448.161-.187.29-.4.383-.628a2.164 2.164 0 0 0 0-1.48 2.74 2.74 0 0 0-.384-.651 1.646 1.646 0 0 0-.609-.449 2.04 2.04 0 0 0-.812-.18zm-53.504 0h-3.27v3.992h3.293c.27 0 .564-.044.812-.157.225-.112.45-.246.609-.448.161-.187.29-.4.383-.628a2.164 2.164 0 0 0 0-1.48 2.74 2.74 0 0 0-.383-.651 1.832 1.832 0 0 0-1.444-.628zM66.001 1.95v10.027h-1.85V1.95h1.85zm-58.061 0c.451 0 .88.09 1.308.247.392.168.751.403 1.06.695.311.3.557.658.722 1.055.144.41.22.843.226 1.278A3.284 3.284 0 0 1 7.985 8.48h-3.36v3.476h-1.85V1.951H7.94zm19.038 2.94-.158.359-.27.583-.317.718-.315.695-.249.583-.135.292H28.4l-.136-.27-.248-.56-.315-.718-.316-.718-.27-.605-.136-.36zM7.918 3.723H4.623v3.028h3.293c.18 0 .384-.044.564-.112.179-.07.34-.177.474-.314.29-.293.451-.688.451-1.099a1.785 1.785 0 0 0-.113-.605 1.146 1.146 0 0 0-.338-.471 1.58 1.58 0 0 0-.474-.314 1.58 1.58 0 0 0-.564-.113zm40.85-.022H45.36v2.893h3.34c.406.023.79-.134 1.082-.426a1.49 1.49 0 0 0 .406-1.01 1.409 1.409 0 0 0-.4-1.027 1.425 1.425 0 0 0-1.02-.43z"/></g></svg>