<svg viewBox="0 0 26 24" id="gulli" xmlns="http://www.w3.org/2000/svg" height="480" width="520"><radialGradient id="cca" cx="50%" cy="50%" gradientTransform="matrix(.92308 0 0 1 .038 0)" r="54.167%"><stop offset="0" stop-color="#75f60f" /><stop offset=".559" stop-color="#46d73d" /><stop offset=".856" stop-color="#45d94f" /><stop offset="1" stop-color="#6deb73" /></radialGradient><g fill="none"><path d="M3.218 21.068c.072.08.144.157.218.233.62.637 1.407 1.151 2.312 1.553.96.425 2.051.724 3.214.91 2.594.414 5.544.265 8.174-.303a19.52 19.52 0 0 0 3.162-.953c.974-.393 1.833-.854 2.52-1.372.128-.096.252-.199.372-.306.762-.682 1.361-1.578 1.807-2.613.358-.83.617-1.748.782-2.718.366-2.149.27-4.545-.235-6.773a16.073 16.073 0 0 0-1.014-3.061c-.476-1.05-1.062-1.994-1.751-2.768-.089-.1-.18-.196-.272-.29-.616-.628-1.44-1.136-2.403-1.53-.925-.38-1.98-.654-3.105-.831-2.62-.412-5.626-.296-8.292.27-1.195.253-2.321.597-3.314 1.023-1.023.44-1.904.969-2.57 1.578a5.42 5.42 0 0 0-.375.379c-.55.612-1.006 1.35-1.37 2.178a12.501 12.501 0 0 0-.843 2.874c-.37 2.128-.302 4.49.19 6.697.222.996.53 1.96.924 2.857.49 1.118 1.115 2.13 1.87 2.966z" fill="url(#cca)" /><path d="M10.622 11.26V8.017h1.218l-.002 3.47c.038 1.854.977 2.167 1.891 2.167 1.24 0 1.86-.559 1.81-2.55V8.017h.913v3.243c0 2.657-.997 3.47-2.962 3.47-1.81 0-2.868-.813-2.868-3.47zm7.732 3.315h-.964V6.102l1.243-.013-.28 8.486zm2.028 0h-.819l.054-8.755c0-.01 1.22-.01 1.22-.01zm1.403-7.384V6.089h1.22L22.94 7.19h-1.155zm.89 7.384h-1.03l.21-6.572h1.05zm-15.508.355c-.028-.164.048-.28.265-.345 1.675-.369 2.847-1.377 2.534-3.863-.34-2.837-2.047-3.305-4.052-3.016-2.05.247-3.59 1.147-3.258 3.952.258 2.162 1.335 2.957 2.73 3.087.223.041.472.301-.092.51-.949.26-1.607.947-1.607 2.484 0 2.102 1.22 2.624 2.74 2.624 1.51 0 2.74-.522 2.74-2.624 0-1.216-.408-1.895-1.04-2.256h.005l-.056-.028c-.044-.023-.087-.048-.134-.067-.368-.138-.718-.276-.775-.458zm.163 2.992c0 1.073-.627 1.34-1.4 1.34-.775 0-1.398-.267-1.398-1.34 0-1.07.623-1.337 1.399-1.337.772 0 1.399.26 1.399 1.337zm-.67-4.163c-1.362 0-2.458-.467-2.458-2.356 0-1.88 1.095-2.347 2.458-2.347 1.358 0 2.46.45 2.46 2.347 0 1.889-1.102 2.356-2.46 2.356z" fill="#fff" /></g></svg>