<?xml version="1.0" encoding="UTF-8" standalone="no"?>
<!-- Created with Inkscape (http://www.inkscape.org/) -->

<svg
   xmlns:dc="http://purl.org/dc/elements/1.1/"
   xmlns:cc="http://creativecommons.org/ns#"
   xmlns:rdf="http://www.w3.org/1999/02/22-rdf-syntax-ns#"
   xmlns:svg="http://www.w3.org/2000/svg"
   xmlns="http://www.w3.org/2000/svg"
   xmlns:sodipodi="http://sodipodi.sourceforge.net/DTD/sodipodi-0.dtd"
   xmlns:inkscape="http://www.inkscape.org/namespaces/inkscape"
   id="svg2"
   version="1.1"
   inkscape:version="0.91 r13725"
   xml:space="preserve"
   width="324.96661"
   height="104.14025"
   viewBox="0 0 324.96662 104.14025"
   sodipodi:docname="Lagardère Active.svg"><metadata
     id="metadata8"><rdf:RDF><cc:Work
         rdf:about=""><dc:format>image/svg+xml</dc:format><dc:type
           rdf:resource="http://purl.org/dc/dcmitype/StillImage" /><dc:title></dc:title></cc:Work></rdf:RDF></metadata><defs
     id="defs6" /><sodipodi:namedview
     pagecolor="#ffffff"
     bordercolor="#666666"
     borderopacity="1"
     objecttolerance="10"
     gridtolerance="10"
     guidetolerance="10"
     inkscape:pageopacity="0"
     inkscape:pageshadow="2"
     inkscape:window-width="1920"
     inkscape:window-height="1017"
     id="namedview4"
     showgrid="false"
     fit-margin-left="1"
     fit-margin-top="1"
     fit-margin-bottom="1"
     fit-margin-right="1"
     inkscape:zoom="2.5410729"
     inkscape:cx="198.26668"
     inkscape:cy="14.720621"
     inkscape:window-x="-8"
     inkscape:window-y="-8"
     inkscape:window-maximized="1"
     inkscape:current-layer="g10" /><g
     id="g10"
     inkscape:groupmode="layer"
     inkscape:label="ink_ext_XXXXXX"
     transform="matrix(1.25,0,0,-1.25,-242.70634,236.79487)"><g
       id="g12"
       transform="matrix(0.05,0,0,0.05,162.07586,73.8899)"><path
         d="m 4304.88,2294.91 c 0,0 123.34,-211.21 295.68,-265.29 l -125.66,265.3 -170.02,-0.01"
         style="fill:#ec0677;fill-opacity:1;fill-rule:nonzero;stroke:none"
         id="path14"
         inkscape:connector-curvature="0" /><path
         d="m 1521.86,1960.27 c -74.64,-6.77 -137.91,-25.27 -183.45,-42.56 l -17.45,-81.99 280.2,0.03 c 0,0 71.85,-0.09 57.26,-69.94 l -17.37,-78.27 c -235.27,-22.47 -440.03,-80.18 -482.46,-279.72 -30.22,-142.39 49.77,-226.22 244.96,-230.4 l 289.29,0.02 92.58,435.76 c 79.65,358.21 -223.48,349.67 -263.56,347.07 z m 33.66,-675.33 -116.29,0 0,0 c -90.6,3.79 -137.71,34.73 -117.78,128.5 29.24,137.74 136.51,172.85 302.25,192.57 l -68.18,-321.07"
         style="fill:#102d5d;fill-opacity:1;fill-rule:evenodd;stroke:none"
         id="path16"
         inkscape:connector-curvature="0" /><path
         d="m 3573.54,1959.22 c 0,0 -351.44,48.64 -448.52,-417.68 l -77.59,-363.96 160.41,0.02 121.48,592.09 c 13.06,57.01 56.23,65.25 69.12,66.23 l 148.79,0.02 26.31,123.28"
         style="fill:#102d5d;fill-opacity:1;fill-rule:evenodd;stroke:none"
         id="path18"
         inkscape:connector-curvature="0" /><path
         d="m 5285.78,1959.39 c 0,0 -351.42,48.63 -448.51,-417.68 l -77.54,-363.98 160.41,0.04 121.42,592.09 c 13.11,57 56.25,65.24 69.14,66.23 l 148.81,0.02 26.27,123.28"
         style="fill:#102d5d;fill-opacity:1;fill-rule:evenodd;stroke:none"
         id="path20"
         inkscape:connector-curvature="0" /><path
         d="m 4669.6,1338.95 c -43.19,-20.4 -115.26,-43.27 -192.77,-43.29 -137.75,-0.02 -171.47,96.98 -160.25,212.19 l 476.39,66.1 c 11.25,49.19 16.89,94.15 16.87,134.94 -0.02,164.38 -92.8,252.14 -247.37,252.13 -126.45,-0.02 -233.3,-59.68 -306.34,-165.04 -63.22,-91.41 -103.95,-224.91 -103.95,-337.36 0.03,-184.07 112.45,-280.92 289.56,-280.91 76.89,0 146.15,13.5 200.47,32.21 l 27.39,129.03 z m -301.05,395.19 c 43.58,81.51 106.8,127.81 175.65,127.82 71.68,0.01 112.44,-44.9 112.46,-133.43 0,-25.3 -3.48,-57.85 -10.51,-88.8 l -325.37,-44.74 c 11.23,54.79 28.09,101.18 47.77,139.15"
         style="fill:#102d5d;fill-opacity:1;fill-rule:evenodd;stroke:none"
         id="path22"
         inkscape:connector-curvature="0" /><path
         d="m 5685.04,1339.04 c -43.2,-20.38 -115.27,-43.27 -192.78,-43.28 -137.77,-0.02 -171.47,96.97 -160.25,212.19 l 476.4,66.09 c 11.24,49.2 16.84,94.16 16.84,134.95 0,164.38 -92.75,252.14 -247.38,252.12 -126.45,-0.01 -233.24,-59.66 -306.32,-165.04 -63.22,-91.4 -103.94,-224.91 -103.94,-337.34 0.01,-184.1 112.45,-280.94 289.52,-280.92 76.89,0.01 146.19,13.49 200.48,32.22 l 27.43,129.01 z M 5384,1734.24 c 43.55,81.51 106.78,127.81 175.63,127.82 71.68,0.01 112.44,-44.9 112.44,-133.43 0,-25.3 -2.79,-54.81 -9.82,-85.71 l -326.04,-47.83 c 11.27,54.79 28.09,101.18 47.79,139.15"
         style="fill:#102d5d;fill-opacity:1;fill-rule:evenodd;stroke:none"
         id="path24"
         inkscape:connector-curvature="0" /><path
         d="m 4089.66,2294.88 -70.81,-333.92 -123.32,-0.01 -0.04,-0.09 c -125.35,-0.77 -233.03,-57.43 -308.38,-157.88 -68.84,-91.4 -113.79,-230.5 -113.77,-347.11 0.02,-177.14 112.44,-278.24 292.36,-278.22 4.2,0 258.05,0.03 258.05,0.03 l 235.93,1117.22 -170.02,-0.02 z m -214.13,-1009.71 -97.39,-0.01 c -94.53,3.17 -134.76,69.25 -134.78,169.25 -0.02,89.96 29.55,209.41 75.85,285.31 45.03,74.52 109.66,122.17 199.66,122.18 1.62,0 78.86,0.01 78.86,0.01 l -122.2,-576.74"
         style="fill:#102d5d;fill-opacity:1;fill-rule:evenodd;stroke:none"
         id="path26"
         inkscape:connector-curvature="0" /><path
         d="m 841.777,1296.8 c -14.394,0.8 -55.547,7.46 -45.586,64.77 L 965.422,2158.23 785.5,2158.21 667.473,1601.66 c -1.614,-6.53 -83.203,-424.32 257.156,-424.3 l 172.851,0.03 25.42,119.43 -281.123,-0.02"
         style="fill:#102d5d;fill-opacity:1;fill-rule:evenodd;stroke:none"
         id="path28"
         inkscape:connector-curvature="0" /><path
         d="m 2263.72,1960.79 c -151.67,-0.01 -266.9,-59.99 -344.16,-165.27 -67.4,-91.31 -113.74,-238.12 -113.72,-353.33 0.01,-162.95 95.54,-264.73 245.86,-264.71 60.43,0 108.16,10.75 140.49,26.25 l -8.46,-38.96 c -21.08,-94.07 -87.08,-167.172 -209.28,-167.172 -69,-0.008 -133.89,17.052 -172.45,37.102 l -26.63,-125.384 c 54.06,-20.546 127.51,-33.66 204.42,-33.836 85.28,1.934 315.19,36.297 380.85,338.48 l 143.32,695.31 c -46.34,28.21 -133.49,51.53 -240.24,51.52 z m -50.5,-659.39 c -26.7,-14.06 -63.22,-23.97 -102.56,-23.97 -95.51,-0.01 -137.67,55.25 -137.68,153.54 -0.01,88.52 30.87,218.45 73.04,295.74 47.73,87.1 110.95,134.84 195.23,134.85 43.52,0 68.83,-7.03 84.28,-15.4 L 2213.22,1301.4"
         style="fill:#102d5d;fill-opacity:1;fill-rule:evenodd;stroke:none"
         id="path30"
         inkscape:connector-curvature="0" /><path
         d="m 2809.73,1960.39 c -74.62,-6.76 -137.89,-25.26 -183.43,-42.55 l -17.43,-82 280.19,0.04 c 0,0 71.83,-0.09 57.24,-69.94 l -17.36,-78.28 c -235.27,-22.46 -440.04,-80.18 -482.44,-279.71 -30.24,-142.4 49.72,-226.21 244.94,-230.41 l 289.31,0.03 92.58,435.75 c 79.63,358.22 -223.53,349.68 -263.6,347.07 z m 33.67,-675.31 -102.68,-0.02 c -4.57,0 -13.61,0 -13.61,0 l 0,0 c -90.59,3.79 -137.7,34.74 -117.78,128.51 29.22,137.73 136.51,172.84 302.29,192.57 l -68.22,-321.06"
         style="fill:#102d5d;fill-opacity:1;fill-rule:evenodd;stroke:none"
         id="path32"
         inkscape:connector-curvature="0" /><path
         d="m 4361.76,666.016 -8.55,94.523 -118.54,0 -48.6,-94.523 -64.61,0 197.58,367.394 65.14,0 45.39,-367.394 -67.81,0 z m -20.83,263.261 c -2.13,25.098 -1.6,44.328 -1.6,44.328 l -1.07,0 c 0,0 -5.88,-19.23 -18.69,-44.328 l -65.68,-129.226 97.72,0 -10.68,129.226"
         style="fill:#ec0677;fill-opacity:1;fill-rule:nonzero;stroke:none"
         id="path34"
         inkscape:connector-curvature="0" /><path
         d="m 4707.77,979.473 c -6.93,4.804 -22.42,11.211 -40.57,11.211 -28.31,0 -50.74,-14.414 -69.43,-35.77 -33.64,-38.984 -53.39,-108.41 -53.39,-159.668 0,-51.262 18.69,-81.699 60.34,-81.699 20.29,0 40.58,6.402 50.73,12.812 l 6.93,-44.855 c -16.55,-11.746 -45.38,-20.828 -77.42,-20.828 -75.83,0 -111.07,56.601 -111.07,131.367 0,71.551 29.9,155.926 81.7,203.984 28.84,26.703 64.62,42.723 105.19,42.723 32.58,0 57.68,-9.61 71.03,-20.83 l -24.04,-38.447"
         style="fill:#ec0677;fill-opacity:1;fill-rule:nonzero;stroke:none"
         id="path36"
         inkscape:connector-curvature="0" /><path
         d="m 4954.48,988.02 -67.82,0 -66.75,-322.004 -67.81,0 66.75,322.004 -67.83,0 9.62,45.39 203.45,0 -9.61,-45.39"
         style="fill:#ec0677;fill-opacity:1;fill-rule:nonzero;stroke:none"
         id="path38"
         inkscape:connector-curvature="0" /><path
         d="m 5005.21,666.016 -68.88,0 75.83,367.394 68.89,0 -75.84,-367.394"
         style="fill:#ec0677;fill-opacity:1;fill-rule:nonzero;stroke:none"
         id="path40"
         inkscape:connector-curvature="0" /><path
         d="m 5214.54,666.016 -59.81,0 -34.17,367.394 69.95,0 10.68,-240.305 c 1.07,-21.355 1.07,-44.851 1.07,-44.851 l 1.07,0 c 0,0 8.01,23.496 17.62,44.851 l 111.61,240.305 66.75,0 -184.77,-367.394"
         style="fill:#ec0677;fill-opacity:1;fill-rule:nonzero;stroke:none"
         id="path42"
         inkscape:connector-curvature="0" /><path
         d="m 5608.1,988.02 -111.08,0 -22.97,-111.075 98.27,0 -9.09,-44.855 -98.25,0 -25.1,-120.684 111.08,0 -9.08,-45.39 -179.43,0 75.83,367.394 179.43,0 -9.61,-45.39"
         style="fill:#ec0677;fill-opacity:1;fill-rule:nonzero;stroke:none"
         id="path44"
         inkscape:connector-curvature="0" /></g></g></svg>