<svg width="72" height="42" viewBox="0 0 72 42" fill="none" xmlns="http://www.w3.org/2000/svg">
<path d="M39.7292 23.6904V24.0046C39.5725 26.2034 37.6087 27.9313 35.4091 27.7746C33.2103 27.6179 31.4824 25.6542 31.6391 23.4545V10.7598L25.5128 11.5296V23.3771C25.4345 28.5606 29.2044 33.0374 34.3097 33.8226C39.8075 34.687 45.3837 30.6811 45.7763 25.0257C45.9969 21.9328 45.9419 13.7311 45.9338 8.96347L39.8147 9.73241C39.83 13.2971 39.8498 21.497 39.7283 23.6904H39.7292Z" fill="#2305F2"/>
<path d="M71.8518 20.078C70.8308 13.795 64.862 9.4749 58.5781 10.4959C57.793 10.6526 57.0069 10.8102 56.3001 11.1244L55.4357 11.4387L54.9648 11.5953C54.909 10.541 54.9324 4.15444 54.9504 0L48.7602 0.777945V22.1201C48.7602 22.5127 48.7602 22.9836 48.8385 23.3771C49.6237 29.425 54.3364 33.8226 60.2268 33.8226C61.6404 33.8226 62.9757 33.5867 64.311 33.1158C69.6521 31.3096 72.7144 25.8117 71.8509 20.078H71.8518ZM65.5688 21.8842C65.4905 24.869 63.1341 27.2254 60.1493 27.1461C57.1645 27.0678 54.8082 24.7114 54.8874 21.7266C54.9657 18.8994 57.2437 16.543 60.1493 16.4647H60.306C63.2908 16.543 65.6472 18.8994 65.5679 21.8842H65.5688Z" fill="#2305F2"/>
<path d="M23.1573 22.1201V20.8631C22.3722 14.8944 17.6595 10.4176 11.7691 10.4176C10.3555 10.4176 9.02018 10.6535 7.68489 11.1244C2.34373 12.9306 -0.719428 18.4285 0.144955 24.1622C1.16601 30.4452 7.05641 34.7653 13.3394 33.8226C14.1245 33.6659 14.9106 33.5083 15.6174 33.1941L16.4809 32.8799L16.9518 32.7232C17.0229 34.0072 16.9653 39.8237 16.9536 42L23.1564 41.2203V22.1201H23.1573ZM17.1886 22.356C17.1886 25.3408 14.7539 27.6963 11.7691 27.7755H11.6124C8.54928 27.6972 6.1146 25.2625 6.19293 22.1993C6.27127 19.1362 8.70595 16.7015 11.7691 16.7798C14.8323 16.8582 17.2669 19.2928 17.1886 22.356Z" fill="#2305F2"/>
</svg>
