<svg width="418" height="418" viewBox="0 0 418 418" fill="none" xmlns="http://www.w3.org/2000/svg">
<path d="M108.608 199.857C101.82 199.857 99.3172 194.074 97.6614 190.246C96.7738 188.196 96.1329 186.715 95.094 186.632C94.9936 186.624 94.8946 186.62 94.7956 186.62C92.9329 186.62 91.3576 187.973 89.5327 189.54C87.3077 191.451 84.7849 193.618 81.1833 193.618C79.4636 193.618 77.6669 193.139 75.6901 192.155C74.964 191.794 74.0103 190.431 72.9061 188.854C70.4699 185.374 67.133 180.61 62.2951 180.61C62.214 180.61 62.1315 180.611 62.0503 180.614C61.8557 180.621 61.6619 180.624 61.4645 180.624C55.0066 180.624 46.475 176.964 40.7157 171.724C36.5214 167.907 32.0885 155.498 32.8091 149.594C35.5533 127.101 55.0781 125.353 60.9969 125.353C62.17 125.353 62.8761 125.42 62.8837 125.42L63.0886 125.44L63.2027 125.268C63.2997 125.123 72.9349 110.717 77.8973 108.432C81.054 106.977 85.6932 106.24 91.6863 106.24C103.402 106.24 118.093 109.179 125.967 111.946C134.316 114.878 139.625 121.863 147.007 139.628C149.172 144.842 157.717 145.334 166.762 145.855C173.554 146.245 180.576 146.65 184.313 149.256C186.308 150.649 189.468 155.489 188.563 158.04C188.218 159.013 187.02 159.693 185.75 160.413C183.905 161.46 181.815 162.647 181.824 165.105C181.845 170.434 180.549 174.448 177.971 177.037C175.529 179.487 171.863 180.73 167.072 180.73C161.714 180.73 156.141 179.22 152.453 178.221C150.667 177.737 149.375 177.387 148.742 177.387L148.644 177.39C144.268 177.662 142.215 179.416 138.126 182.913C135.148 185.458 131.07 188.945 124.163 193.575C117.946 197.743 112.713 199.857 108.608 199.857Z" fill="#E8B6BD"/>
<path d="M91.6854 106.584C103.363 106.584 118.004 109.514 125.852 112.27C134.093 115.164 139.35 122.101 146.688 139.76C148.937 145.173 157.586 145.671 166.742 146.197C173.486 146.585 180.458 146.987 184.116 149.537C185.989 150.845 189.081 155.553 188.239 157.924C187.937 158.776 186.792 159.426 185.58 160.114C183.749 161.153 181.471 162.447 181.48 165.106C181.501 170.34 180.238 174.273 177.727 176.794C175.353 179.178 171.769 180.386 167.072 180.386C161.76 180.386 156.214 178.883 152.544 177.889C150.664 177.38 149.423 177.044 148.743 177.044C148.701 177.044 148.661 177.044 148.624 177.047C144.133 177.325 142.05 179.105 137.903 182.652C134.931 185.191 130.862 188.671 123.972 193.289C117.813 197.419 112.643 199.513 108.608 199.513C102.046 199.513 99.6938 194.079 97.9769 190.11C97.0418 187.949 96.3665 186.389 95.1213 186.289C95.012 186.28 94.9033 186.276 94.7954 186.276C92.8048 186.276 91.1071 187.734 89.3091 189.279C87.1287 191.152 84.6575 193.274 81.1838 193.274C79.5185 193.274 77.772 192.807 75.8433 191.847C75.1962 191.524 74.2205 190.132 73.1885 188.657C70.709 185.117 67.313 180.266 62.2963 180.266C62.2117 180.266 62.1251 180.268 62.0398 180.271C61.8494 180.277 61.6582 180.281 61.4657 180.281C55.0869 180.281 46.6495 176.657 40.948 171.47C36.8114 167.706 32.4397 155.463 33.152 149.636C34.3099 140.147 38.5524 133.328 45.7611 129.369C51.5795 126.174 57.805 125.697 60.9981 125.697C62.1512 125.697 62.845 125.761 62.8519 125.762L63.2617 125.801L63.49 125.46C63.5862 125.315 73.1678 110.99 78.0422 108.745C81.1522 107.311 85.7425 106.584 91.6854 106.584ZM91.6854 105.896C86.1537 105.896 81.1976 106.532 77.7527 108.12C72.6439 110.472 62.9158 125.078 62.9158 125.078C62.9158 125.078 62.2035 125.009 60.9961 125.009C54.7493 125.009 35.2375 126.846 32.4672 149.552C31.7548 155.384 36.0791 167.971 40.4831 171.977C45.825 176.838 54.3347 180.968 61.4636 180.968C61.6644 180.968 61.8625 180.964 62.0605 180.957C62.1382 180.955 62.2173 180.953 62.2943 180.953C69.2018 180.953 73.0654 191.232 75.5352 192.461C77.684 193.532 79.5432 193.961 81.1817 193.961C87.8005 193.961 90.8197 186.963 94.794 186.963C94.8841 186.963 94.9742 186.966 95.0649 186.974C97.6138 187.178 98.1852 200.2 108.607 200.2C112.379 200.2 117.441 198.495 124.354 193.859C140.848 182.803 141.321 178.187 148.664 177.732C148.688 177.73 148.714 177.73 148.74 177.73C150.561 177.73 159.087 181.072 167.07 181.072C174.904 181.072 182.216 177.854 182.166 165.102C182.151 161.201 187.965 160.748 188.884 158.153C189.852 155.426 186.582 150.421 184.507 148.972C175.878 142.954 151.058 148.487 147.321 139.495C139.559 120.814 134.236 114.485 126.077 111.62C118.2 108.854 103.607 105.896 91.6854 105.896Z" fill="#262626"/>
<path d="M134.019 274.009C133.369 274.009 132.873 273.837 132.501 273.484C124.79 266.18 116.25 264.899 109.388 263.87C103.111 262.928 98.5759 262.248 97.7295 257.336C97.2551 254.587 96.4079 252.033 95.589 249.562C92.0541 238.904 88.3995 227.883 115.148 198.601C124.903 187.924 155.595 168.622 168.985 164.745L170.078 164.426C174.4 163.161 182.445 160.804 188.276 160.804C191.86 160.804 194.105 161.688 194.948 163.43C197.805 169.333 198.156 188.961 195.962 220.19C195.835 221.995 195.946 224.465 196.063 227.081C196.383 234.2 196.781 243.061 192.881 245.451C192.552 245.653 192.165 245.751 191.699 245.751H191.698C190.433 245.751 188.802 245.008 187.225 244.291C185.565 243.535 183.848 242.754 182.407 242.754C181.993 242.754 181.61 242.82 181.271 242.948C177.75 244.277 174.179 248.556 170.398 253.086C166.555 257.689 162.583 262.449 158.893 263.495C158.729 263.542 158.517 263.567 158.262 263.567C157.677 263.567 156.928 263.441 156.202 263.32C155.427 263.191 154.626 263.058 153.947 263.058C153.49 263.058 153.127 263.118 152.837 263.241C151.402 263.842 149.196 265.404 146.641 267.212C142.362 270.24 137.038 274.009 134.019 274.009Z" fill="#E8B6BD"/>
<path d="M188.277 161.148C191.718 161.148 193.858 161.967 194.639 163.58C197.43 169.346 197.778 189.442 195.62 220.166C195.49 221.99 195.603 224.471 195.72 227.097C196.036 234.127 196.429 242.874 192.702 245.158C192.429 245.326 192.1 245.407 191.698 245.407C190.508 245.407 188.912 244.68 187.367 243.978C185.674 243.208 183.923 242.411 182.408 242.411C181.952 242.411 181.528 242.483 181.149 242.626C177.544 243.987 173.945 248.299 170.134 252.866C166.326 257.429 162.386 262.147 158.798 263.165C158.665 263.204 158.485 263.223 158.263 263.223C157.706 263.223 156.97 263.1 156.259 262.981C155.471 262.85 154.655 262.713 153.948 262.713C153.444 262.713 153.037 262.782 152.704 262.923C151.234 263.539 149.014 265.111 146.442 266.931C142.204 269.931 136.929 273.665 134.018 273.665C133.461 273.665 133.043 273.524 132.737 273.235C124.948 265.856 116.349 264.566 109.44 263.53C103.305 262.609 98.8727 261.945 98.0682 257.278C97.5897 254.503 96.7384 251.936 95.9154 249.454C94.0809 243.921 92.3475 238.696 94.2989 231.116C96.5136 222.513 103.416 211.954 115.402 198.834C125.129 188.186 155.731 168.94 169.081 165.075C169.416 164.977 169.782 164.871 170.175 164.756C174.481 163.495 182.495 161.148 188.277 161.148ZM188.277 160.461C181.88 160.461 173.039 163.215 168.891 164.414C155.292 168.352 124.434 187.928 114.895 198.37C81.8857 234.505 94.8579 242.713 97.3916 257.395C99.2275 268.048 117.472 259.722 132.265 273.734C132.717 274.163 133.314 274.353 134.019 274.353C138.922 274.353 149.103 265.179 152.971 263.557C153.237 263.445 153.571 263.401 153.948 263.401C155.237 263.401 157.024 263.91 158.264 263.91C158.536 263.91 158.78 263.885 158.988 263.826C166.319 261.748 174.275 245.957 181.393 243.27C181.708 243.151 182.048 243.098 182.409 243.098C185.133 243.098 189.012 246.095 191.7 246.095C192.201 246.095 192.66 245.992 193.063 245.744C198.627 242.334 195.837 226.868 196.306 220.215C197.327 205.68 199.354 171.74 195.259 163.28C194.251 161.201 191.593 160.461 188.277 160.461Z" fill="#262626"/>
<path d="M252.604 248.774C246.105 248.774 235.56 242.086 232.382 237.886C231.521 236.748 231.301 234.264 231.107 232.074C230.961 230.426 230.823 228.871 230.443 227.828C227.97 221.071 223.004 217.227 218.623 213.835C216.572 212.247 214.634 210.748 213.328 209.172C207.586 202.243 197.424 188.3 193.894 172.776C192.993 168.81 196.512 160.28 199.403 157.919C202.973 155.005 212.36 153.392 217.483 153.392C217.79 153.392 218.083 153.399 218.358 153.41C222.832 153.603 229.123 155.575 235.785 157.664C243.051 159.942 250.564 162.297 255.886 162.296C256.226 162.296 256.557 162.286 256.878 162.267C260.439 162.051 266.792 158.714 269.959 156.663C270.276 156.456 270.619 156.211 270.982 155.951C272.332 154.983 274.013 153.777 275.678 153.777C278.602 153.777 280.921 157.73 282.574 165.526C283.308 168.987 288.336 171.562 293.199 174.052C297.297 176.151 301.534 178.321 302.808 180.863C303.271 181.789 303.347 183.499 303.422 185.151C303.529 187.562 303.642 190.055 304.879 191.117C307.094 193.013 311.603 193.09 315.963 193.165C319.858 193.231 323.886 193.299 325.94 194.688C328.695 196.554 331.534 203.634 331.928 207.266C332.175 209.523 330.366 214.134 329.064 216.538C327.837 218.797 325.264 221.844 322.775 224.791C320.354 227.656 318.068 230.362 316.836 232.491C316.575 232.943 316.282 233.573 315.974 234.239C315.263 235.771 314.377 237.677 313.46 238.307C312.116 239.238 309.486 239.632 306.943 240.012C304.615 240.361 302.416 240.69 301.049 241.417C300.196 241.87 299.159 242.726 298.06 243.632C296.331 245.058 294.371 246.675 292.938 246.842C292.571 246.886 292.17 246.908 291.749 246.908C288.21 246.908 283.386 245.432 278.28 243.87C272.871 242.216 267.278 240.504 262.901 240.504C260.461 240.504 258.618 241.027 257.265 242.103C256.557 242.671 256.414 243.96 256.263 245.325C256.132 246.509 255.984 247.85 255.423 248.158C254.68 248.568 253.732 248.774 252.604 248.774V248.774Z" fill="#E8B6BD"/>
<path d="M217.483 153.736C217.784 153.736 218.073 153.742 218.343 153.753C222.772 153.945 229.044 155.911 235.683 157.992C242.974 160.277 250.511 162.64 255.887 162.64C256.235 162.64 256.576 162.63 256.9 162.61C260.527 162.39 266.951 159.022 270.149 156.951C270.475 156.739 270.819 156.492 271.184 156.23C272.494 155.29 274.126 154.121 275.68 154.121C278.418 154.121 280.626 157.982 282.239 165.597C283.008 169.219 288.11 171.831 293.044 174.358C297.093 176.432 301.28 178.575 302.502 181.017C302.933 181.878 303.007 183.55 303.08 185.167C303.192 187.651 303.307 190.22 304.657 191.378C306.966 193.355 311.538 193.433 315.96 193.509C319.805 193.574 323.78 193.641 325.749 194.972C328.384 196.757 331.21 203.816 331.588 207.304C331.828 209.488 330.044 214.008 328.764 216.374C327.554 218.602 324.992 221.635 322.514 224.569C320.084 227.446 317.788 230.164 316.54 232.319C316.271 232.785 315.976 233.421 315.664 234.094C315.007 235.51 314.107 237.448 313.265 238.025C311.988 238.909 309.399 239.297 306.894 239.672C304.536 240.026 302.309 240.36 300.89 241.113C300.006 241.584 298.955 242.45 297.844 243.367C296.151 244.762 294.233 246.345 292.901 246.501C292.546 246.543 292.159 246.564 291.751 246.564C288.263 246.564 283.464 245.096 278.383 243.541C272.95 241.879 267.332 240.16 262.903 240.16C260.382 240.16 258.469 240.708 257.05 241.836C256.233 242.492 256.082 243.85 255.922 245.288C255.819 246.222 255.663 247.635 255.258 247.857C254.567 248.238 253.673 248.431 252.605 248.431C246.199 248.431 235.796 241.827 232.657 237.68C231.856 236.619 231.64 234.188 231.45 232.043C231.303 230.373 231.163 228.795 230.767 227.709C228.26 220.86 223.034 216.814 218.834 213.564C216.799 211.988 214.876 210.5 213.594 208.953C207.871 202.047 197.745 188.154 194.232 172.7C193.352 168.828 196.794 160.495 199.621 158.186C202.998 155.429 212.3 153.736 217.483 153.736ZM217.483 153.049C212.267 153.049 202.783 154.717 199.185 157.653C196.066 160.2 192.653 168.864 193.559 172.852C196.957 187.796 206.458 201.42 213.063 209.391C217.087 214.246 226.478 217.991 230.12 227.945C231.008 230.377 230.545 236.025 232.108 238.093C235.42 242.471 246.079 249.118 252.604 249.118C253.747 249.118 254.763 248.914 255.59 248.459C256.975 247.699 256.243 243.364 257.48 242.372C258.852 241.28 260.72 240.847 262.902 240.847C271.294 240.847 284.339 247.251 291.75 247.251C292.18 247.251 292.59 247.23 292.98 247.183C295.442 246.895 299.03 242.881 301.212 241.72C304.04 240.218 311.024 240.412 313.656 238.589C315.068 237.622 316.277 234.15 317.136 232.662C319.657 228.304 326.965 221.126 329.368 216.701C330.544 214.528 332.544 209.708 332.272 207.228C331.89 203.705 329.071 196.39 326.135 194.402C321.685 191.394 309.188 194.352 305.105 190.856C303.141 189.171 304.277 183.026 303.117 180.709C300.28 175.043 284.225 171.641 282.913 165.453C280.906 155.988 278.236 153.433 275.68 153.432C273.451 153.432 271.311 155.375 269.774 156.373C266.826 158.283 260.382 161.71 256.858 161.923C256.544 161.943 256.22 161.952 255.887 161.952C245.853 161.952 227.89 153.478 218.374 153.066C218.094 153.055 217.795 153.049 217.483 153.049Z" fill="#262626"/>
<path d="M183.446 150.781C173.621 150.78 153.592 141.348 149.23 136.511C148.194 135.362 147.617 133.184 146.949 130.661C146.081 127.384 145.001 123.305 142.435 119.907C138.779 115.068 132.003 111.484 127.519 109.111C126.396 108.517 125.426 108.003 124.637 107.545C123.104 106.654 119.352 106.179 114.159 105.524C104.171 104.263 89.0762 102.356 80.244 95.5747C73.6081 90.4824 72.6468 78.6689 75.1118 70.1386C76.3701 65.7861 84.3923 65.1969 92.1497 64.6269C97.385 64.2425 102.331 63.8795 105.108 62.364C110.031 59.681 114.603 50.6124 118.637 42.6108C121.719 36.4988 124.63 30.7265 126.988 29.3362C127.535 29.0137 128.272 28.8569 129.243 28.8569C131.067 28.8569 133.363 29.418 135.583 29.9612C137.685 30.4755 139.67 30.961 141.182 30.961C141.366 30.961 141.542 30.9534 141.711 30.9383C148.547 30.3263 151.651 26.8478 154.144 24.0534C155.808 22.19 157.121 20.7179 159.052 20.6973C159.902 20.6973 160.691 22.3434 161.387 23.7956C162.099 25.2828 162.772 26.6876 163.71 27.1235C163.935 27.228 164.19 27.281 164.469 27.281C165.506 27.281 166.738 26.5728 168.042 25.8226C169.208 25.1522 170.413 24.4598 171.263 24.4598C171.41 24.4598 171.544 24.4811 171.66 24.5244C174.292 25.4932 177.734 31.1741 178.402 37.3274C178.749 40.5247 178.555 46.3857 173.358 49.7095C167.948 53.1716 166.901 69.5067 166.709 74.4313C166.648 75.9893 166.564 77.6299 166.478 79.3049C166.12 86.2991 165.748 93.5312 166.753 98.2625C167.228 100.49 168.71 103.435 170.279 106.553C171.938 109.848 173.653 113.255 174.017 115.635C174.162 116.579 173.769 118.069 173.389 119.51C172.979 121.067 172.592 122.536 172.744 123.609C173.212 126.912 176.893 131.032 180.791 135.394C185.552 140.723 190.476 146.233 188.097 149.266C187.308 150.272 185.744 150.782 183.45 150.782C183.448 150.781 183.446 150.781 183.446 150.781Z" fill="#E8B6BD"/>
<path d="M159.057 20.3541V21.0417C159.684 21.0417 160.487 22.7194 161.075 23.9447C161.814 25.4891 162.513 26.9481 163.563 27.4356C163.835 27.5615 164.138 27.6247 164.466 27.6247C165.596 27.6247 166.866 26.8945 168.211 26.121C169.338 25.4732 170.502 24.8035 171.26 24.8035C171.367 24.8035 171.461 24.818 171.539 24.8469C174.076 25.7806 177.403 31.3329 178.057 37.3645C178.396 40.4834 178.211 46.1959 173.17 49.42C167.62 52.9715 166.557 69.451 166.363 74.4168C166.302 75.9728 166.219 77.5825 166.132 79.287C165.773 86.3032 165.401 93.5587 166.415 98.334C166.899 100.605 168.391 103.569 169.971 106.707C171.617 109.978 173.32 113.361 173.675 115.686C173.809 116.559 173.426 118.015 173.054 119.422C172.636 121.013 172.239 122.515 172.401 123.656C172.884 127.062 176.599 131.22 180.532 135.622C185.199 140.845 190.026 146.246 187.825 149.052C187.103 149.971 185.631 150.436 183.446 150.436C173.692 150.436 153.813 141.08 149.486 136.28C148.505 135.193 147.938 133.052 147.281 130.572C146.405 127.266 145.316 123.151 142.709 119.7C139.008 114.798 132.19 111.193 127.68 108.806C126.559 108.213 125.592 107.702 124.809 107.247C123.214 106.32 119.434 105.843 114.201 105.182C104.249 103.925 89.2101 102.026 80.4516 95.3003C73.9366 90.3009 73.007 78.6537 75.4397 70.2328C76.6313 66.11 84.8879 65.5035 92.173 64.9686C97.4468 64.5815 102.428 64.2157 105.27 62.6651C110.286 59.9306 114.885 50.811 118.942 42.7648C122.001 36.6996 124.889 30.9706 127.16 29.6318C127.645 29.3458 128.345 29.2007 129.24 29.2007C131.023 29.2007 133.298 29.7569 135.499 30.2953C137.621 30.8145 139.626 31.3047 141.179 31.3047C141.375 31.3047 141.564 31.2965 141.738 31.2807C148.71 30.6563 151.997 26.9722 154.397 24.2823C156.004 22.4815 157.274 21.0596 159.053 21.041L159.057 20.3541ZM159.057 20.3541C159.054 20.3541 159.05 20.3541 159.047 20.3541C153.963 20.4084 153.031 29.5802 141.678 30.5965C141.52 30.6109 141.353 30.6178 141.18 30.6178C138.117 30.6178 132.829 28.5138 129.241 28.5138C128.286 28.5138 127.451 28.663 126.811 29.0405C121.267 32.3086 113.578 57.3542 104.942 62.0621C98.1096 65.7875 76.9765 62.4437 74.7796 70.0423C72.2905 78.6565 73.2703 90.6563 80.0328 95.8463C93.2985 106.032 119.979 105.235 124.463 107.841C128.527 110.202 137.672 114.173 142.16 120.113C146.648 126.058 146.478 133.971 148.974 136.74C153.406 141.654 173.498 151.123 183.445 151.123C185.718 151.123 187.458 150.63 188.364 149.476C192.865 143.737 174.131 130.966 173.081 123.558C172.795 121.538 174.663 117.596 174.354 115.581C173.646 110.944 168.066 102.785 167.088 98.1896C165.846 92.3492 166.738 82.3406 167.05 74.4429C167.224 69.9818 168.282 53.3627 173.54 49.9976C183.842 43.4091 176.881 26.0797 171.776 24.1998C171.617 24.1414 171.443 24.1139 171.26 24.1139C169.376 24.1139 166.356 26.9351 164.466 26.9351C164.244 26.9351 164.038 26.8966 163.851 26.8099C162.051 25.9752 161.013 20.3541 159.057 20.3541Z" fill="#262626"/>
<path d="M194.976 146.681C190.415 146.681 182.714 139.246 179.864 135.261C171.807 123.996 166.921 115.035 166.103 110.029C165.684 107.456 166.58 103.186 167.373 99.417C167.828 97.2483 168.259 95.2 168.395 93.6818C168.73 89.9392 168.153 84.1868 167.596 78.6235C167.08 73.4762 166.546 68.1535 166.779 64.6867C167.009 61.248 167.759 56.637 169.115 54.96C169.494 54.4931 170.45 54.0991 171.375 53.7168C172.278 53.3449 173.13 52.9935 173.611 52.5266C178.052 48.2168 180.989 38.8745 183.829 29.8395C186.359 21.7919 188.749 14.1913 192.061 10.0664C195.324 6.00066 204.901 0.345215 209.861 0.345215C211.837 0.348653 215.456 2.18659 217.617 3.28468L218.402 3.68142C219.355 4.15654 220.58 4.85239 221.876 5.58743C225.511 7.65089 230.035 10.2184 232.978 10.5243C233.066 10.5333 233.156 10.5381 233.249 10.5381C234.25 10.5381 235.507 10.032 236.837 9.4957C238.124 8.97725 239.455 8.44093 240.44 8.44093C240.699 8.44093 240.923 8.47875 241.11 8.5537C243.632 9.56102 245.239 13.9898 246.794 18.2728C248.017 21.6434 249.173 24.8269 250.774 26.4366C251.752 27.4192 253.691 27.7307 255.744 28.0607C257.535 28.3481 259.387 28.6458 260.217 29.4098C261.765 30.8344 263.023 35.7294 262.289 37.4683C261.648 38.9817 259.341 40.3941 257.109 41.7603C255.163 42.9505 253.326 44.0754 252.46 45.3083C251.325 46.9214 250.677 51.0194 251.022 52.9007C251.243 54.1122 252.109 55.6476 253.026 57.2724C254.045 59.0801 255.099 60.9496 255.153 62.243C255.253 64.6791 252.751 69.3513 251.052 71.3715C250.141 72.4531 248.519 73.7258 246.803 75.0735C244.557 76.8358 242.235 78.6586 241.206 80.2999C240.049 82.1419 239.451 85.5146 238.874 88.7772C238.524 90.752 238.194 92.6174 237.771 93.8674C236.539 97.5151 232.498 104.278 230.176 107.558C229.672 108.27 229.1 109.091 228.476 109.984C224.693 115.407 218.978 123.602 214.942 126.958C214.034 127.713 212.417 128.425 210.706 129.178C208.66 130.079 206.545 131.009 205.492 132.116C204.295 133.372 203.18 135.688 201.999 138.141C200.176 141.929 198.108 146.224 195.571 146.634C195.382 146.666 195.182 146.681 194.976 146.681Z" fill="#E8B6BD"/>
<path d="M209.861 0.00137443L209.879 0.688967C211.754 0.692405 215.326 2.50766 217.461 3.5913C217.747 3.73707 218.012 3.87115 218.249 3.98941C219.193 4.4611 220.413 5.1535 221.706 5.88717C225.369 7.96645 229.927 10.5539 232.942 10.8667C233.041 10.877 233.143 10.8818 233.248 10.8818C234.316 10.8818 235.602 10.3634 236.964 9.8147C238.22 9.30863 239.52 8.78537 240.439 8.78468C240.653 8.78468 240.835 8.81425 240.981 8.8727C243.36 9.82295 244.941 14.1782 246.469 18.3897C247.706 21.7974 248.873 25.0153 250.528 26.6786C251.584 27.7402 253.577 28.0607 255.687 28.3996C257.427 28.6795 259.226 28.9683 259.981 29.6627C261.424 30.9905 262.651 35.7225 261.97 37.3335C261.372 38.7458 259.112 40.1286 256.926 41.4667C254.95 42.6761 253.083 43.8182 252.176 45.1102C250.977 46.8147 250.318 50.9788 250.682 52.9618C250.913 54.2304 251.792 55.7899 252.724 57.4415C253.724 59.2141 254.757 61.0465 254.807 62.2567C254.9 64.5313 252.47 69.1478 250.786 71.1507C249.898 72.2055 248.289 73.4679 246.588 74.8039C244.319 76.5848 241.974 78.4268 240.913 80.1176C239.72 82.0167 239.116 85.4238 238.533 88.7187C238.185 90.6804 237.858 92.5335 237.444 93.7588C236.223 97.3762 232.204 104.097 229.894 107.361C229.389 108.074 228.817 108.895 228.193 109.789C224.421 115.197 218.721 123.369 214.721 126.695C213.849 127.42 212.181 128.154 210.566 128.864C208.49 129.779 206.342 130.724 205.242 131.881C204.008 133.176 202.881 135.516 201.689 137.994C199.901 141.706 197.875 145.915 195.515 146.296C195.344 146.323 195.163 146.338 194.974 146.338C190.53 146.338 182.956 138.997 180.143 135.062C172.117 123.839 167.251 114.929 166.442 109.974C166.031 107.466 166.923 103.228 167.708 99.4885C168.166 97.3102 168.599 95.2515 168.737 93.7127C169.075 89.9378 168.496 84.1689 167.937 78.5898C167.422 73.4569 166.891 68.1487 167.121 64.71C167.303 61.9817 167.984 56.9031 169.381 55.1766C169.705 54.7771 170.661 54.3831 171.505 54.0345C172.438 53.6494 173.321 53.2857 173.849 52.7734C178.353 48.4038 181.304 39.0181 184.156 29.9426C186.565 22.2794 189.056 14.3562 192.328 10.2816C195.548 6.27016 204.981 0.688967 209.859 0.688967V0.00137443M209.861 0.00137443C204.664 0.00137443 195.028 5.82048 191.793 9.85115C184.61 18.7974 181.583 44.3126 173.371 52.2797C172.445 53.1791 169.663 53.7381 168.848 54.7434C167.266 56.6996 166.607 62.1027 166.436 64.664C165.953 71.8789 168.697 86.4545 168.054 93.6508C167.681 97.7894 165.089 105.953 165.765 110.084C166.925 117.186 175.385 129.589 179.585 135.461C182.349 139.325 190.142 147.024 194.976 147.024C195.2 147.024 195.417 147.008 195.627 146.974C200.001 146.267 202.688 135.56 205.741 132.354C207.597 130.404 213.098 128.939 215.162 127.223C219.9 123.282 226.875 112.815 230.456 107.757C232.725 104.553 236.829 97.7317 238.097 93.9774C239.206 90.69 239.664 83.3981 241.496 80.4827C243.267 77.6602 249.174 74.1335 251.313 71.5928C252.949 69.6469 255.601 64.8304 255.495 62.2285C255.389 59.683 251.818 55.3526 251.358 52.8381C251.018 50.9822 251.681 47.0093 252.739 45.5056C254.565 42.9051 261.356 40.5487 262.604 37.6017C263.435 35.6345 262.05 30.6316 260.447 29.1567C258.605 27.4604 252.784 27.9713 251.016 26.1932C247.42 22.5785 245.915 10.1028 241.236 8.23323C240.998 8.13835 240.73 8.09641 240.439 8.09641C238.374 8.09641 235.154 10.1929 233.248 10.1929C233.167 10.1929 233.089 10.1888 233.013 10.1812C229.086 9.77345 222.133 5.15763 218.555 3.37264C216.467 2.33025 212.179 0.00412556 209.88 0C209.874 0.00137519 209.868 0.00137443 209.861 0.00137443Z" fill="#262626"/>
<path d="M259.79 158.349C257.574 158.349 254.649 157.488 251.82 156.655C249.07 155.845 246.474 155.08 244.533 155.08C244.404 155.08 244.277 155.084 244.155 155.091C243.352 155.137 242.352 155.736 241.384 156.313C240.698 156.723 239.989 157.147 239.493 157.272C238.203 157.596 236.5 157.761 234.432 157.761H234.431C229.805 157.761 224.174 156.977 219.206 156.286C216.848 155.957 214.62 155.648 212.895 155.485C212.334 155.433 211.641 155.39 210.867 155.344C207.152 155.117 200.933 154.739 199.682 152.3C197.985 148.991 202.722 140.797 205.595 138.481C206.965 137.376 209.614 136.484 212.175 135.621C214.982 134.675 217.884 133.698 219.383 132.368C223.836 128.42 227.121 119.603 230.297 111.077C232.67 104.707 234.911 98.6909 237.468 95.1457C241.621 89.3891 254.07 81.0548 261.175 77.2353C262.186 76.6921 263.695 76.0829 265.293 75.4379C267.904 74.3831 270.606 73.2919 272.088 72.1512C275.393 69.6078 282.781 62.6342 284.938 58.8704C285.642 57.6437 286.248 56.045 286.888 54.3515C287.934 51.5929 289.014 48.7401 290.58 47.3738C292.234 45.9292 295.843 44.959 299.56 44.959C302.525 44.959 305.034 45.5648 306.445 46.6209C307.611 47.4962 308.193 49.1622 308.705 50.6323C308.949 51.333 309.18 51.9944 309.453 52.4909C311.296 55.8353 316.413 61.2625 319.31 63.3603C320.104 63.9345 321.372 64.4522 322.713 65.0009C324.619 65.7793 326.778 66.6622 327.537 67.7492C328.112 68.5771 328.075 70.481 328.046 72.0116C328.03 72.8574 328.014 73.6563 328.093 74.2401C328.316 75.8862 329.278 78.0844 330.295 80.4119C331.399 82.9347 332.54 85.5434 332.629 87.3037C332.733 89.3252 331.303 92.2468 329.921 95.0721C328.202 98.5823 326.426 102.213 327.166 104.756C327.455 105.752 328.834 106.424 330.167 107.073C331.113 107.533 332.091 108.008 332.459 108.512C334.527 111.349 335.336 119.204 333.854 122.067C331.942 125.763 324.558 130.832 320.515 132.563C318.946 133.235 316.504 133.752 313.917 134.299C310.551 135.012 307.069 135.749 305.101 136.925C303.226 138.045 301.471 140.73 299.613 143.574C297.38 146.993 295.071 150.527 292.609 151.107C292.459 151.142 292.298 151.16 292.129 151.16C290.512 151.16 288.297 149.573 286.154 148.039C283.931 146.448 281.831 144.944 280.121 144.898L279.998 144.897C276.645 144.897 272.912 148.521 269.303 152.024C266.468 154.776 263.791 157.374 261.479 158.122C261.012 158.271 260.444 158.349 259.79 158.349Z" fill="#E8B6BD"/>
<path d="M299.56 45.3021C302.452 45.3021 304.887 45.8824 306.238 46.8946C307.321 47.7073 307.884 49.3211 308.381 50.7451C308.63 51.4595 308.866 52.1347 309.152 52.6566C311.015 56.0368 316.184 61.5203 319.109 63.6388C319.936 64.237 321.222 64.7623 322.584 65.3186C324.444 66.0791 326.554 66.9406 327.254 67.9445C327.766 68.6809 327.73 70.5237 327.702 72.0041C327.686 72.8636 327.669 73.6749 327.752 74.2855C327.982 75.9783 328.953 78.1979 329.98 80.5481C331.071 83.0427 332.2 85.6218 332.285 87.3202C332.385 89.2523 330.975 92.1333 329.611 94.9194C327.864 98.4887 326.057 102.18 326.835 104.85C327.166 105.994 328.615 106.698 330.016 107.38C330.882 107.802 331.864 108.279 332.18 108.712C334.151 111.416 334.956 119.185 333.548 121.907C331.67 125.537 324.377 130.533 320.379 132.245C318.841 132.903 316.414 133.416 313.845 133.961C310.45 134.679 306.94 135.423 304.924 136.628C302.98 137.789 301.204 140.507 299.324 143.384C297.128 146.746 294.856 150.222 292.528 150.77C292.405 150.799 292.269 150.814 292.127 150.814C290.621 150.814 288.451 149.26 286.353 147.758C284.085 146.135 281.944 144.601 280.128 144.553C280.084 144.552 280.04 144.551 279.996 144.551C276.504 144.551 272.72 148.224 269.062 151.776C266.381 154.378 263.608 157.07 261.371 157.793C260.938 157.933 260.406 158.005 259.789 158.005C257.623 158.005 254.721 157.151 251.916 156.325C249.142 155.508 246.521 154.736 244.532 154.736C244.396 154.736 244.263 154.74 244.134 154.748C243.248 154.798 242.21 155.419 241.207 156.018C240.542 156.415 239.855 156.825 239.408 156.938C238.145 157.255 236.471 157.416 234.43 157.416C229.828 157.416 224.209 156.634 219.252 155.944C216.89 155.615 214.659 155.305 212.926 155.142C212.357 155.089 211.676 155.047 210.887 155C207.245 154.779 201.149 154.408 199.987 152.143C198.356 148.963 203.005 141.009 205.811 138.748C207.133 137.682 209.751 136.8 212.284 135.947C215.124 134.99 218.059 134.002 219.61 132.626C224.128 128.62 227.428 119.762 230.619 111.197C232.984 104.85 235.218 98.8539 237.747 95.3458C241.867 89.6333 254.26 81.3416 261.338 77.5371C262.331 77.0028 263.832 76.3971 265.421 75.7556C268.054 74.6919 270.777 73.5924 272.298 72.4228C275.621 69.865 283.058 62.8412 285.236 59.0409C285.954 57.7901 286.564 56.1784 287.21 54.4725C288.24 51.7531 289.304 48.9415 290.806 47.6317C292.403 46.2379 295.921 45.3021 299.56 45.3021ZM299.56 44.6145C295.965 44.6145 292.192 45.5097 290.355 47.1139C287.746 49.3885 286.483 55.4853 284.64 58.6985C282.546 62.3523 275.206 69.3169 271.878 71.8775C269.511 73.699 263.65 75.5142 261.012 76.9314C254.426 80.4718 241.564 88.8783 237.19 94.9435C231.168 103.293 226.844 125.292 219.155 132.111C216.347 134.602 208.304 135.856 205.379 138.212C202.388 140.624 197.564 148.923 199.376 152.457C200.975 155.575 209.42 155.505 212.863 155.827C218.063 156.315 227.487 158.104 234.431 158.104C236.395 158.104 238.16 157.961 239.576 157.605C240.815 157.292 242.892 155.507 244.174 155.434C244.29 155.427 244.411 155.423 244.533 155.423C248.431 155.423 255.392 158.692 259.789 158.692C260.452 158.692 261.057 158.618 261.583 158.448C266.99 156.7 274.24 145.24 279.996 145.24C280.035 145.24 280.071 145.24 280.11 145.241C283.381 145.328 288.736 151.502 292.128 151.502C292.321 151.502 292.507 151.482 292.687 151.44C297.344 150.343 301.195 139.655 305.277 137.218C308.683 135.182 316.987 134.444 320.649 132.877C324.617 131.178 332.173 126.06 334.158 122.223C335.735 119.174 334.822 111.169 332.735 108.307C331.792 107.017 327.937 106.186 327.495 104.659C326.196 100.199 333.208 91.8892 332.971 87.2844C332.799 83.8561 328.896 77.6045 328.432 74.192C328.209 72.5363 328.782 68.9367 327.817 67.5505C326.462 65.6088 321.426 64.4646 319.51 63.0805C316.575 60.9551 311.502 55.4977 309.753 52.3238C308.941 50.8468 308.485 47.7217 306.65 46.3438C305.071 45.1618 302.37 44.6145 299.56 44.6145Z" fill="#262626"/>
<path d="M108.031 334.718C108.031 341.23 106.768 347.475 104.244 353.454C101.852 359.301 98.3305 364.616 93.6798 369.4C89.029 374.051 83.7139 377.638 77.7343 380.163C71.7547 382.555 65.5094 383.751 58.9983 383.751C52.4873 383.751 46.2419 382.555 40.2624 380.163C34.4157 377.638 29.1005 374.051 24.3169 369.4C19.6661 364.616 16.0784 359.301 13.5537 353.454C11.1618 347.475 9.96593 341.23 9.96593 334.718C9.96593 328.207 11.1618 321.962 13.5537 315.982C16.0784 310.003 19.6661 304.688 24.3169 300.037C29.1005 295.386 34.4157 291.865 40.2624 289.473C46.2419 286.948 52.4873 285.686 58.9983 285.686C65.5094 285.686 71.7547 286.948 77.7343 289.473C83.7139 291.865 89.029 295.386 93.6798 300.037C98.3305 304.688 101.852 310.003 104.244 315.982C106.768 321.962 108.031 328.207 108.031 334.718ZM84.5111 334.718C84.5111 326.746 84.1125 319.77 83.3152 313.79C82.5179 307.81 80.259 302.362 76.5384 297.446C72.8178 292.396 66.9711 289.872 58.9983 289.872C51.0256 289.872 45.1789 292.396 41.4583 297.446C37.7377 302.362 35.4787 307.81 34.6815 313.79C33.8842 319.77 33.4855 326.746 33.4855 334.718C33.4855 342.691 33.8842 349.667 34.6815 355.647C35.4787 361.626 37.7377 367.141 41.4583 372.19C45.1789 377.107 51.0256 379.565 58.9983 379.565C66.9711 379.565 72.8178 377.107 76.5384 372.19C80.259 367.141 82.5179 361.626 83.3152 355.647C84.1125 349.667 84.5111 342.691 84.5111 334.718ZM163.799 383.751C157.288 383.751 151.043 382.555 145.064 380.163C139.084 377.638 133.769 374.051 129.118 369.4L132.108 366.41C136.227 370.662 141.011 373.918 146.459 376.177C152.04 378.436 157.82 379.565 163.799 379.565C168.982 379.565 173.367 378.834 176.954 377.373C180.675 375.778 183.466 373.918 185.326 371.792C187.186 369.533 188.116 367.34 188.116 365.214C188.116 362.424 187.186 360.032 185.326 358.039C183.466 356.046 180.874 354.252 177.552 352.657C174.23 350.93 168.716 348.405 161.009 345.083L156.026 342.891C149.781 340.366 144.731 337.974 140.878 335.715C137.024 333.456 133.769 330.466 131.111 326.746C128.454 322.892 127.125 318.042 127.125 312.195C127.125 306.349 129.052 301.366 132.905 297.247C136.891 293.127 142.074 290.071 148.452 288.078C153.767 286.483 159.016 285.686 164.198 285.686C170.709 285.686 176.888 286.948 182.735 289.473C188.714 291.998 193.963 295.519 198.481 300.037L195.491 303.027C191.239 298.775 186.389 295.519 180.941 293.26C175.626 291.001 169.978 289.872 163.999 289.872C157.621 289.872 152.305 291.134 148.053 293.659C143.801 296.184 141.21 298.974 140.28 302.03C140.014 303.093 139.881 303.89 139.881 304.422C139.881 307.744 141.808 310.601 145.661 312.993C149.515 315.385 155.362 318.241 163.202 321.563C164.397 321.962 166.191 322.693 168.583 323.756L172.37 325.35C179.811 328.54 185.525 331.264 189.512 333.523C193.631 335.649 197.086 338.373 199.876 341.695C202.667 344.884 204.062 348.737 204.062 353.255C204.062 359.899 201.404 366.011 196.089 371.592C193.697 373.984 189.844 376.642 184.529 379.565C179.346 382.356 172.437 383.751 163.799 383.751ZM275.929 378.768C278.321 378.768 280.912 378.369 283.702 377.572L284.898 381.558C283.968 382.09 282.108 382.555 279.317 382.954C276.66 383.485 274.135 383.751 271.743 383.751C267.889 383.751 263.239 383.02 257.791 381.558C252.476 379.964 248.223 377.439 245.034 373.984C242.244 371.061 240.184 367.407 238.855 363.022C237.659 358.637 237.062 353.322 237.062 347.076V293.061H216.93V288.875H237.062V251.403H259.585V288.875H278.32V293.061H259.585V356.245C259.585 362.756 260.847 368.138 263.372 372.39C266.029 376.642 270.215 378.768 275.929 378.768ZM395.914 286.882V382.555H373.391V375.977C365.285 381.16 356.449 383.751 346.881 383.751C340.37 383.751 334.125 382.555 328.146 380.163C322.299 377.638 316.984 374.051 312.2 369.4C307.549 364.616 303.962 359.301 301.437 353.454C299.045 347.475 297.849 341.23 297.849 334.718C297.849 328.207 299.045 321.962 301.437 315.982C303.962 310.003 307.549 304.688 312.2 300.037C316.984 295.386 322.299 291.865 328.146 289.473C334.125 286.948 340.37 285.686 346.881 285.686C356.449 285.686 365.285 288.277 373.391 293.459V286.882H395.914ZM373.391 370.994V298.442C365.684 292.729 356.847 289.872 346.881 289.872C338.909 289.872 333.062 292.396 329.341 297.446C325.621 302.362 323.362 307.81 322.565 313.79C321.767 319.77 321.369 326.746 321.369 334.718C321.369 342.691 321.767 349.667 322.565 355.647C323.362 361.626 325.621 367.141 329.341 372.19C333.062 377.107 338.909 379.565 346.881 379.565C356.847 379.565 365.684 376.708 373.391 370.994Z" fill="#E8B6BD"/>
<path d="M221.906 49.5706C224.671 52.5444 236.734 46.768 236.821 42.6596C236.906 38.6076 228.741 31.7159 224.693 31.9043C219.534 32.145 210.596 39.2904 207.589 43.4895C189.293 69.0405 190.858 140.928 192.811 150.682C193.424 153.744 196.113 165.925 195.738 162.825C188.76 105.092 209.173 60.6924 210.301 58.1724C211.477 55.5417 216.869 44.1524 221.906 49.5706Z" fill="#E8B6BD" stroke="#262626" stroke-width="0.702521" stroke-miterlimit="10"/>
<path d="M142.415 106.859C142.051 108.943 135.139 109.842 133.935 108.072C132.747 106.326 134.36 100.996 136.183 99.9292C138.505 98.5712 144.44 99.1557 146.947 100.138C162.194 106.11 181.913 137.97 183.829 142.785C184.429 144.297 186.712 150.384 185.996 148.924C172.659 121.712 151.137 108.105 149.929 107.323C148.669 106.508 143.077 103.063 142.415 106.859Z" fill="#E8B6BD" stroke="#262626" stroke-width="0.702521" stroke-miterlimit="10"/>
</svg>
