<?xml version="1.0" encoding="UTF-8"?>
<svg id="Calque_1" data-name="Calque 1" xmlns="http://www.w3.org/2000/svg" viewBox="0 0 363.71 372.96">
  <defs>
    <style>
      .cls-1 {
        fill: #fff;
      }
    </style>
  </defs>
  <path class="cls-1" d="M166.92,233c-.23-.33-.83-1.04-1.56-1.43-.75-.4-1.39-.4-1.68.14-.33.62.16,1.26.85,1.63l.79.42-.8,1.49-.74-.4c-.53-.28-1.28-.47-1.57.05-.21.38.01.83.68,1.19.63.34,1.46.44,1.85.43l-.41,1.73c-.64.03-1.75-.21-2.81-.78-1.68-.9-2.22-2.27-1.63-3.36.43-.8,1.22-1.19,2.32-1.01v-.02c-.8-.64-1.17-1.71-.64-2.68.75-1.4,2.54-1.65,4.51-.59,1.04.56,1.77,1.27,2.09,1.82l-1.24,1.36Z"/>
  <path class="cls-1" d="M153.21,229.57c.17.15.34.28.59.46,1.44,1.04,2.45.92,3.16.43l-.03-.03c-.58.02-1.11-.19-1.69-.65-1.1-.88-1.5-2.45-.35-3.89,1.1-1.38,3.06-1.58,4.55-.4,1.96,1.56,1.67,3.67.44,5.21-.99,1.25-2.3,1.94-3.6,2.02-1.23.07-2.42-.35-3.58-1.23-.31-.22-.48-.38-.62-.51l1.13-1.42ZM156.85,227.3c-.38.48-.56,1.18.04,1.66.37.29.83.3,1.16.11.11-.05.22-.16.38-.36.39-.57.57-1.35-.04-1.84-.46-.37-1.09-.14-1.54.42Z"/>
  <path class="cls-1" d="M154.87,221.4l-10.04,1.67-.76-.96,10.04-1.67.76.97ZM147.22,216.19c1.41-1.11,2.93-.75,3.74.28.87,1.1.73,2.6-.51,3.57-1.14.9-2.71.94-3.71-.32-1-1.26-.62-2.66.48-3.53ZM148.42,223.49c1.41-1.11,2.92-.74,3.73.28.87,1.1.73,2.59-.5,3.56-1.14.9-2.7.94-3.7-.33-1-1.26-.63-2.65.47-3.52ZM149.33,218.69c.64-.5.92-1.06.6-1.47-.3-.37-.83-.28-1.54.29-.63.5-.96,1.02-.63,1.44.34.44.96.22,1.57-.26ZM150.53,225.99c.64-.5.91-1.05.59-1.46-.3-.38-.82-.28-1.53.28-.63.5-.96,1.02-.62,1.44.34.44.95.23,1.56-.25Z"/>
  <path class="cls-1" d="M142.8,207.53h0s.66.75.66.75l-.84.48-.94-1.07-.31-.99,4.35-1.38.37,1.16-3.29,1.04Z"/>
  <path class="cls-1" d="M144.96,202.3l-1,.22.42,1.93-.8.17-2.99-.98-.33-1.55,2.54-.55-.11-.49.92-.2.11.49,1-.22.25,1.16ZM143.05,202.72l-.77.17c-.28.06-.58.11-.9.16v.03c.34.08.65.14,1,.24l.82.22h.01s-.18-.81-.18-.81Z"/>
  <path class="cls-1" d="M144.47,199.18l-4.93-2.17-.06-.65,4.93,2.17.06.65ZM141.01,198.24c.94-.08,1.51.52,1.57,1.21.07.74-.43,1.36-1.25,1.43-.77.07-1.47-.37-1.55-1.22s.49-1.36,1.23-1.42ZM141.22,199.96c.43-.04.71-.2.68-.48-.02-.25-.28-.36-.76-.32-.42.04-.72.17-.69.46.03.29.35.38.77.34ZM142.59,194.66c.94-.08,1.52.52,1.58,1.21.07.74-.43,1.36-1.26,1.44-.77.07-1.48-.37-1.55-1.22s.5-1.36,1.23-1.42ZM142.8,196.38c.43-.04.72-.2.69-.48-.02-.25-.29-.36-.76-.32-.42.04-.72.17-.7.46.03.29.36.38.77.34Z"/>
  <path class="cls-1" d="M143.49,181.26c.32-.29.98-1.01,1.29-1.82.32-.84.23-1.51-.37-1.74-.69-.26-1.3.34-1.6,1.11l-.34.88-1.67-.64.32-.83c.22-.59.33-1.41-.26-1.64-.43-.17-.88.13-1.16.87-.27.71-.27,1.59-.21,2l-1.87-.2c-.12-.67-.01-1.87.44-3.06.72-1.88,2.09-2.63,3.31-2.16.9.35,1.41,1.12,1.37,2.3h.03c.56-.93,1.64-1.45,2.73-1.03,1.56.6,2.07,2.45,1.22,4.65-.45,1.17-1.1,2.03-1.63,2.43l-1.59-1.12Z"/>
  <path class="cls-1" d="M146.25,174.26c-.92-.58-1.22-1.47-1.07-2.49h-.02c-.82.45-1.67.43-2.35,0-1.35-.84-1.46-2.63-.44-4.26,1.22-1.96,2.78-2.02,3.71-1.45.67.42,1.08,1.19,1.01,2.1h.02c.67-.49,1.72-.81,2.75-.17,1.43.89,1.65,2.68.45,4.62-1.32,2.13-3.03,2.27-4.04,1.64ZM144,169.71c.42.26.98.03,1.47-.38.12-.35-.04-.88-.42-1.12-.42-.26-.98-.28-1.32.27-.32.51-.13.97.28,1.23ZM148.62,170.27c-.56-.35-1.22-.14-1.72.34-.16.54.02,1.04.5,1.33.47.29,1.15.22,1.49-.33.31-.5.18-1.06-.27-1.34Z"/>
  <path class="cls-1" d="M151.29,160.57c1.32,1.36,1.09,3,.1,3.96-1.07,1.04-2.65,1.05-3.81-.15-1.07-1.11-1.27-2.75-.05-3.93,1.22-1.18,2.73-.94,3.76.12ZM148.89,163.05c.6.63,1.2.85,1.6.47.36-.35.21-.89-.46-1.58-.59-.61-1.17-.9-1.58-.5-.42.41-.14,1.02.43,1.62ZM154.19,167.14l-2.83-10.39.93-.9,2.83,10.39-.94.91ZM158.85,158.54c1.32,1.36,1.1,3,.11,3.97-1.07,1.04-2.66,1.04-3.81-.16-1.07-1.11-1.28-2.76-.06-3.94s2.74-.93,3.77.13ZM156.45,161.02c.6.62,1.21.86,1.61.47.36-.35.2-.9-.46-1.59-.59-.61-1.18-.91-1.59-.51-.42.41-.13,1.03.44,1.63Z"/>
  <path class="cls-1" d="M167.3,154.15c.47.06,1.56.1,2.47-.21.95-.33,1.45-.89,1.21-1.57-.27-.78-1.22-.86-2.09-.56l-.99.35-.66-1.88.94-.33c.67-.24,1.43-.74,1.2-1.4-.17-.49-.74-.65-1.57-.36-.8.28-1.54.92-1.85,1.26l-1.17-1.73c.48-.59,1.58-1.36,2.91-1.82,2.11-.74,3.73-.12,4.21,1.26.35,1.01.06,2-.97,2.81v.03c1.21-.2,2.43.34,2.86,1.56.61,1.76-.59,3.51-3.07,4.38-1.31.46-2.51.53-3.23.37l-.19-2.16Z"/>
  <path class="cls-1" d="M176.25,151.98c.31,0,.53-.04,1-.11.69-.1,1.39-.35,1.86-.71.61-.46.95-1.07,1.05-1.67l-.04-.02c-.36.42-.92.7-1.8.81-1.66.21-3.34-.7-3.6-2.75-.25-2,1.2-3.85,3.48-4.14,2.82-.36,4.28,1.61,4.56,3.86.26,2.05-.18,3.64-1.19,4.82-.92,1.05-2.29,1.7-4.06,1.96-.35.06-.75.08-1,.09l-.27-2.14ZM177.47,147.01c.09.7.53,1.34,1.37,1.23.54-.07.83-.34.96-.61.06-.16.06-.33.02-.64-.09-.79-.51-1.69-1.43-1.57-.64.08-1.05.72-.93,1.6Z"/>
  <path class="cls-1" d="M190.8,146.38c-.31,2.08-1.9,2.99-3.42,2.77-1.63-.24-2.72-1.63-2.45-3.46.25-1.69,1.56-2.98,3.43-2.71,1.87.27,2.68,1.77,2.44,3.39ZM186.98,145.94c-.14.95.07,1.64.68,1.73.56.08.93-.42,1.08-1.47.14-.93,0-1.64-.63-1.73-.64-.09-1,.57-1.13,1.48ZM186.98,153.37l7.24-9.53,1.43.21-7.24,9.53-1.43-.21ZM197.71,151.66c-.31,2.08-1.9,3-3.42,2.78-1.64-.24-2.71-1.64-2.45-3.47.25-1.69,1.56-2.99,3.43-2.72,1.87.28,2.67,1.78,2.43,3.41ZM193.89,151.22c-.15.95.06,1.65.67,1.74.55.08.93-.43,1.08-1.48.14-.93,0-1.65-.63-1.74-.64-.09-1,.58-1.13,1.49Z"/>
  <path class="cls-1" d="M206.52,157.8c.13.24.49.75.96,1.07.48.32.91.36,1.14.02.26-.39-.03-.86-.47-1.16l-.5-.34.64-.95.48.32c.34.22.84.41,1.06.07.17-.25.05-.57-.38-.85-.41-.27-.96-.39-1.22-.41l.39-1.14c.44.02,1.17.26,1.85.71,1.07.72,1.35,1.68.88,2.38-.34.51-.9.72-1.63.53v.02c.5.49.67,1.23.26,1.85-.6.89-1.82.95-3.08.1-.67-.45-1.11-.97-1.29-1.36l.93-.84Z"/>
  <path class="cls-1" d="M211.32,163.24l.86-.99-1.93-1.66.68-.8,3.82-1.32,1.54,1.33-2.18,2.53.49.42-.78.91-.49-.42-.86,1-1.16-1ZM212.96,161.34l.66-.76c.24-.28.51-.56.79-.86l-.03-.02c-.4.18-.77.35-1.2.52l-1.01.41h-.02s.81.7.81.7Z"/>
  <path class="cls-1" d="M214.22,166.1l6.76-1.37.54.63-6.76,1.37-.54-.64ZM218.54,164.53c-.93.79-1.96.57-2.54-.1-.62-.73-.56-1.74.26-2.43.75-.64,1.81-.7,2.52.13s.49,1.78-.24,2.4ZM219.52,169.45c-.93.79-1.97.58-2.54-.1-.62-.73-.55-1.74.26-2.43.75-.64,1.82-.7,2.52.13.71.83.48,1.79-.24,2.4ZM217.05,162.89c-.43.36-.59.73-.37,1.01.21.25.56.17,1.03-.22.41-.35.62-.71.39-.99-.24-.29-.65-.13-1.05.21ZM218.04,167.81c-.42.36-.6.74-.37,1.01.21.25.57.17,1.04-.23.41-.35.63-.72.39-.99-.24-.29-.65-.13-1.06.21Z"/>
  <path class="cls-1" d="M222.78,179.71l.83-.26.82.49c1.19.73,1.87,1.07,2.38.92.36-.11.54-.43.38-.94-.13-.42-.46-.72-.74-.94l.87-.69c.4.29.83.84,1.06,1.55.37,1.15-.04,2.03-1.02,2.35-.79.25-1.61-.11-2.27-.54l-.54-.37h-.01s.55,1.73.55,1.73l-1.13.36-1.17-3.67Z"/>
  <path class="cls-1" d="M225.41,183.5c.61-.12,1.08.13,1.42.61h.02c.16-.52.52-.84.97-.93.89-.18,1.63.52,1.85,1.59.26,1.29-.36,1.93-.97,2.05-.44.09-.91-.07-1.24-.48h-.02c-.08.47-.39,1.02-1.07,1.16-.94.19-1.74-.46-1.99-1.74-.29-1.4.37-2.13,1.03-2.26ZM225.99,186.08c.37-.08.56-.42.58-.81-.14-.28-.41-.42-.73-.36-.31.06-.56.36-.49.72.07.33.34.51.64.45ZM228.12,184.51c-.27.06-.42.37-.46.73.09.19.36.35.61.3.28-.06.52-.27.44-.63-.07-.33-.33-.45-.59-.4Z"/>
  <path class="cls-1" d="M225.01,189.54l5.54,2.63.04.74-5.54-2.63-.04-.74ZM227,194.74c-1.08.07-1.71-.64-1.75-1.42-.05-.85.54-1.54,1.48-1.59.88-.05,1.67.47,1.73,1.44.06.97-.61,1.53-1.45,1.58ZM226.82,192.78c-.49.03-.82.21-.8.52.02.29.31.42.86.39.48-.03.83-.17.81-.5-.02-.33-.4-.44-.87-.41ZM228.93,190.72c-1.08.06-1.7-.64-1.75-1.43-.05-.85.53-1.53,1.48-1.59.88-.05,1.66.47,1.72,1.44.06.97-.6,1.53-1.45,1.58ZM228.75,188.76c-.49.03-.82.21-.8.52.02.29.31.42.85.39.48-.03.82-.17.8-.5-.02-.33-.39-.44-.86-.41Z"/>
  <path class="cls-1" d="M230.09,211.65l1.22-3.88-1.03-.48c-.04.22-.1.4-.16.58-.32,1.02-.9,2.01-1.68,2.57-.78.57-1.7.69-2.82.34-1.82-.57-3.02-2.71-2.11-5.61.39-1.25.98-2.21,1.45-2.72l1.91,1.1c-.35.39-.9,1.25-1.18,2.13-.26.84-.27,1.93.66,2.22.9.28,1.66-.35,2.28-2.33.17-.53.25-.91.33-1.34l5.19,2.33-1.81,5.78-2.25-.71Z"/>
  <path class="cls-1" d="M227.17,217.24l.02-.03.22-2.24,2.1.67-.33,3.23-1.17,2.05-9.03-5.16,1.38-2.42,6.82,3.9Z"/>
  <path class="cls-1" d="M207.54,231.85c-1.39-1.66-1.01-3.51.2-4.52,1.3-1.09,3.11-.97,4.33.49,1.13,1.35,1.23,3.24-.25,4.49s-3.19.84-4.27-.45ZM210.48,229.22c-.63-.76-1.31-1.08-1.79-.67-.44.37-.3,1.01.4,1.84.62.74,1.27,1.12,1.76.71.51-.43.23-1.16-.37-1.88ZM213.54,222.45l2.38,12.05-1.13.95-2.38-12.05,1.14-.96ZM216.3,230.15c-1.39-1.65-1-3.5.21-4.51,1.3-1.09,3.1-.98,4.32.48,1.13,1.35,1.23,3.23-.26,4.48-1.49,1.25-3.18.85-4.26-.44ZM219.24,227.52c-.63-.76-1.3-1.07-1.79-.66-.44.37-.31,1,.39,1.83.62.74,1.26,1.12,1.76.7.51-.43.24-1.16-.36-1.88Z"/>
</svg>