<?xml version="1.0" encoding="UTF-8"?>
<svg id="Calque_1" data-name="Calque 1" xmlns="http://www.w3.org/2000/svg" viewBox="0 0 363.71 372.96">
  <defs>
    <style>
      .cls-1 {
        fill: #fff;
      }

      .cls-2 {
        fill: #6c88c4;
      }

      .cls-3 {
        fill: #2c67a0;
      }

      .cls-4 {
        fill: #dd2c42;
      }

      .cls-5 {
        fill: #b363a3;
      }

      .cls-6 {
        fill: #df5c18;
      }

      .cls-7 {
        fill: #ffd500;
      }

      .cls-8 {
        fill: #b9ce19;
      }
    </style>
  </defs>
  <path class="cls-2" d="M155.49,321.58l2.34-10.84,1.41.3-2.34,10.84-1.41-.3Z"/>
  <path class="cls-2" d="M155.21,310.19l-3.02,10.67-1.52-.43-1.89-6.36c-.43-1.47-.73-2.77-.92-4.02h-.04c-.28,1.47-.62,2.78-1.09,4.43l-1.27,4.47-1.3-.37,3.02-10.67,1.4.4,1.86,6.37c.4,1.4.77,2.82.97,4.14h.05c.3-1.38.65-2.67,1.15-4.43l1.29-4.56,1.3.37Z"/>
  <path class="cls-2" d="M140.85,317.45l-5.6-2.08.42-1.12,4.25,1.58,1.29-3.46-3.93-1.46.41-1.11,3.93,1.46,1.75-4.7,1.35.5-3.87,10.39Z"/>
  <path class="cls-2" d="M126.09,305.28c1.61-3.45,4.58-4.31,7.14-3.11,2.67,1.25,3.55,4.18,2.13,7.21-1.49,3.18-4.44,4.36-7.12,3.1-2.74-1.28-3.54-4.22-2.15-7.2ZM133.97,308.78c1.01-2.15.74-4.62-1.31-5.58-2.06-.96-4.11.39-5.17,2.67-.94,2-.87,4.58,1.29,5.59,2.16,1.01,4.16-.48,5.19-2.68Z"/>
  <path class="cls-2" d="M121.3,308.64c-.7-.24-1.65-.68-2.5-1.17-1.32-.76-2.04-1.51-2.33-2.4-.23-.69-.13-1.51.3-2.26.73-1.26,2.02-1.64,3.22-1.4l.02-.04c-.58-.68-.63-1.63-.29-2.76.46-1.52.76-2.57.78-3.06l1.29.74c0,.36-.27,1.31-.7,2.66-.47,1.48-.25,2.29.85,2.98l1.17.68,2.4-4.16,1.24.72-5.47,9.47ZM122.59,303.55l-1.27-.73c-1.33-.77-2.59-.53-3.22.57-.72,1.25-.13,2.31,1.17,3.07.6.35,1.05.53,1.29.6l2.02-3.51Z"/>
  <path class="cls-2" d="M108.56,293.22c-.82,1.31-1.82,2.89-2.63,4l.04.03c1.06-.83,2.24-1.7,3.57-2.62l4.71-3.25.88.63-1.58,5.35c-.48,1.58-.95,2.99-1.46,4.25l.03.02c.83-1.1,1.96-2.57,3.01-3.87l3-3.71,1.11.79-7.05,8.6-1.49-1.06,1.57-5.47c.41-1.37.82-2.58,1.25-3.69l-.04-.03c-.89.75-1.91,1.52-3.12,2.37l-4.72,3.23-1.49-1.06,5.86-9.44,1.15.82-2.6,4.13Z"/>
  <path class="cls-2" d="M104.76,288.33l3.15-1.88,1.12.97-10.12,5.89-1.3-1.13,4.42-10.85,1.16,1.01-1.39,3.41,2.97,2.58ZM101.28,286.79l-1.27,3.13c-.29.71-.6,1.31-.9,1.9l.03.03c.54-.38,1.12-.78,1.73-1.15l2.93-1.71-2.53-2.2Z"/>
  <path class="cls-2" d="M93.23,286.45l2.39,2.38-.85.86-5.82-5.8.85-.86,2.4,2.4,6.97-7,1.02,1.02-6.97,7Z"/>
  <path class="cls-2" d="M86.64,281.29l8.23-7.42.96,1.07-8.23,7.42-.96-1.07Z"/>
  <path class="cls-2" d="M82.74,267.95c2.99-2.36,6.02-1.79,7.77.42,1.82,2.31,1.3,5.32-1.33,7.4-2.76,2.18-5.92,1.9-7.75-.43-1.88-2.38-1.27-5.36,1.31-7.4ZM88.21,274.6c1.86-1.47,2.73-3.8,1.33-5.57-1.41-1.79-3.84-1.5-5.82.07-1.73,1.37-2.83,3.7-1.35,5.57,1.47,1.87,3.93,1.44,5.84-.07Z"/>
  <path class="cls-2" d="M86.08,262.84l-9.31,6.03-.86-1.32,2.77-6.03c.65-1.39,1.28-2.56,1.96-3.62l-.03-.02c-1.17.91-2.29,1.67-3.73,2.6l-3.9,2.53-.73-1.13,9.31-6.03.79,1.22-2.8,6.01c-.63,1.32-1.28,2.63-1.99,3.75l.04.03c1.13-.83,2.24-1.58,3.78-2.57l3.98-2.58.73,1.13Z"/>
  <path class="cls-1" d="M74.92,252.76c-.84.46-1.89.11-2.33-.73-.44-.85-.12-1.89.74-2.33.85-.44,1.89-.11,2.33.75.44.84.13,1.87-.74,2.32Z"/>
  <path class="cls-5" d="M73.11,243.3c.13-.74.06-1.73-.31-2.64-.56-1.35-1.6-1.86-2.63-1.43-.95.39-1.28,1.18-1.23,2.78.1,1.92-.35,3.32-1.79,3.91-1.6.66-3.33-.18-4.15-2.18-.43-1.04-.51-1.91-.44-2.47l1.24-.08c-.06.41-.07,1.21.31,2.14.58,1.41,1.64,1.6,2.33,1.31.95-.39,1.16-1.21,1.13-2.85-.04-2.02.44-3.24,1.94-3.86,1.57-.65,3.43-.06,4.44,2.37.41.99.56,2.2.41,2.9l-1.25.11Z"/>
  <path class="cls-5" d="M61.18,238.23c-.33-.62-.71-1.45-1.07-2.55-.44-1.34-.46-2.42-.1-3.24.31-.74.96-1.34,1.9-1.65.95-.32,1.8-.28,2.52.07,1.01.47,1.78,1.51,2.22,2.84.14.41.24.79.26,1.13l4.22-1.39.45,1.36-10.4,3.44ZM65.8,235.19c-.01-.33-.11-.72-.25-1.17-.54-1.65-1.68-2.38-3.12-1.9-1.39.46-1.75,1.68-1.25,3.17.2.6.4,1.03.53,1.25l4.1-1.35Z"/>
  <path class="cls-5" d="M61.15,218.4c3.7-.88,6.22.91,6.87,3.66.68,2.86-1.07,5.38-4.33,6.15-3.42.81-6.17-.77-6.85-3.65-.7-2.95,1.11-5.4,4.31-6.16ZM63.31,226.75c2.31-.55,4.08-2.29,3.56-4.49-.52-2.21-2.85-2.98-5.31-2.39-2.15.51-4.13,2.16-3.58,4.48.55,2.32,2.96,2.96,5.33,2.4Z"/>
  <path class="cls-5" d="M55.54,216.76c-.25-.7-.5-1.72-.64-2.69-.22-1.5-.08-2.54.43-3.31.4-.61,1.1-1.04,1.96-1.17,1.44-.21,2.54.56,3.1,1.65h.04c.17-.89.89-1.51,1.98-1.94,1.48-.59,2.49-1,2.89-1.29l.22,1.47c-.29.22-1.19.61-2.52,1.11-1.45.55-1.95,1.23-1.8,2.52l.2,1.34,4.75-.7.21,1.42-10.82,1.6ZM60.32,214.6l-.21-1.45c-.23-1.52-1.19-2.35-2.45-2.17-1.43.21-1.89,1.33-1.67,2.82.1.69.24,1.15.33,1.38l4-.59Z"/>
  <path class="cls-5" d="M55.13,204.68l.24,3.37-1.21.09-.59-8.19,1.21-.09.24,3.39,9.86-.71.1,1.44-9.86.71Z"/>
  <path class="cls-1" d="M60.31,194.53c-.96,0-1.72-.8-1.7-1.75.01-.96.79-1.72,1.75-1.71.96.01,1.71.79,1.7,1.76-.01.95-.77,1.71-1.75,1.69Z"/>
  <path class="cls-4" d="M61.18,175.5c-1.54-.1-3.41-.23-4.77-.41v.04c1.23.54,2.56,1.17,4,1.9l5.1,2.6-.13,1.07-5.46,1.15c-1.62.33-3.08.58-4.43.73v.04c1.36.21,3.19.51,4.82.82l4.69.88-.17,1.35-10.91-2.12.22-1.82,5.56-1.22c1.4-.29,2.66-.51,3.85-.65v-.04c-1.07-.43-2.24-.96-3.56-1.62l-5.09-2.62.22-1.82,11.09.68-.17,1.4-4.87-.33Z"/>
  <path class="cls-4" d="M63.66,169.86l3.15,1.88-.32,1.45-10.01-6.1.38-1.68,11.66-1.28-.33,1.5-3.66.4-.86,3.84ZM63.36,166.06l-3.36.38c-.76.08-1.44.09-2.1.12v.04c.59.3,1.21.61,1.83.97l2.9,1.77.73-3.27Z"/>
  <path class="cls-4" d="M70.99,154.46c.04.69,0,2.01-.44,3.44-.5,1.6-1.33,2.8-2.64,3.52-1.16.64-2.75.76-4.39.23-3.15-1-4.78-3.89-3.67-7.44.39-1.22.96-2.11,1.32-2.49l1.01.69c-.43.48-.85,1.13-1.19,2.19-.81,2.57.26,4.75,2.91,5.59,2.68.84,4.77-.27,5.55-2.74.28-.89.35-1.54.29-1.9l-3.15-.99-.67,2.14-1.09-.34,1.1-3.48,5.08,1.6Z"/>
  <path class="cls-4" d="M69.75,149.46l2.78,2.39-.57,1.37-8.8-7.72.66-1.59,11.69.74-.59,1.42-3.67-.24-1.5,3.63ZM70.11,145.67l-3.37-.21c-.76-.06-1.44-.15-2.09-.25l-.02.04c.54.39,1.1.81,1.64,1.27l2.55,2.24,1.28-3.09Z"/>
  <path class="cls-4" d="M75.23,143.33l-5.2-9.59-.04-.02-2.57,5.01-1.07-.55,3.42-6.67.78.4,5.18,9.54.05.02,2.83-5.51,1.07.55-3.7,7.2-.75-.38Z"/>
  <path class="cls-4" d="M71.86,127.99l9.56,5.62-.73,1.24-9.56-5.62.73-1.24Z"/>
  <path class="cls-4" d="M82.76,131.28l-9.18-6.21.88-1.3,6.63.2c1.53.06,2.86.18,4.1.38v-.04c-1.29-.72-2.43-1.46-3.85-2.42l-3.85-2.6.75-1.12,9.18,6.21-.81,1.21-6.63-.23c-1.46-.06-2.92-.16-4.23-.37v.05c1.2.72,2.32,1.45,3.83,2.47l3.93,2.66-.76,1.12Z"/>
  <path class="cls-4" d="M88.57,114.56l-2.69,3.36,3.13,2.51,3.01-3.75.93.75-3.91,4.88-8.66-6.94,3.75-4.68.93.75-2.85,3.56,2.74,2.2,2.69-3.36.93.74Z"/>
  <path class="cls-1" d="M93.29,110.61c-.71-.65-.71-1.75-.06-2.44.67-.69,1.75-.73,2.45-.06.69.66.71,1.75.05,2.45-.66.69-1.73.73-2.44.05Z"/>
  <path class="cls-6" d="M95.78,98.72c.57-.68,1.3-1.43,2.16-2.16,1.56-1.34,2.99-1.92,4.32-1.87,1.34.04,2.61.64,3.78,2,1.18,1.38,1.71,2.87,1.59,4.32-.12,1.47-1.06,3.01-2.69,4.41-.78.67-1.45,1.19-2.06,1.6l-7.1-8.29ZM103.26,105.24c.31-.19.72-.53,1.14-.89,2.34-1.99,2.48-4.37.53-6.65-1.69-2-3.89-2.29-6.19-.33-.56.48-.94.9-1.18,1.2l5.7,6.66Z"/>
  <path class="cls-6" d="M105.99,90.19l6.66,8.88-1.15.87-6.66-8.88,1.15-.86Z"/>
  <path class="cls-6" d="M116.84,96.09l-9.17-7.22,1.3-.86,4.47,3.6c1.23.98,2.32,1.88,3.28,2.79l.03-.02c-.45-1.24-.85-2.65-1.23-4.13l-1.48-5.61,1.27-.85,2.85,11.43-1.32.88Z"/>
  <path class="cls-6" d="M125.07,85.03l-3.74,2.12,1.97,3.49,4.19-2.37.59,1.04-5.44,3.07-5.45-9.65,5.22-2.95.59,1.04-3.96,2.24,1.73,3.06,3.74-2.12.58,1.03Z"/>
  <path class="cls-6" d="M125.2,78.49c.59-.44,1.5-.97,2.39-1.4,1.37-.65,2.4-.82,3.29-.55.7.21,1.32.75,1.69,1.53.62,1.31.2,2.59-.68,3.45l.02.04c.89-.09,1.7.41,2.43,1.33.99,1.24,1.68,2.09,2.07,2.38l-1.34.64c-.29-.21-.93-.96-1.8-2.08-.95-1.23-1.74-1.51-2.93-.99l-1.22.58,2.06,4.34-1.29.61-4.69-9.88ZM128.65,82.44l1.32-.63c1.39-.66,1.9-1.83,1.36-2.98-.62-1.3-1.82-1.42-3.19-.78-.63.3-1.03.56-1.23.72l1.74,3.66Z"/>
  <path class="cls-6" d="M136.61,74.57l-3.15,1.22-.44-1.13,7.66-2.96.44,1.13-3.17,1.22,3.56,9.21-1.34.52-3.56-9.21Z"/>
  <path class="cls-6" d="M143.99,70.65l3.45,10.54-1.37.45-3.45-10.54,1.37-.45Z"/>
  <path class="cls-6" d="M149.37,78.74c.72.22,1.71.28,2.66.03,1.41-.38,2.05-1.34,1.75-2.43-.27-.99-1.01-1.42-2.6-1.57-1.91-.15-3.25-.77-3.65-2.27-.45-1.67.6-3.28,2.69-3.84,1.09-.29,1.96-.26,2.5-.12l-.08,1.24c-.4-.11-1.19-.22-2.16.04-1.47.4-1.79,1.42-1.59,2.15.27.99,1.05,1.31,2.68,1.48,2.01.22,3.16.85,3.58,2.42.44,1.64-.38,3.41-2.91,4.1-1.04.28-2.25.27-2.92.04l.05-1.25Z"/>
  <path class="cls-6" d="M157.5,76.64c.71.27,1.68.4,2.65.21,1.44-.28,2.13-1.2,1.92-2.3-.2-1.01-.9-1.49-2.48-1.75-1.9-.28-3.18-1-3.48-2.52-.33-1.69.83-3.22,2.95-3.64,1.1-.22,1.98-.12,2.5.06l-.17,1.23c-.39-.14-1.18-.3-2.16-.11-1.49.29-1.89,1.29-1.74,2.03.2,1.01.96,1.38,2.57,1.67,1.99.36,3.09,1.06,3.4,2.66.33,1.67-.62,3.38-3.19,3.88-1.05.21-2.26.11-2.92-.17l.14-1.24Z"/>
  <path class="cls-6" d="M171.23,70.95l-4.27.53.49,3.98,4.77-.59.15,1.18-6.2.77-1.36-11.01,5.95-.74.15,1.19-4.52.56.43,3.49,4.27-.53.15,1.18Z"/>
  <path class="cls-6" d="M183.51,70.64c-.14-1.54-.3-3.4-.33-4.77h-.04c-.34,1.3-.76,2.71-1.26,4.25l-1.78,5.44-1.08.04-1.98-5.22c-.58-1.55-1.05-2.96-1.41-4.26h-.04c0,1.38,0,3.23-.06,4.9l-.14,4.77-1.36.04.41-11.11,1.83-.06,2.06,5.31c.5,1.34.91,2.55,1.24,3.7h.04c.25-1.13.6-2.37,1.05-3.77l1.81-5.43,1.83-.06,1.05,11.06-1.41.05-.42-4.86Z"/>
  <path class="cls-6" d="M193.67,70.75l-4.29-.25-.23,4,4.8.28-.07,1.19-6.24-.36.64-11.08,5.99.34-.07,1.19-4.55-.26-.2,3.51,4.29.25-.07,1.18Z"/>
  <path class="cls-6" d="M195.88,76.14l1.54-10.98,1.56.22,2.74,6.04c.62,1.4,1.1,2.64,1.46,3.85h.04c.08-1.5.24-2.84.48-4.54l.64-4.6,1.34.19-1.54,10.98-1.44-.2-2.71-6.06c-.58-1.34-1.15-2.69-1.53-3.96h-.05c-.11,1.41-.28,2.74-.53,4.56l-.66,4.7-1.34-.19Z"/>
  <path class="cls-6" d="M210.92,68.63l-3.3-.73.26-1.18,8.02,1.78-.26,1.18-3.31-.74-2.14,9.64-1.41-.31,2.15-9.64Z"/>
  <path class="cls-1" d="M219.15,76.5c.27-.92,1.26-1.42,2.16-1.13.92.29,1.42,1.25,1.13,2.17-.29.92-1.25,1.41-2.18,1.12-.9-.29-1.41-1.23-1.12-2.16Z"/>
  <path class="cls-7" d="M237.12,82.79c.54-1.45,1.2-3.2,1.76-4.45l-.04-.02c-.87,1.02-1.85,2.12-2.97,3.29l-3.96,4.14-.99-.44.47-5.56c.15-1.65.32-3.12.57-4.45l-.04-.02c-.59,1.25-1.4,2.91-2.17,4.39l-2.18,4.24-1.25-.55,5.17-9.85,1.68.74-.43,5.68c-.13,1.43-.28,2.7-.48,3.87l.04.02c.72-.91,1.57-1.88,2.58-2.95l3.97-4.12,1.68.74-3.83,10.43-1.29-.57,1.71-4.57Z"/>
  <path class="cls-7" d="M245.42,80.06l-3.23,5.72c-1.22,2.15-.78,3.61.53,4.34,1.42.8,2.88.38,4.08-1.74l3.23-5.72,1.25.71-3.18,5.64c-1.68,2.97-3.92,3.3-6.02,2.11-1.97-1.11-2.82-3.08-1.13-6.08l3.21-5.69,1.25.71Z"/>
  <path class="cls-7" d="M248.85,92.91c.31.69.9,1.48,1.72,2.03,1.21.82,2.35.67,2.98-.26.58-.85.42-1.69-.51-2.99-1.14-1.54-1.54-2.96-.67-4.25.97-1.43,2.87-1.69,4.66-.48.93.63,1.48,1.32,1.73,1.81l-.99.75c-.18-.37-.61-1.05-1.44-1.61-1.26-.85-2.24-.43-2.67.2-.58.85-.3,1.65.63,3,1.14,1.67,1.42,2.94.51,4.29-.95,1.41-2.83,1.95-5,.47-.89-.6-1.67-1.52-1.94-2.19l.98-.78Z"/>
  <path class="cls-7" d="M262.69,91.25l-6.69,8.84-1.15-.87,6.69-8.84,1.15.87Z"/>
  <path class="cls-7" d="M264.02,108.9c-.88-1.27-1.69-2.57-2.38-3.75-.12-.22-.24-.41-.4-.57-1.93-1.8-2.36-4.73-.02-7.44,2.33-2.69,5.46-3,7.73-1.04,2.28,1.97,2.24,5.02.09,7.5-1.87,2.16-4.05,2.67-5.88,1.96l-.04.05c.65.93,1.39,1.92,1.99,2.66l-1.1.62ZM267.86,102.67c1.45-1.68,2.08-4.17.3-5.71-1.83-1.58-4.19-.66-5.76,1.15-1.54,1.78-1.96,4.24-.27,5.7,1.73,1.5,4.07.76,5.72-1.15Z"/>
  <path class="cls-7" d="M275.72,102.64l-4.75,4.54c-1.79,1.71-1.79,3.23-.75,4.31,1.13,1.18,2.65,1.2,4.41-.49l4.75-4.54,1,1.04-4.67,4.47c-2.46,2.36-4.71,2.02-6.37.29-1.56-1.64-1.81-3.76.68-6.14l4.72-4.51,1,1.04Z"/>
  <path class="cls-7" d="M281.72,118.35l-2.71-3.33-3.11,2.53,3.04,3.73-.93.75-3.94-4.85,8.6-7,3.78,4.65-.93.75-2.88-3.53-2.72,2.21,2.71,3.34-.92.75Z"/>
  <path class="cls-1" d="M284.59,123.78c.79-.56,1.86-.33,2.4.45.54.79.34,1.86-.45,2.4-.79.54-1.86.34-2.4-.46-.53-.78-.35-1.84.46-2.39Z"/>
  <path class="cls-8" d="M295.69,128.69c.55.7,1.13,1.57,1.67,2.56.98,1.8,1.26,3.33.93,4.61-.31,1.3-1.16,2.42-2.73,3.28-1.6.87-3.16,1.08-4.55.67-1.41-.43-2.73-1.66-3.76-3.54-.49-.9-.86-1.67-1.14-2.35l9.58-5.23ZM287.77,134.66c.12.35.37.82.63,1.3,1.46,2.7,3.76,3.33,6.39,1.89,2.31-1.24,3.05-3.33,1.6-5.99-.35-.65-.68-1.11-.93-1.4l-7.69,4.2Z"/>
  <path class="cls-8" d="M300.22,150.18c-3.5,1.5-6.28.17-7.39-2.42-1.16-2.7.13-5.48,3.21-6.8,3.23-1.39,6.21-.3,7.38,2.42,1.2,2.78-.16,5.51-3.19,6.81ZM296.66,142.33c-2.18.94-3.62,2.96-2.73,5.04.9,2.09,3.32,2.44,5.64,1.45,2.03-.87,3.69-2.84,2.75-5.03-.94-2.19-3.43-2.41-5.66-1.45Z"/>
  <path class="cls-8" d="M298.42,161.52c-.41-.41-1-1.34-1.42-2.62-.97-2.97.17-5.81,3.63-6.95,3.31-1.09,6.26.42,7.34,3.69.43,1.3.43,2.23.36,2.65l-1.22.03c.08-.59.03-1.38-.26-2.26-.81-2.47-2.93-3.59-5.7-2.68-2.58.85-3.74,2.87-2.9,5.43.27.84.72,1.62,1.17,2.09l-1,.63Z"/>
  <path class="cls-8" d="M309.71,162.36l-6.4,1.5c-2.41.56-3.18,1.87-2.84,3.33.37,1.59,1.67,2.38,4.04,1.82l6.4-1.5.33,1.4-6.3,1.47c-3.32.78-5.08-.65-5.63-2.99-.51-2.2.35-4.16,3.71-4.95l6.36-1.49.33,1.4Z"/>
  <path class="cls-8" d="M307,182.58c1.52-.28,3.36-.62,4.72-.79v-.04c-1.33-.21-2.78-.49-4.35-.84l-5.58-1.25-.14-1.07,5-2.47c1.49-.72,2.84-1.33,4.1-1.81v-.04c-1.38.14-3.22.3-4.88.41l-4.76.32-.18-1.35,11.09-.66.23,1.82-5.08,2.56c-1.29.63-2.45,1.15-3.56,1.59v.04c1.16.14,2.42.37,3.86.68l5.58,1.27.24,1.82-10.91,2.11-.18-1.4,4.79-.89Z"/>
  <path class="cls-8" d="M307.86,192.74l-.16-4.3-4,.15.18,4.81-1.19.04-.23-6.25,11.08-.42.23,5.99-1.19.04-.17-4.55-3.51.13.16,4.3-1.19.04Z"/>
  <path class="cls-8" d="M302.7,195.43l11.08.48-.07,1.57-5.75,3.3c-1.33.75-2.53,1.35-3.69,1.82l.02.04c1.49-.07,2.84-.03,4.55.04l4.64.2-.06,1.35-11.08-.48.06-1.45,5.77-3.28c1.27-.71,2.57-1.4,3.8-1.9l-.02-.05c-1.41.03-2.74-.01-4.57-.09l-4.74-.21.06-1.35Z"/>
  <path class="cls-8" d="M311.61,209.68l.42-3.35,1.2.15-1.02,8.15-1.2-.15.42-3.37-9.8-1.22.18-1.43,9.8,1.22Z"/>
  <path class="cls-8" d="M304.26,215.87l-3.21-1.79.28-1.46,10.17,5.81-.33,1.69-11.61,1.61.29-1.5,3.65-.5.75-3.86ZM304.66,219.66l3.34-.47c.76-.1,1.44-.14,2.1-.18v-.04c-.6-.28-1.23-.58-1.86-.92l-2.95-1.68-.64,3.29Z"/>
  <path class="cls-8" d="M309.44,227.62l-10.74-2.75.36-1.4,10.74,2.76-.36,1.39Z"/>
  <path class="cls-8" d="M308.45,230.77c-.08.74-.31,1.76-.6,2.7-.46,1.45-1.04,2.32-1.84,2.79-.63.38-1.45.46-2.27.19-1.39-.44-2.03-1.62-2.07-2.84h-.04c-.54.7-1.45.95-2.63.86-1.59-.12-2.68-.19-3.16-.1l.45-1.42c.36-.07,1.34-.02,2.75.1,1.55.14,2.29-.25,2.72-1.47l.41-1.29-4.58-1.45.43-1.37,10.43,3.3ZM303.21,230.62l-.44,1.39c-.46,1.46.04,2.64,1.25,3.02,1.37.43,2.28-.37,2.74-1.81.21-.66.29-1.14.31-1.39l-3.86-1.22Z"/>
  <path class="cls-8" d="M297.9,243.29l1.59-3.99-3.72-1.48-1.78,4.47-1.11-.44,2.31-5.8,10.3,4.1-2.21,5.57-1.11-.44,1.68-4.23-3.26-1.3-1.59,3.99-1.1-.44Z"/>
  <path class="cls-1" d="M294.55,248.46c.87.41,1.2,1.46.77,2.31-.43.86-1.46,1.21-2.32.78-.86-.43-1.2-1.46-.76-2.32.43-.85,1.44-1.2,2.31-.76Z"/>
  <path class="cls-3" d="M288.4,258.07l-2.34-2.82.79-1.26,7.39,9.09-.92,1.46-11.41-2.69.81-1.3,3.58.85,2.09-3.33ZM287.41,261.75l3.29.77c.74.18,1.39.39,2.02.59l.02-.03c-.46-.48-.95-.99-1.41-1.53l-2.14-2.63-1.78,2.84Z"/>
  <path class="cls-3" d="M289.17,270.71l-5.25-3.95c-1.98-1.49-3.48-1.24-4.37-.04-.98,1.31-.75,2.81,1.2,4.27l5.25,3.95-.87,1.15-5.17-3.89c-2.73-2.05-2.76-4.32-1.32-6.24,1.36-1.81,3.42-2.4,6.17-.33l5.22,3.92-.87,1.15Z"/>
  <path class="cls-3" d="M280.54,279.57l2.24-2.53.91.8-5.45,6.14-.91-.8,2.25-2.54-7.39-6.56.96-1.08,7.39,6.56Z"/>
  <path class="cls-3" d="M276.59,285.44c-.42.61-1.1,1.41-1.81,2.09-1.09,1.06-2.01,1.55-2.94,1.59-.73.03-1.49-.28-2.09-.9-1.01-1.04-1.02-2.39-.47-3.48l-.03-.03c-.81.38-1.74.16-2.73-.47-1.34-.86-2.27-1.43-2.73-1.59l1.06-1.04c.35.11,1.19.61,2.38,1.39,1.29.86,2.13.86,3.09-.01l.97-.94-3.35-3.44,1.03-1,7.63,7.84ZM272.04,282.82l-1.05,1.02c-1.1,1.07-1.21,2.34-.33,3.25,1,1.03,2.18.76,3.27-.3.5-.48.8-.86.93-1.08l-2.82-2.9Z"/>
  <path class="cls-3" d="M261.36,291.5l3.29-2.77-2.58-3.07-3.68,3.09-.77-.91,4.78-4.02,7.13,8.49-4.59,3.86-.77-.91,3.49-2.93-2.26-2.69-3.29,2.77-.76-.91Z"/>
  <path class="cls-3" d="M257.22,290.35c-.75.05-1.7.35-2.49.92-1.18.86-1.43,1.99-.77,2.9.61.83,1.45.97,2.99.54,1.84-.55,3.31-.44,4.22.82,1.02,1.39.61,3.27-1.13,4.55-.91.66-1.74.94-2.29,1.01l-.37-1.18c.41-.04,1.2-.22,2-.81,1.23-.9,1.16-1.97.72-2.58-.61-.83-1.45-.85-3.04-.42-1.96.51-3.25.34-4.21-.98-1-1.38-.87-3.32,1.25-4.87.87-.63,2-1.06,2.72-1.08l.4,1.19Z"/>
  <path class="cls-3" d="M243.73,303.24l3.74-2.11-1.97-3.49-4.19,2.37-.59-1.04,5.44-3.07,5.46,9.65-5.22,2.95-.59-1.04,3.96-2.24-1.73-3.06-3.74,2.12-.58-1.03ZM248.1,310.42l.88-2.7,1.02-.58-.38,2.42-1.52.86Z"/>
  <path class="cls-3" d="M232.63,308.42c.73,1.36,1.62,3.01,2.2,4.25l.04-.02c-.2-1.33-.38-2.79-.53-4.4l-.52-5.7.98-.46,3.89,4.01c1.14,1.19,2.14,2.3,2.98,3.35l.04-.02c-.55-1.27-1.28-2.97-1.89-4.52l-1.76-4.43,1.23-.58,4.03,10.36-1.66.78-4-4.05c-.99-1.03-1.85-1.98-2.6-2.91l-.04.02c.22,1.14.39,2.41.53,3.88l.5,5.7-1.66.78-5.35-9.74,1.27-.6,2.32,4.29Z"/>
  <path class="cls-3" d="M229.42,316.35l-3.97-10.36,1.34-.52,3.97,10.36-1.34.52Z"/>
  <path class="cls-3" d="M223.62,308.55c-.73-.18-1.72-.2-2.66.11-1.39.45-1.98,1.45-1.63,2.51.32.98,1.08,1.37,2.67,1.44,1.92.05,3.28.61,3.76,2.09.53,1.64-.44,3.3-2.49,3.97-1.07.35-1.95.36-2.49.24l.02-1.24c.4.09,1.21.16,2.15-.14,1.45-.47,1.72-1.51,1.49-2.22-.32-.98-1.12-1.25-2.75-1.35-2.02-.12-3.2-.69-3.7-2.24-.52-1.62.21-3.43,2.71-4.24,1.02-.33,2.23-.38,2.92-.19v1.25Z"/>
  <path class="cls-3" d="M215.61,311.07c-.72-.23-1.7-.32-2.66-.08-1.42.35-2.07,1.3-1.8,2.39.25,1,.98,1.44,2.56,1.62,1.91.19,3.23.84,3.6,2.35.42,1.68-.67,3.26-2.76,3.79-1.09.27-1.97.22-2.5.07l.11-1.24c.39.12,1.19.25,2.16,0,1.48-.37,1.82-1.38,1.64-2.12-.25-1-1.03-1.33-2.65-1.54-2-.26-3.14-.91-3.53-2.49-.41-1.65.45-3.41,3-4.04,1.04-.26,2.25-.23,2.92.02l-.08,1.25Z"/>
  <path class="cls-3" d="M207.59,322.47l-2.1-10.89,1.41-.27,2.1,10.89-1.41.27Z"/>
  <path class="cls-3" d="M194.16,318.91c-.48-3.78,1.57-6.08,4.38-6.44,2.92-.37,5.23,1.64,5.65,4.96.44,3.49-1.43,6.05-4.37,6.42-3.01.38-5.25-1.68-5.66-4.95ZM202.69,317.66c-.3-2.36-1.84-4.3-4.08-4.02-2.26.28-3.27,2.52-2.95,5.02.28,2.19,1.71,4.33,4.07,4.04,2.36-.3,3.26-2.63,2.96-5.04Z"/>
  <path class="cls-3" d="M191.5,313.4l.33,11.09-1.57.05-3.72-5.5c-.85-1.28-1.53-2.42-2.09-3.55l-.04.02c.17,1.48.24,2.83.29,4.54l.14,4.65-1.35.04-.33-11.09,1.45-.04,3.69,5.51c.8,1.22,1.58,2.46,2.17,3.65l.05-.02c-.13-1.4-.19-2.74-.24-4.57l-.14-4.74,1.35-.04Z"/>
  <path class="cls-3" d="M180.64,315.32c-.62-.43-1.54-.8-2.52-.85-1.46-.07-2.36.65-2.42,1.77-.05,1.03.52,1.66,1.98,2.3,1.77.73,2.85,1.74,2.77,3.29-.09,1.72-1.58,2.93-3.74,2.82-1.12-.06-1.95-.36-2.42-.66l.46-1.15c.34.23,1.07.58,2.06.63,1.52.08,2.14-.79,2.18-1.55.05-1.03-.6-1.57-2.1-2.24-1.84-.83-2.74-1.78-2.66-3.4.09-1.7,1.41-3.13,4.04-3,1.07.05,2.22.44,2.79.87l-.44,1.17Z"/>
  <path class="cls-1" d="M172.42,317.37c-.08.96-.95,1.64-1.89,1.54-.96-.1-1.64-.94-1.54-1.9.1-.95.95-1.63,1.91-1.53.94.1,1.63.92,1.53,1.89Z"/>
</svg>