<?xml version="1.0" encoding="UTF-8"?>
<svg id="Calque_1" data-name="Calque 1" xmlns="http://www.w3.org/2000/svg" viewBox="0 0 363.71 372.96">
  <defs>
    <style>
      .cls-1 {
        fill: none;
        stroke: #fff;
        stroke-miterlimit: 10;
        stroke-width: .17px;
      }
    </style>
  </defs>
  <line class="cls-1" x1="165" y1="205.44" x2="168.8" y2="203.21"/>
  <line class="cls-1" x1="165.79" y1="206.7" x2="169.44" y2="204.23"/>
  <line class="cls-1" x1="166.65" y1="207.9" x2="170.14" y2="205.2"/>
  <line class="cls-1" x1="167.59" y1="209.04" x2="170.91" y2="206.13"/>
  <line class="cls-1" x1="168.6" y1="210.12" x2="171.73" y2="207.01"/>
  <line class="cls-1" x1="169.68" y1="211.14" x2="172.61" y2="207.84"/>
  <line class="cls-1" x1="170.82" y1="212.09" x2="173.53" y2="208.61"/>
  <line class="cls-1" x1="172.01" y1="212.96" x2="174.5" y2="209.32"/>
  <line class="cls-1" x1="173.26" y1="213.76" x2="175.52" y2="209.97"/>
  <line class="cls-1" x1="174.56" y1="214.47" x2="176.57" y2="210.55"/>
  <line class="cls-1" x1="175.9" y1="215.11" x2="177.66" y2="211.07"/>
  <line class="cls-1" x1="177.27" y1="215.66" x2="178.77" y2="211.51"/>
  <line class="cls-1" x1="178.68" y1="216.12" x2="179.92" y2="211.89"/>
  <line class="cls-1" x1="180.11" y1="216.49" x2="181.08" y2="212.19"/>
  <line class="cls-1" x1="181.56" y1="216.77" x2="182.27" y2="212.42"/>
  <line class="cls-1" x1="183.03" y1="216.96" x2="183.46" y2="212.58"/>
  <line class="cls-1" x1="184.51" y1="217.06" x2="184.66" y2="212.66"/>
  <line class="cls-1" x1="185.99" y1="217.07" x2="185.86" y2="212.66"/>
  <line class="cls-1" x1="187.47" y1="216.98" x2="187.07" y2="212.59"/>
  <line class="cls-1" x1="188.94" y1="216.8" x2="188.26" y2="212.44"/>
  <line class="cls-1" x1="190.39" y1="216.52" x2="189.44" y2="212.22"/>
  <line class="cls-1" x1="191.83" y1="216.16" x2="190.61" y2="211.92"/>
  <line class="cls-1" x1="193.24" y1="215.7" x2="191.76" y2="211.55"/>
  <line class="cls-1" x1="194.62" y1="215.16" x2="192.88" y2="211.11"/>
  <line class="cls-1" x1="195.96" y1="214.54" x2="193.97" y2="210.6"/>
  <line class="cls-1" x1="197.26" y1="213.83" x2="195.02" y2="210.03"/>
  <line class="cls-1" x1="198.51" y1="213.04" x2="196.04" y2="209.39"/>
  <line class="cls-1" x1="199.71" y1="212.17" x2="197.02" y2="208.68"/>
  <line class="cls-1" x1="200.85" y1="211.23" x2="197.95" y2="207.92"/>
  <line class="cls-1" x1="201.94" y1="210.22" x2="198.83" y2="207.1"/>
  <line class="cls-1" x1="202.95" y1="209.14" x2="199.65" y2="206.22"/>
  <line class="cls-1" x1="203.9" y1="208.01" x2="200.42" y2="205.3"/>
  <line class="cls-1" x1="204.77" y1="206.81" x2="201.13" y2="204.32"/>
  <line class="cls-1" x1="205.57" y1="205.56" x2="201.78" y2="203.31"/>
  <line class="cls-1" x1="206.29" y1="204.27" x2="202.37" y2="202.26"/>
  <line class="cls-1" x1="206.92" y1="202.93" x2="202.88" y2="201.17"/>
  <line class="cls-1" x1="207.47" y1="201.56" x2="203.33" y2="200.05"/>
  <line class="cls-1" x1="207.93" y1="200.15" x2="203.7" y2="198.91"/>
  <line class="cls-1" x1="208.31" y1="198.72" x2="204.01" y2="197.74"/>
  <line class="cls-1" x1="208.59" y1="197.26" x2="204.24" y2="196.56"/>
  <line class="cls-1" x1="208.78" y1="195.79" x2="204.39" y2="195.37"/>
  <line class="cls-1" x1="208.88" y1="194.32" x2="204.47" y2="194.17"/>
  <line class="cls-1" x1="208.88" y1="192.84" x2="204.47" y2="192.96"/>
  <line class="cls-1" x1="208.79" y1="191.36" x2="204.4" y2="191.76"/>
  <line class="cls-1" x1="208.61" y1="189.89" x2="204.25" y2="190.57"/>
  <line class="cls-1" x1="208.34" y1="188.43" x2="204.03" y2="189.38"/>
  <line class="cls-1" x1="207.97" y1="187" x2="203.74" y2="188.22"/>
  <line class="cls-1" x1="207.52" y1="185.59" x2="203.37" y2="187.07"/>
  <line class="cls-1" x1="206.98" y1="184.21" x2="202.93" y2="185.95"/>
  <line class="cls-1" x1="206.35" y1="182.87" x2="202.42" y2="184.86"/>
  <line class="cls-1" x1="205.64" y1="181.57" x2="201.84" y2="183.8"/>
  <line class="cls-1" x1="204.85" y1="180.32" x2="201.2" y2="182.78"/>
  <line class="cls-1" x1="203.99" y1="179.12" x2="200.5" y2="181.81"/>
  <line class="cls-1" x1="203.05" y1="177.97" x2="199.73" y2="180.88"/>
  <line class="cls-1" x1="202.04" y1="176.89" x2="198.91" y2="180"/>
  <line class="cls-1" x1="200.96" y1="175.87" x2="198.03" y2="179.17"/>
  <line class="cls-1" x1="199.82" y1="174.93" x2="197.11" y2="178.4"/>
  <line class="cls-1" x1="198.63" y1="174.05" x2="196.14" y2="177.69"/>
  <line class="cls-1" x1="197.38" y1="173.25" x2="195.12" y2="177.04"/>
  <line class="cls-1" x1="196.08" y1="172.54" x2="194.07" y2="176.46"/>
  <line class="cls-1" x1="194.74" y1="171.9" x2="192.98" y2="175.94"/>
  <line class="cls-1" x1="193.37" y1="171.35" x2="191.87" y2="175.5"/>
  <line class="cls-1" x1="191.96" y1="170.89" x2="190.72" y2="175.12"/>
  <line class="cls-1" x1="190.53" y1="170.52" x2="189.56" y2="174.82"/>
  <line class="cls-1" x1="189.08" y1="170.24" x2="188.37" y2="174.59"/>
  <line class="cls-1" x1="187.61" y1="170.05" x2="187.18" y2="174.44"/>
  <line class="cls-1" x1="186.13" y1="169.95" x2="185.98" y2="174.36"/>
  <line class="cls-1" x1="184.65" y1="169.95" x2="184.78" y2="174.35"/>
  <line class="cls-1" x1="183.17" y1="170.03" x2="183.57" y2="174.42"/>
  <line class="cls-1" x1="181.7" y1="170.22" x2="182.38" y2="174.57"/>
  <line class="cls-1" x1="180.25" y1="170.49" x2="181.2" y2="174.79"/>
  <line class="cls-1" x1="178.81" y1="170.85" x2="180.03" y2="175.09"/>
  <line class="cls-1" x1="177.4" y1="171.31" x2="178.88" y2="175.46"/>
  <line class="cls-1" x1="176.02" y1="171.85" x2="177.76" y2="175.9"/>
  <line class="cls-1" x1="174.68" y1="172.47" x2="176.67" y2="176.41"/>
  <line class="cls-1" x1="173.38" y1="173.18" x2="175.62" y2="176.98"/>
  <line class="cls-1" x1="172.13" y1="173.97" x2="174.6" y2="177.63"/>
  <line class="cls-1" x1="170.93" y1="174.84" x2="173.62" y2="178.33"/>
  <line class="cls-1" x1="169.79" y1="175.78" x2="172.69" y2="179.09"/>
  <line class="cls-1" x1="168.7" y1="176.79" x2="171.81" y2="179.92"/>
  <line class="cls-1" x1="167.69" y1="177.87" x2="170.99" y2="180.79"/>
  <line class="cls-1" x1="166.74" y1="179" x2="170.22" y2="181.72"/>
  <line class="cls-1" x1="165.87" y1="180.2" x2="169.51" y2="182.69"/>
  <line class="cls-1" x1="165.07" y1="181.45" x2="168.86" y2="183.7"/>
  <line class="cls-1" x1="164.35" y1="182.74" x2="168.27" y2="184.76"/>
  <line class="cls-1" x1="163.72" y1="184.08" x2="167.76" y2="185.84"/>
  <line class="cls-1" x1="163.17" y1="185.46" x2="167.31" y2="186.96"/>
  <line class="cls-1" x1="162.71" y1="186.86" x2="166.94" y2="188.1"/>
  <line class="cls-1" x1="162.33" y1="188.3" x2="166.63" y2="189.27"/>
  <line class="cls-1" x1="162.05" y1="189.75" x2="166.4" y2="190.45"/>
  <line class="cls-1" x1="161.86" y1="191.22" x2="166.25" y2="191.64"/>
  <line class="cls-1" x1="161.76" y1="192.7" x2="166.17" y2="192.85"/>
  <line class="cls-1" x1="161.76" y1="194.18" x2="166.17" y2="194.05"/>
  <line class="cls-1" x1="161.85" y1="195.65" x2="166.24" y2="195.25"/>
  <line class="cls-1" x1="162.03" y1="197.12" x2="166.39" y2="196.45"/>
  <line class="cls-1" x1="162.3" y1="198.58" x2="166.61" y2="197.63"/>
  <line class="cls-1" x1="162.67" y1="200.01" x2="166.9" y2="198.8"/>
  <line class="cls-1" x1="163.12" y1="201.42" x2="167.27" y2="199.94"/>
  <line class="cls-1" x1="163.66" y1="202.8" x2="167.71" y2="201.06"/>
  <line class="cls-1" x1="164.29" y1="204.14" x2="168.22" y2="202.15"/>
</svg>