<?xml version="1.0" encoding="UTF-8"?>
<svg id="Calque_1" data-name="Calque 1" xmlns="http://www.w3.org/2000/svg" xmlns:xlink="http://www.w3.org/1999/xlink" viewBox="0 0 1127.77 1453.17">
  <defs>
    <style>
      .cls-1 {
        fill: url(#kinaya);
      }

      .cls-2 {
        stroke-width: 7.82px;
      }

      .cls-2, .cls-3, .cls-4, .cls-5 {
        fill: none;
        stroke: #fff;
        stroke-miterlimit: 10;
      }

      .cls-3 {
        stroke-width: .38px;
      }

      .cls-6 {
        fill: url(#kinaya3);
      }

      .cls-7 {
        fill: url(#dienaba_1);
      }

      .cls-8 {
        fill: #fff;
      }

      .cls-9 {
        fill: url(#maïssa);
      }

      .cls-10 {
        fill: url(#dienaba);
      }

      .cls-4 {
        stroke-width: 1.45px;
      }

      .cls-11 {
        fill: url(#kinaya2);
      }

      .cls-5 {
        stroke-width: 3.66px;
      }

      .cls-12 {
        fill: url(#maïssa_3);
      }
    </style>
    <linearGradient id="kinaya2" x1="586.63" y1="616.28" x2="733.12" y2="616.28" gradientUnits="userSpaceOnUse">
      <stop offset=".74" stop-color="#ec6d1c"/>
      <stop offset="1" stop-color="#be3217"/>
    </linearGradient>
    <linearGradient id="kinaya3" x1="728.33" y1="647.89" x2="814" y2="647.89" gradientUnits="userSpaceOnUse">
      <stop offset="0" stop-color="#ffec00"/>
      <stop offset="1" stop-color="#ec6d1a"/>
    </linearGradient>
    <linearGradient id="dienaba" x1="494.69" y1="678.58" x2="597.32" y2="678.58" gradientUnits="userSpaceOnUse">
      <stop offset=".2" stop-color="#bd4893"/>
      <stop offset="1" stop-color="#e42320"/>
    </linearGradient>
    <linearGradient id="maïssa_3" data-name="maïssa 3" x1="787.76" y1="726.16" x2="840.91" y2="726.16" gradientUnits="userSpaceOnUse">
      <stop offset="0" stop-color="#71b63b"/>
      <stop offset="1" stop-color="#ffec00"/>
    </linearGradient>
    <linearGradient id="kinaya" x1="492.95" y1="798.09" x2="551.81" y2="798.09" gradientUnits="userSpaceOnUse">
      <stop offset="0" stop-color="#814895"/>
      <stop offset="1" stop-color="#38beef"/>
    </linearGradient>
    <linearGradient id="dienaba_1" data-name="dienaba 1" x1="742.25" y1="844.16" x2="839.67" y2="844.16" gradientUnits="userSpaceOnUse">
      <stop offset="0" stop-color="#2f56a2"/>
      <stop offset="1" stop-color="#71b63b"/>
    </linearGradient>
    <linearGradient id="maïssa" x1="519.85" y1="877.47" x2="611.25" y2="877.47" gradientUnits="userSpaceOnUse">
      <stop offset="0" stop-color="#38beef"/>
      <stop offset="1" stop-color="#bd4893"/>
    </linearGradient>
  </defs>
  <g>
    <path class="cls-11" d="M718.05,636.78l15.07-34.55c-45.99-18.88-99.54-17.93-146.49,6.55l20.36,34.67c35.46-18.91,75.95-20.23,111.06-6.66Z"/>
    <path class="cls-6" d="M782.09,688.96l31.91-18.75c-17.81-28.24-42.53-49.67-70.65-63.39l-15.02,34.44c21.31,10.36,40.09,26.48,53.76,47.7Z"/>
    <path class="cls-10" d="M597.32,649.12l-20.46-34.83c-46.39,28.06-75.07,74.47-82.17,124.42l42.74,4.17c5.25-37.27,26.12-71.99,59.9-93.76Z"/>
    <path class="cls-12" d="M819.68,679.88l-31.92,18.75c11.87,22.27,16.81,46.52,15.48,70.18l37.41,3.65c1.71-31.24-4.98-63.26-20.97-92.58Z"/>
    <path class="cls-1" d="M536.33,754.04l-42.86-4.18c-2.51,32.46,4.05,65.94,20.71,96.47l37.63-22.11c-11.87-22.27-16.81-46.52-15.48-70.18Z"/>
    <path class="cls-7" d="M742.25,873.72l20.35,34.64c29.96-19.7,51.99-47.26,64.91-78.35,6.16-14.83,10.25-30.45,12.15-46.39l-37.52-3.66c-5.25,37.27-26.12,71.99-59.9,93.76Z"/>
    <path class="cls-9" d="M557.49,833.89l-37.63,22.11c18.56,29.41,44.6,51.44,74.17,65.06l17.22-39.47c-21.31-10.36-40.09-26.48-53.76-47.7Z"/>
  </g>
  <path class="cls-2" d="M636.9,824.32c-34.27-17.58-47.8-59.61-30.22-93.87,17.58-34.27,59.61-47.8,93.87-30.22,34.27,17.58,47.8,59.61,30.22,93.87-8.5,16.57-22.72,28.3-39.01,34"/>
  <path class="cls-4" d="M605.82,817.43c-30.46-34.74-27-87.6,7.75-118.07,34.74-30.46,87.6-27,118.07,7.75,30.46,34.74,27,87.6-7.75,118.07-16.8,14.73-37.84,21.53-58.54,20.69"/>
  <path class="cls-5" d="M584.5,804.91c-23.55-46.52-4.92-103.32,41.6-126.86,46.52-23.55,103.32-4.92,126.86,41.6,23.55,46.52,4.92,103.32-41.6,126.86-22.5,11.39-47.4,12.91-69.78,6.19"/>
  <g>
    <line class="cls-3" x1="617.48" y1="792.22" x2="627.24" y2="786.48"/>
    <line class="cls-3" x1="619.51" y1="795.44" x2="628.89" y2="789.1"/>
    <line class="cls-3" x1="621.74" y1="798.52" x2="630.7" y2="791.61"/>
    <line class="cls-3" x1="624.15" y1="801.46" x2="632.66" y2="793.99"/>
    <line class="cls-3" x1="626.74" y1="804.24" x2="634.77" y2="796.25"/>
    <line class="cls-3" x1="629.51" y1="806.85" x2="637.02" y2="798.38"/>
    <line class="cls-3" x1="632.43" y1="809.28" x2="639.39" y2="800.35"/>
    <line class="cls-3" x1="635.5" y1="811.52" x2="641.89" y2="802.18"/>
    <line class="cls-3" x1="638.7" y1="813.57" x2="644.49" y2="803.84"/>
    <line class="cls-3" x1="642.03" y1="815.41" x2="647.2" y2="805.34"/>
    <line class="cls-3" x1="645.47" y1="817.04" x2="649.99" y2="806.66"/>
    <line class="cls-3" x1="649" y1="818.45" x2="652.86" y2="807.81"/>
    <line class="cls-3" x1="652.61" y1="819.64" x2="655.8" y2="808.77"/>
    <line class="cls-3" x1="656.29" y1="820.59" x2="658.79" y2="809.55"/>
    <line class="cls-3" x1="660.02" y1="821.32" x2="661.82" y2="810.14"/>
    <line class="cls-3" x1="663.79" y1="821.8" x2="664.89" y2="810.54"/>
    <line class="cls-3" x1="667.59" y1="822.05" x2="667.97" y2="810.74"/>
    <line class="cls-3" x1="671.39" y1="822.07" x2="671.06" y2="810.75"/>
    <line class="cls-3" x1="675.18" y1="821.84" x2="674.15" y2="810.57"/>
    <line class="cls-3" x1="678.96" y1="821.37" x2="677.22" y2="810.19"/>
    <line class="cls-3" x1="682.7" y1="820.67" x2="680.26" y2="809.62"/>
    <line class="cls-3" x1="686.38" y1="819.74" x2="683.25" y2="808.86"/>
    <line class="cls-3" x1="690" y1="818.57" x2="686.19" y2="807.91"/>
    <line class="cls-3" x1="693.54" y1="817.18" x2="689.07" y2="806.78"/>
    <line class="cls-3" x1="696.98" y1="815.57" x2="691.87" y2="805.48"/>
    <line class="cls-3" x1="700.32" y1="813.75" x2="694.59" y2="803.99"/>
    <line class="cls-3" x1="703.54" y1="811.73" x2="697.2" y2="802.35"/>
    <line class="cls-3" x1="706.62" y1="809.5" x2="699.71" y2="800.54"/>
    <line class="cls-3" x1="709.56" y1="807.08" x2="702.09" y2="798.57"/>
    <line class="cls-3" x1="712.34" y1="804.49" x2="704.35" y2="796.46"/>
    <line class="cls-3" x1="714.95" y1="801.73" x2="706.48" y2="794.22"/>
    <line class="cls-3" x1="717.38" y1="798.8" x2="708.45" y2="791.84"/>
    <line class="cls-3" x1="719.62" y1="795.73" x2="710.28" y2="789.35"/>
    <line class="cls-3" x1="721.67" y1="792.53" x2="711.94" y2="786.74"/>
    <line class="cls-3" x1="723.51" y1="789.2" x2="713.44" y2="784.04"/>
    <line class="cls-3" x1="725.14" y1="785.77" x2="714.77" y2="781.24"/>
    <line class="cls-3" x1="726.55" y1="782.24" x2="715.91" y2="778.37"/>
    <line class="cls-3" x1="727.74" y1="778.62" x2="716.88" y2="775.44"/>
    <line class="cls-3" x1="728.69" y1="774.94" x2="717.65" y2="772.45"/>
    <line class="cls-3" x1="729.42" y1="771.21" x2="718.24" y2="769.41"/>
    <line class="cls-3" x1="729.91" y1="767.44" x2="718.64" y2="766.35"/>
    <line class="cls-3" x1="730.16" y1="763.65" x2="718.84" y2="763.26"/>
    <line class="cls-3" x1="730.17" y1="759.85" x2="718.85" y2="760.17"/>
    <line class="cls-3" x1="729.94" y1="756.05" x2="718.67" y2="757.08"/>
    <line class="cls-3" x1="729.47" y1="752.28" x2="718.29" y2="754.02"/>
    <line class="cls-3" x1="728.77" y1="748.54" x2="717.72" y2="750.98"/>
    <line class="cls-3" x1="727.84" y1="744.85" x2="716.96" y2="747.98"/>
    <line class="cls-3" x1="726.67" y1="741.23" x2="716.01" y2="745.04"/>
    <line class="cls-3" x1="725.29" y1="737.69" x2="714.88" y2="742.16"/>
    <line class="cls-3" x1="723.68" y1="734.25" x2="713.58" y2="739.36"/>
    <line class="cls-3" x1="721.85" y1="730.91" x2="712.1" y2="736.65"/>
    <line class="cls-3" x1="719.83" y1="727.7" x2="710.45" y2="734.03"/>
    <line class="cls-3" x1="717.6" y1="724.61" x2="708.64" y2="731.53"/>
    <line class="cls-3" x1="715.19" y1="721.68" x2="706.68" y2="729.14"/>
    <line class="cls-3" x1="712.59" y1="718.9" x2="704.57" y2="726.88"/>
    <line class="cls-3" x1="709.83" y1="716.29" x2="702.32" y2="724.76"/>
    <line class="cls-3" x1="706.91" y1="713.85" x2="699.94" y2="722.78"/>
    <line class="cls-3" x1="703.84" y1="711.61" x2="697.45" y2="720.96"/>
    <line class="cls-3" x1="700.63" y1="709.56" x2="694.84" y2="719.29"/>
    <line class="cls-3" x1="697.31" y1="707.72" x2="692.14" y2="717.79"/>
    <line class="cls-3" x1="693.87" y1="706.09" x2="689.35" y2="716.47"/>
    <line class="cls-3" x1="690.34" y1="704.68" x2="686.48" y2="715.32"/>
    <line class="cls-3" x1="686.73" y1="703.5" x2="683.54" y2="714.36"/>
    <line class="cls-3" x1="683.05" y1="702.54" x2="680.55" y2="713.58"/>
    <line class="cls-3" x1="679.31" y1="701.82" x2="677.51" y2="712.99"/>
    <line class="cls-3" x1="675.54" y1="701.33" x2="674.45" y2="712.6"/>
    <line class="cls-3" x1="671.75" y1="701.08" x2="671.36" y2="712.39"/>
    <line class="cls-3" x1="667.95" y1="701.07" x2="668.27" y2="712.38"/>
    <line class="cls-3" x1="664.15" y1="701.29" x2="665.19" y2="712.57"/>
    <line class="cls-3" x1="660.38" y1="701.76" x2="662.12" y2="712.95"/>
    <line class="cls-3" x1="656.64" y1="702.46" x2="659.08" y2="713.52"/>
    <line class="cls-3" x1="652.96" y1="703.4" x2="656.08" y2="714.28"/>
    <line class="cls-3" x1="649.34" y1="704.56" x2="653.14" y2="715.22"/>
    <line class="cls-3" x1="645.8" y1="705.95" x2="650.26" y2="716.35"/>
    <line class="cls-3" x1="642.35" y1="707.56" x2="647.46" y2="717.66"/>
    <line class="cls-3" x1="639.01" y1="709.38" x2="644.75" y2="719.14"/>
    <line class="cls-3" x1="635.8" y1="711.41" x2="642.14" y2="720.79"/>
    <line class="cls-3" x1="632.72" y1="713.63" x2="639.63" y2="722.6"/>
    <line class="cls-3" x1="629.78" y1="716.05" x2="637.24" y2="724.56"/>
    <line class="cls-3" x1="627" y1="718.64" x2="634.98" y2="726.67"/>
    <line class="cls-3" x1="624.39" y1="721.41" x2="632.86" y2="728.92"/>
    <line class="cls-3" x1="621.96" y1="724.33" x2="630.88" y2="731.29"/>
    <line class="cls-3" x1="619.71" y1="727.4" x2="629.06" y2="733.79"/>
    <line class="cls-3" x1="617.66" y1="730.6" x2="627.39" y2="736.39"/>
    <line class="cls-3" x1="615.82" y1="733.93" x2="625.9" y2="739.1"/>
    <line class="cls-3" x1="614.19" y1="737.36" x2="624.57" y2="741.89"/>
    <line class="cls-3" x1="612.78" y1="740.9" x2="623.42" y2="744.76"/>
    <line class="cls-3" x1="611.6" y1="744.51" x2="622.46" y2="747.7"/>
    <line class="cls-3" x1="610.64" y1="748.19" x2="621.68" y2="750.69"/>
    <line class="cls-3" x1="609.92" y1="751.92" x2="621.09" y2="753.72"/>
    <line class="cls-3" x1="609.43" y1="755.69" x2="620.7" y2="756.79"/>
    <line class="cls-3" x1="609.18" y1="759.49" x2="620.49" y2="759.87"/>
    <line class="cls-3" x1="609.17" y1="763.29" x2="620.48" y2="762.96"/>
    <line class="cls-3" x1="609.4" y1="767.08" x2="620.67" y2="766.05"/>
    <line class="cls-3" x1="609.86" y1="770.86" x2="621.05" y2="769.12"/>
    <line class="cls-3" x1="610.56" y1="774.59" x2="621.62" y2="772.15"/>
    <line class="cls-3" x1="611.5" y1="778.28" x2="622.38" y2="775.15"/>
    <line class="cls-3" x1="612.66" y1="781.9" x2="623.32" y2="778.09"/>
    <line class="cls-3" x1="614.05" y1="785.44" x2="624.45" y2="780.97"/>
    <line class="cls-3" x1="615.66" y1="788.88" x2="625.76" y2="783.77"/>
  </g>
  <g>
    <path class="cls-8" d="M622.49,862.88c-.6-.85-2.14-2.66-3.99-3.66-1.93-1.03-3.57-1.02-4.31.36-.85,1.58.41,3.23,2.19,4.19l2.03,1.09-2.06,3.83-1.91-1.03c-1.36-.72-3.3-1.22-4.03.14-.53.99.04,2.15,1.74,3.06,1.63.87,3.74,1.12,4.75,1.11l-1.05,4.44c-1.65.09-4.5-.54-7.22-2-4.3-2.31-5.69-5.83-4.18-8.64,1.11-2.06,3.13-3.05,5.96-2.59l.03-.06c-2.09-1.65-3.02-4.39-1.68-6.89,1.93-3.58,6.52-4.24,11.57-1.52,2.68,1.44,4.55,3.27,5.36,4.66l-3.19,3.49Z"/>
    <path class="cls-8" d="M587.25,854.05c.43.39.87.72,1.5,1.18,3.7,2.68,6.3,2.36,8.1,1.1l-.09-.07c-1.48.04-2.85-.48-4.33-1.65-2.83-2.25-3.85-6.28-.9-9.99,2.82-3.55,7.86-4.06,11.67-1.03,5.02,3.99,4.28,9.41,1.14,13.36-2.55,3.21-5.9,4.99-9.23,5.2-3.16.17-6.21-.89-9.19-3.15-.81-.57-1.23-.98-1.58-1.31l2.9-3.65ZM596.59,848.24c-.97,1.23-1.44,3.03.11,4.26.95.75,2.14.77,2.98.29.28-.13.56-.4.97-.92,1-1.47,1.46-3.47-.12-4.72-1.19-.94-2.79-.37-3.94,1.09Z"/>
    <path class="cls-8" d="M591.53,833.09l-25.76,4.29-1.95-2.47,25.76-4.3,1.96,2.48ZM571.92,819.74c3.61-2.85,7.51-1.92,9.59.71,2.24,2.83,1.86,6.66-1.3,9.17-2.93,2.32-6.96,2.42-9.52-.82-2.56-3.24-1.59-6.83,1.23-9.05ZM574.99,838.47c3.6-2.85,7.49-1.91,9.57.72,2.24,2.83,1.88,6.65-1.29,9.15-2.93,2.32-6.94,2.4-9.5-.84-2.56-3.24-1.61-6.81,1.21-9.04ZM577.33,826.14c1.65-1.3,2.37-2.72,1.53-3.77-.76-.96-2.12-.71-3.95.73-1.61,1.27-2.47,2.62-1.62,3.71.88,1.12,2.46.57,4.03-.67ZM580.4,844.88c1.65-1.3,2.35-2.7,1.51-3.76-.76-.96-2.1-.72-3.92.72-1.61,1.27-2.45,2.61-1.6,3.69.88,1.11,2.44.59,4.01-.65Z"/>
    <path class="cls-8" d="M560.53,797.44v.03s1.7,1.89,1.7,1.89l-2.15,1.23-2.42-2.74-.8-2.53,11.17-3.54.95,2.99-8.44,2.67Z"/>
    <path class="cls-8" d="M566.1,784.04l-2.57.55,1.07,4.97-2.05.44-7.69-2.52-.86-3.97,6.53-1.41-.27-1.26,2.35-.51.27,1.27,2.57-.55.64,2.99ZM561.18,785.11l-1.97.43c-.73.16-1.49.28-2.3.41v.07c.87.2,1.67.37,2.56.61l2.12.57h.04s-.45-2.08-.45-2.08Z"/>
    <path class="cls-8" d="M564.84,775.99l-12.66-5.57-.15-1.66,12.65,5.56.15,1.67ZM555.95,773.58c2.42-.22,3.87,1.33,4.03,3.1.17,1.9-1.09,3.49-3.22,3.68-1.97.17-3.77-.95-3.97-3.12-.19-2.18,1.26-3.48,3.16-3.65ZM556.49,777.99c1.11-.09,1.82-.52,1.76-1.22-.06-.65-.72-.93-1.95-.82-1.08.1-1.84.45-1.78,1.17.07.75.91.97,1.96.87ZM560.02,764.39c2.42-.22,3.88,1.33,4.04,3.1.17,1.9-1.11,3.49-3.24,3.68-1.97.18-3.78-.95-3.98-3.12-.19-2.18,1.28-3.48,3.17-3.65ZM560.56,768.8c1.11-.09,1.84-.52,1.77-1.22-.06-.65-.73-.93-1.96-.82-1.08.1-1.86.45-1.79,1.17.07.75.92.97,1.98.87Z"/>
    <path class="cls-8" d="M562.33,730.02c.81-.74,2.51-2.6,3.31-4.68.83-2.16.6-3.88-.95-4.48-1.77-.68-3.33.86-4.11,2.86l-.87,2.27-4.3-1.65.82-2.15c.58-1.53.84-3.62-.68-4.21-1.11-.43-2.25.32-2.98,2.23-.7,1.82-.68,4.08-.53,5.13l-4.8-.51c-.31-1.72-.04-4.8,1.13-7.85,1.86-4.83,5.37-6.75,8.51-5.54,2.31.89,3.62,2.88,3.51,5.92l.07.03c1.45-2.42,4.21-3.76,7.01-2.68,4.02,1.54,5.32,6.28,3.14,11.95-1.15,3-2.83,5.22-4.18,6.25l-4.09-2.89Z"/>
    <path class="cls-8" d="M569.41,712c-2.37-1.48-3.12-3.77-2.75-6.41l-.06-.04c-2.11,1.19-4.29,1.14-6.04.05-3.47-2.16-3.74-6.75-1.14-10.93,3.12-5.02,7.15-5.19,9.52-3.71,1.73,1.08,2.76,3.05,2.59,5.4l.06.04c1.72-1.29,4.41-2.13,7.06-.48,3.67,2.29,4.25,6.89,1.15,11.86-3.39,5.46-7.78,5.84-10.38,4.22ZM563.65,700.33c1.07.66,2.52.09,3.77-.96.31-.9-.09-2.25-1.08-2.87-1.08-.67-2.52-.73-3.4.69-.81,1.31-.33,2.5.71,3.15ZM575.52,701.76c-1.44-.9-3.13-.36-4.41.86-.41,1.38.04,2.66,1.28,3.43,1.2.75,2.95.56,3.83-.84.8-1.29.46-2.73-.69-3.45Z"/>
    <path class="cls-8" d="M582.37,676.86c3.39,3.5,2.81,7.69.26,10.16-2.75,2.66-6.81,2.69-9.78-.38-2.75-2.84-3.27-7.06-.13-10.1,3.14-3.04,7.01-2.42,9.65.32ZM576.19,683.24c1.54,1.61,3.1,2.19,4.12,1.19.93-.9.54-2.29-1.17-4.06-1.51-1.56-3.01-2.31-4.06-1.29-1.08,1.05-.36,2.63,1.11,4.15ZM589.8,693.72l-7.26-26.69,2.4-2.32,7.27,26.68-2.4,2.33ZM601.79,671.63c3.39,3.5,2.83,7.71.27,10.18-2.74,2.66-6.82,2.67-9.79-.4-2.75-2.84-3.29-7.08-.15-10.12s7.02-2.4,9.67.33ZM595.61,678.01c1.54,1.61,3.11,2.2,4.13,1.21.93-.9.52-2.31-1.19-4.08-1.51-1.56-3.03-2.32-4.08-1.31-1.08,1.05-.34,2.65,1.13,4.17Z"/>
    <path class="cls-8" d="M623.51,660.39c1.21.16,4.01.27,6.35-.55,2.43-.85,3.72-2.28,3.12-4.02-.7-2-3.12-2.21-5.38-1.43l-2.55.89-1.68-4.83,2.41-.84c1.71-.61,3.68-1.89,3.08-3.6-.43-1.25-1.89-1.67-4.04-.93-2.05.72-3.95,2.35-4.74,3.23l-3.01-4.44c1.24-1.5,4.05-3.48,7.47-4.67,5.43-1.89,9.58-.29,10.81,3.24.91,2.6.15,5.13-2.5,7.22l.03.08c3.09-.5,6.21.87,7.31,4.02,1.58,4.52-1.51,9.02-7.89,11.24-3.38,1.18-6.46,1.35-8.31.94l-.49-5.55Z"/>
    <path class="cls-8" d="M646.48,654.83c.81-.01,1.37-.09,2.56-.28,1.76-.26,3.56-.9,4.79-1.82,1.58-1.17,2.45-2.75,2.7-4.28l-.1-.05c-.91,1.07-2.38,1.79-4.62,2.07-4.25.53-8.57-1.8-9.24-7.08-.64-5.13,3.1-9.9,8.95-10.63,7.23-.91,10.99,4.15,11.71,9.91.66,5.27-.46,9.36-3.07,12.39-2.38,2.7-5.9,4.37-10.45,5.04-.89.14-1.91.2-2.56.22l-.69-5.5ZM649.64,642.06c.24,1.8,1.36,3.44,3.53,3.17,1.38-.17,2.14-.87,2.48-1.57.15-.4.17-.84.06-1.65-.23-2.03-1.3-4.34-3.67-4.04-1.65.21-2.71,1.84-2.4,4.1Z"/>
    <path class="cls-8" d="M683.85,640.44c-.79,5.35-4.88,7.68-8.78,7.11-4.2-.62-6.97-4.18-6.28-8.87.64-4.35,4-7.66,8.81-6.95,4.8.71,6.87,4.54,6.25,8.72ZM674.05,639.32c-.37,2.44.17,4.21,1.73,4.44,1.43.21,2.39-1.07,2.78-3.78.35-2.39,0-4.21-1.61-4.45-1.66-.24-2.56,1.46-2.91,3.79ZM674.03,658.4l18.6-24.46,3.66.54-18.59,24.46-3.68-.54ZM701.6,654.01c-.79,5.35-4.88,7.71-8.79,7.13-4.2-.62-6.97-4.21-6.28-8.9.64-4.35,4.01-7.69,8.81-6.98,4.8.71,6.87,4.57,6.25,8.75ZM691.79,652.89c-.37,2.45.16,4.24,1.73,4.47,1.43.21,2.39-1.11,2.79-3.81.35-2.39,0-4.24-1.6-4.48-1.66-.24-2.57,1.49-2.91,3.82Z"/>
    <path class="cls-8" d="M724.24,669.82c.35.62,1.26,1.94,2.45,2.74,1.23.83,2.34.93,2.94.04.68-1.01-.06-2.21-1.2-2.98l-1.29-.87,1.65-2.45,1.22.82c.87.58,2.15,1.04,2.73.18.43-.63.12-1.45-.97-2.18-1.04-.7-2.46-1.01-3.13-1.07l1.01-2.93c1.12.05,3.01.66,4.74,1.83,2.75,1.85,3.45,4.32,2.25,6.11-.89,1.32-2.31,1.85-4.2,1.35l-.03.04c1.3,1.25,1.75,3.17.68,4.76-1.54,2.29-4.69,2.43-7.92.26-1.71-1.15-2.86-2.51-3.31-3.5l2.39-2.15Z"/>
    <path class="cls-8" d="M736.55,683.81l2.2-2.55-4.94-4.26,1.76-2.04,9.82-3.37,3.95,3.41-5.6,6.49,1.26,1.09-2.02,2.34-1.26-1.08-2.2,2.55-2.97-2.56ZM740.77,678.92l1.69-1.96c.62-.72,1.32-1.44,2.04-2.2l-.07-.06c-1.03.45-1.98.91-3.08,1.34l-2.61,1.06-.04.02,2.07,1.79Z"/>
    <path class="cls-8" d="M744.01,691.16l17.38-3.5,1.38,1.63-17.38,3.5-1.38-1.64ZM755.11,687.13c-2.38,2.02-5.04,1.47-6.51-.27-1.58-1.87-1.43-4.47.66-6.24,1.94-1.64,4.65-1.79,6.46.35,1.81,2.14,1.25,4.59-.62,6.16ZM757.62,699.77c-2.38,2.01-5.06,1.48-6.53-.26-1.58-1.87-1.41-4.48.68-6.25,1.94-1.64,4.67-1.8,6.48.34,1.81,2.14,1.23,4.6-.63,6.17ZM751.3,682.9c-1.09.92-1.53,1.88-.94,2.58.54.63,1.44.44,2.65-.57,1.06-.9,1.6-1.83,1-2.54-.62-.74-1.67-.34-2.71.53ZM753.8,695.54c-1.09.92-1.55,1.9-.96,2.59.54.63,1.46.43,2.66-.59,1.06-.9,1.62-1.84,1.01-2.55-.62-.74-1.68-.33-2.72.54Z"/>
    <path class="cls-8" d="M765.98,726.16l2.13-.68,2.11,1.27c3.06,1.87,4.8,2.75,6.11,2.37.92-.29,1.39-1.11.98-2.4-.34-1.07-1.17-1.86-1.9-2.4l2.22-1.76c1.03.76,2.14,2.16,2.72,3.98.94,2.96-.1,5.22-2.62,6.01-2.04.65-4.13-.29-5.84-1.39l-1.39-.94h-.04s1.41,4.44,1.41,4.44l-2.9.92-2.99-9.42Z"/>
    <path class="cls-8" d="M772.73,735.9c1.56-.32,2.77.34,3.65,1.58h.04c.41-1.33,1.33-2.16,2.48-2.39,2.29-.46,4.19,1.33,4.75,4.08.67,3.3-.93,4.95-2.49,5.27-1.14.23-2.34-.19-3.18-1.23h-.04c-.21,1.21-1,2.62-2.74,2.97-2.42.49-4.46-1.19-5.12-4.47-.73-3.59.94-5.46,2.65-5.81ZM774.2,742.53c.95-.19,1.44-1.08,1.49-2.09-.37-.73-1.06-1.08-1.87-.92-.79.16-1.44.92-1.26,1.85.17.85.87,1.31,1.63,1.16ZM779.68,738.47c-.7.14-1.08.95-1.19,1.88.23.49.92.9,1.57.77.71-.14,1.33-.68,1.14-1.62-.17-.86-.84-1.17-1.52-1.03Z"/>
    <path class="cls-8" d="M771.68,751.39l14.23,6.76.11,1.9-14.23-6.76-.11-1.9ZM776.79,764.77c-2.77.17-4.38-1.64-4.5-3.66-.13-2.17,1.38-3.94,3.81-4.09,2.25-.14,4.28,1.2,4.43,3.69.15,2.49-1.57,3.93-3.73,4.06ZM776.32,759.73c-1.27.07-2.11.53-2.06,1.34.04.74.81,1.08,2.21,1,1.24-.07,2.13-.45,2.08-1.28-.05-.86-1.02-1.13-2.22-1.06ZM781.73,754.44c-2.77.17-4.37-1.64-4.49-3.66-.13-2.17,1.36-3.94,3.79-4.09,2.25-.14,4.26,1.2,4.41,3.69.15,2.49-1.55,3.93-3.72,4.06ZM781.27,749.4c-1.27.07-2.09.53-2.05,1.34.05.74.79,1.09,2.19,1,1.24-.07,2.11-.45,2.06-1.28-.05-.86-1-1.13-2.21-1.06Z"/>
    <path class="cls-8" d="M784.67,808.2l3.13-9.97-2.64-1.23c-.12.58-.25,1.02-.4,1.49-.83,2.62-2.32,5.17-4.32,6.61-1.99,1.45-4.37,1.76-7.25.86-4.66-1.47-7.75-6.97-5.41-14.41,1.01-3.21,2.53-5.69,3.72-6.98l4.91,2.84c-.9,1-2.33,3.2-3.05,5.48-.68,2.16-.7,4.95,1.7,5.7,2.32.73,4.28-.9,5.87-5.97.43-1.36.64-2.33.84-3.45l13.33,6.01-4.66,14.85-5.78-1.82Z"/>
    <path class="cls-8" d="M777.16,822.49l.04-.07.56-5.75,5.38,1.72-.86,8.29-3.01,5.26-23.18-13.27,3.55-6.21,17.52,10.03Z"/>
    <path class="cls-8" d="M726.7,859.99c-3.56-4.25-2.58-9,.52-11.6,3.34-2.8,7.98-2.47,11.1,1.26,2.9,3.46,3.16,8.31-.66,11.51-3.82,3.2-8.18,2.15-10.96-1.17ZM734.24,853.24c-1.62-1.95-3.36-2.76-4.6-1.72-1.13.95-.78,2.59,1.02,4.73,1.59,1.9,3.25,2.89,4.53,1.82,1.31-1.1.61-2.99-.94-4.84ZM742.13,835.86l6.07,30.93-2.91,2.44-6.08-30.93,2.92-2.45ZM749.2,855.64c-3.56-4.25-2.56-8.98.54-11.58,3.34-2.8,7.96-2.5,11.08,1.23,2.9,3.46,3.14,8.29-.68,11.49-3.82,3.2-8.16,2.17-10.95-1.15ZM756.74,848.89c-1.62-1.95-3.34-2.74-4.58-1.69-1.13.95-.8,2.56,1,4.71,1.59,1.9,3.23,2.87,4.51,1.8,1.32-1.1.63-2.96-.92-4.81Z"/>
  </g>
</svg>