<?xml version="1.0" encoding="UTF-8"?>
<svg xmlns="http://www.w3.org/2000/svg" viewBox="0 0 363.71 372.96">
  <defs>
    <style>
      .cls-1, .cls-2, .cls-3, .cls-4, .cls-5, .cls-6, .cls-7, .cls-8, .cls-9, .cls-10, .cls-11, .cls-12, .cls-13, .cls-14, .cls-15, .cls-16, .cls-17, .cls-18, .cls-19, .cls-20 {
        fill: none;
      }

      .cls-1, .cls-2, .cls-3, .cls-4, .cls-5, .cls-7, .cls-8, .cls-9, .cls-10, .cls-11, .cls-12, .cls-13, .cls-14, .cls-15, .cls-16, .cls-17, .cls-18, .cls-20 {
        stroke-miterlimit: 10;
      }

      .cls-1, .cls-2, .cls-8, .cls-13, .cls-18, .cls-20 {
        stroke-width: .5px;
      }

      .cls-1, .cls-15 {
        stroke: #de2933;
      }

      .cls-2, .cls-17 {
        stroke: #b9ce19;
      }

      .cls-3, .cls-5, .cls-11, .cls-15, .cls-16, .cls-17 {
        stroke-width: 2px;
      }

      .cls-3, .cls-12, .cls-13 {
        stroke: #b74d97;
      }

      .cls-4, .cls-11, .cls-20 {
        stroke: #f5ab0d;
      }

      .cls-4, .cls-12, .cls-14 {
        stroke-width: .75px;
      }

      .cls-21 {
        fill: #6c88c4;
      }

      .cls-5, .cls-9, .cls-10, .cls-14 {
        stroke: #e84e1b;
      }

      .cls-22 {
        fill: #2c67a0;
      }

      .cls-7 {
        stroke-width: 3px;
      }

      .cls-7, .cls-18 {
        stroke: #46777e;
      }

      .cls-8, .cls-16 {
        stroke: #6c88c4;
      }

      .cls-9 {
        stroke-width: .25px;
      }

      .cls-23 {
        isolation: isolate;
      }

      .cls-10 {
        stroke-width: .21px;
      }

      .cls-24 {
        fill: #dd2c42;
      }

      .cls-25 {
        fill: #b363a3;
      }

      .cls-26 {
        fill: #df5c18;
      }

      .cls-27 {
        fill: #ffd500;
      }

      .cls-19 {
        mix-blend-mode: screen;
      }

      .cls-28 {
        fill: #b9ce19;
      }
    </style>
  </defs>
  <g class="cls-23">
    <g id="Calque_1" data-name="Calque 1">
      <path class="cls-20" d="M229.56,139.88c19.05-54.21-61.08-103.66-150.26,83.92"/>
      <path class="cls-20" d="M229.56,139.88c10.66-24.66,162.77,98.28-106.35,144.68"/>
      <path class="cls-20" d="M229.56,139.88c10.77-24.91,117.85-48.11,2.96,152.59"/>
      <path class="cls-4" d="M229.56,139.88c10.04-23.22,63.74-8.8,64.18,42.79"/>
      <path class="cls-11" d="M225.89,143.45c21.43-22.58,20.44-28.8,20.7-38.15"/>
      <path class="cls-20" d="M229.69,139.24c-.92,2.12-2.89,6.29-3.8,8.4"/>
      <path class="cls-20" d="M230.41,138.19c10.2-23.6,24.17-98.23-145.7,10.84"/>
      <path class="cls-20" d="M230.41,138.19c10.2-23.6,34.67-62.7-75.64-49.76"/>
      <path class="cls-2" d="M253.95,177.81c56.08-12.48-9.94-134.42-169.24-28.78"/>
      <path class="cls-2" d="M253.95,177.81c26.57-3.98,71.62,199.77-174.65,45.99"/>
      <path class="cls-2" d="M253.95,177.81c26.84-4.03,99.93,96.54-130.74,106.75"/>
      <path class="cls-2" d="M253.95,177.81c25.02-3.75,86.55,22.85-21.43,114.66"/>
      <path class="cls-17" d="M246.03,180.88c25.43-3.81,48.71-16.98,47.7,1.79"/>
      <path class="cls-2" d="M254.56,177.58c-2.28.34-6.86.87-9.14,1.21"/>
      <path class="cls-2" d="M255.83,177.64c25.43-3.81,74.26-57.65-101.06-89.21"/>
      <path class="cls-2" d="M255.83,177.64c25.43-3.81,59.45-18.64-9.61-74.49"/>
      <path class="cls-18" d="M247.44,233.24c52.84,22.55,87.19-87.8-92.68-144.81"/>
      <path class="cls-18" d="M247.44,233.24c23.91,12.25-77.82,182.4-162.74-84.21"/>
      <path class="cls-18" d="M247.44,233.24c24.16,12.38-10.74,136.23-168.15-9.44"/>
      <path class="cls-18" d="M247.44,233.24c22.52,11.54,10.46,115.91-124.23,51.32"/>
      <path class="cls-7" d="M240.07,227.84c22.88,11.72,14.37,51.21-8.15,63.52"/>
      <path class="cls-18" d="M248.07,233.41c-2.05-1.05-6.08-3.29-8.14-4.34"/>
      <path class="cls-18" d="M249.07,234.2c22.88,11.72,83.15,5.46-2.85-131.05"/>
      <path class="cls-18" d="M249.07,234.2c22.88,11.72,53.62,23.48,44.66-51.53"/>
      <path class="cls-8" d="M136.59,247.8c-36.52,44.36,179.26,54.67,109.63-144.65"/>
      <path class="cls-8" d="M136.59,247.8c-18.49,19.49-107.55-34.84,18.18-159.37"/>
      <path class="cls-8" d="M139.47,245.07c-18.68,19.69-88.99-17.21-54.77-96.03"/>
      <path class="cls-8" d="M136.59,247.8c-17.41,18.36-47.86,5.97-57.29-24"/>
      <path class="cls-16" d="M139.47,245.07c-17.69,18.66-21.2,25.35-16.27,39.49"/>
      <path class="cls-8" d="M136.24,248.36c1.59-1.67,4.87-4.91,6.46-6.58"/>
      <path class="cls-8" d="M135.21,249.09c-17.69,18.66,52.96,121.25,158.53-66.43"/>
      <path class="cls-8" d="M135.21,249.09c-17.69,18.66-12.21,76.26,95.26,42.62"/>
      <line class="cls-19" x1="128.4" y1="205.57" x2="119" y2="207.68"/>
      <path class="cls-13" d="M113.88,208.98c-51.7,25.06,53.43,153.77,179.86-26.31"/>
      <path class="cls-13" d="M113.88,208.98c-24.93,10-88.59-109.86,132.34-105.83"/>
      <path class="cls-13" d="M113.88,208.98c-25.19,10.1-66.8-74.16,40.89-120.54"/>
      <path class="cls-13" d="M113.88,208.98c-23.48,9.41-55.34-22.17-29.17-59.94"/>
      <path class="cls-3" d="M118.08,206.9c-23.87,9.57-32.02,10.45-38.79,16.9"/>
      <path class="cls-13" d="M113.34,209.34c2.14-.86,6.48-2.43,8.62-3.29"/>
      <path class="cls-12" d="M112.09,209.57c-23.87,9.57-63.37,68.31,120.43,82.9"/>
      <path class="cls-13" d="M112.09,209.57c-23.87,9.57-53.58,31.04,10.76,72.84"/>
      <path class="cls-10" d="M179.55,128.32c-6.25-43.1-108.48-11.48-56.34,156.24"/>
      <path class="cls-9" d="M179.55,128.32c0-26.86,132.41-77.29,52.96,164.15"/>
      <path class="cls-10" d="M179.55,128.32c0-27.14,66.02-65.8,112.77,56.01"/>
      <path class="cls-10" d="M179.55,128.32c0-25.3,14.4-53.54,66.67-25.17"/>
      <path class="cls-5" d="M179.55,128.32c0-25.71-7.36-35.53-24.79-39.88"/>
      <path class="cls-14" d="M179.42,127.68c0,2.31-.16,6.92-.16,9.22"/>
      <line class="cls-6" x1="229.5" y1="223.47" x2="239.52" y2="229.26"/>
      <line class="cls-6" x1="239.97" y1="224.96" x2="231.92" y2="232.33"/>
      <line class="cls-6" x1="246.03" y1="176.46" x2="239.07" y2="180.88"/>
      <path class="cls-9" d="M179.67,126.43c0-25.71-56.54-76.75-100.37,97.37"/>
      <path class="cls-10" d="M179.67,126.43c0-25.71-29.02-72.17-95.01,20.42"/>
      <path class="cls-1" d="M123.64,154.96c-24.98-9.88,8.82-146.25,170.09,27.71"/>
      <path class="cls-1" d="M123.64,154.96c-25.24-9.98,12.48-92.13,122.58-51.81"/>
      <path class="cls-1" d="M123.64,154.96c-23.53-9.3-20.42-64.46,31.13-66.52"/>
      <path class="cls-15" d="M129.48,158.38c-23.91-9.46-35.42-10.23-44.77-10.2"/>
      <path class="cls-1" d="M123,154.84c2.14.85,6.37,2.69,8.52,3.54"/>
      <path class="cls-1" d="M121.93,154.16c-23.91-9.46-79.17,6.94,1.28,130.4"/>
      <path class="cls-1" d="M121.93,154.16c-23.91-9.46-60.64-4.94-42.63,69.65"/>
      <circle class="cls-24" cx="84.71" cy="149.03" r="2.18"/>
      <circle class="cls-25" cx="79.3" cy="223.8" r="2.18"/>
      <circle class="cls-21" cx="123.21" cy="284.56" r="2.18"/>
      <circle class="cls-22" cx="232.51" cy="292.47" r="2.18"/>
      <circle class="cls-28" cx="293.73" cy="182.67" r="2.18"/>
      <circle class="cls-27" cx="246.22" cy="103.15" r="2.18"/>
      <circle class="cls-26" cx="154.77" cy="88.43" r="2.18"/>
    </g>
  </g>
</svg>