<svg width="1762" height="600" viewBox="0 0 1762 600" fill="none" xmlns="http://www.w3.org/2000/svg">
<defs>
  <style>
    @keyframes letterFadeIn {
      0% { opacity: 0; transform: translateY(15px); }
      100% { opacity: 1; transform: translateY(0); }
    }
    .letter-group {
      transform-box: fill-box;
      transform-origin: center;
      opacity: 0;
      animation: letterFadeIn 0.8s cubic-bezier(0.25, 0.46, 0.45, 0.94) forwards;
    }
    .delay-1 { animation-delay: 0.1s; }
    .delay-2 { animation-delay: 0.3s; }
    .delay-3 { animation-delay: 0.5s; }
    .delay-4 { animation-delay: 0.7s; }
    .delay-5 { animation-delay: 0.9s; }
    .delay-6 { animation-delay: 1.1s; }
    .delay-7 { animation-delay: 1.3s; }
    .delay-8 { animation-delay: 1.5s; }
    .delay-9 { animation-delay: 1.7s; }
  </style>
</defs>

<!-- 1. M (MMI) -->
<g class="letter-group delay-1">
  <path d="M95.3992 225C107.099 189 91.1992 106.2 78.2992 62.1C64.7992 16.5 41.9992 8.09999 49.7992 68.1C56.0992 118.2 78.8992 211.2 90.8992 225H3.89922C0.899219 206.1 -0.000781307 184.8 2.99922 162C6.89922 130.8 13.1992 100.2 17.3992 69C20.6992 45 17.9992 18.6 3.89922 3.89999C22.1992 3.89999 114.599 3.89999 134.099 3.89999C122.399 97.5 112.499 162.6 137.399 162.6C161.999 162.6 152.099 97.5 140.399 3.89999C159.899 3.89999 252.299 3.89999 270.899 3.89999C256.499 18.6 254.099 45 257.099 69C261.299 100.2 267.599 130.8 271.499 162C274.499 184.8 273.599 206.1 270.599 225H183.599C195.599 211.2 218.399 118.2 224.999 68.1C232.499 8.09999 209.699 16.5 196.199 62.1C183.299 106.2 167.699 189 179.399 225C151.199 225 123.299 225 95.3992 225Z" fill="#1A00FF"/>
</g>

<!-- 2. S (SPEAK) -->
<g class="letter-group delay-2">
  <path d="M180.799 529.8L165.199 476.7C188.599 447 242.599 464.1 268.399 475.5C288.199 484.5 300.799 488.7 312.499 488.7C347.299 488.7 355.999 442.5 319.399 431.1C295.099 423.6 260.599 434.4 241.099 441.3C195.199 458.1 164.899 437.7 165.199 387C165.499 346.2 197.899 303.9 243.499 303.9C266.299 303.9 292.999 312.3 314.599 312.3C328.399 312.6 340.699 309.3 348.799 298.8L364.399 352.2C352.699 367.2 333.499 370.2 313.699 368.4C288.799 366 256.399 342.3 229.399 350.4C206.299 357.3 187.699 386.4 189.199 409.2C189.799 420.3 198.799 422.7 212.899 417C240.199 406.5 279.199 384.3 310.399 381.6C350.299 377.7 364.699 415.5 364.399 450C363.499 503.7 332.599 525 279.499 525C256.699 525 236.599 516.3 214.999 516.3C201.199 516.3 188.899 519.3 180.799 529.8Z" fill="#1A00FF"/>
</g>

<!-- 3. M (MMI) -->
<g class="letter-group delay-3">
  <path d="M376.356 225C388.056 189 372.156 106.2 359.256 62.1C345.756 16.5 322.956 8.09999 330.756 68.1C337.056 118.2 359.856 211.2 371.856 225H284.856C281.856 206.1 280.956 184.8 283.956 162C287.856 130.8 294.156 100.2 298.356 69C301.656 45 298.956 18.6 284.856 3.89999C303.156 3.89999 395.556 3.89999 415.056 3.89999C403.356 97.5 393.456 162.6 418.356 162.6C442.956 162.6 433.056 97.5 421.356 3.89999C440.856 3.89999 533.256 3.89999 551.856 3.89999C537.456 18.6 535.056 45 538.056 69C542.256 100.2 548.556 130.8 552.456 162C555.456 184.8 554.556 206.1 551.556 225H464.556C476.556 211.2 499.356 118.2 505.956 68.1C513.456 8.09999 490.656 16.5 477.156 62.1C464.256 106.2 448.656 189 460.356 225C432.156 225 404.256 225 376.356 225Z" fill="#1A00FF"/>
</g>

<!-- 4. P (SPEAK) -->
<g class="letter-group delay-4">
  <path d="M442.13 303.9C444.23 315.3 445.13 327.9 444.83 341.1C466.13 317.4 496.43 303.9 519.23 303.9C560.03 303.9 586.43 327 586.43 382.2C586.43 418.5 569.93 475.2 527.03 475.2C498.23 475.2 472.43 453 451.43 480L435.23 428.7C458.63 398.7 490.13 416.1 515.93 427.5C545.63 441 561.53 420.3 561.83 396.3C562.13 357 528.23 343.5 494.63 352.2C461.33 361.2 439.13 393.6 433.43 426.3C431.33 438 429.53 449.7 428.33 461.1C425.33 484.8 428.33 510.6 442.13 525H379.13C376.13 506.1 375.23 484.8 378.23 462C382.13 430.8 388.43 400.2 392.63 369C395.93 345 393.23 318.6 379.13 303.9H442.13Z" fill="#1A00FF"/>
</g>

<!-- 5. I (MMI) -->
<g class="letter-group delay-5">
  <path d="M633.208 3.89999C636.508 22.5 637.108 43.8 634.408 66.3C630.208 98.1 623.008 129.6 619.408 161.1C616.408 184.8 619.408 210.6 633.208 225H570.208C567.208 206.1 566.308 184.8 569.308 162C573.208 130.8 579.508 100.2 583.708 69C587.008 45 584.308 18.6 570.208 3.89999H633.208Z" fill="#1A00FF"/>
</g>

<!-- 6. Microphone -->
<g class="letter-group delay-6">
  <path d="M660.558 388.503L705.558 424.261L706.003 424.615L705.595 425.012L587.595 539.542L587.478 539.655L587.316 539.679C582.954 540.299 576.056 539.525 569.437 535.236C562.804 530.939 556.486 523.136 553.26 509.761L553.199 509.508L553.371 509.312L659.871 388.563L660.186 388.207L660.558 388.503ZM831.187 3.5038C856.272 -3.52839 889.481 -1.20732 929.959 23.08C935.011 24.8724 941.021 29.7929 942.774 38.7274C944.516 47.6028 942.037 60.338 930.451 77.787L940.152 83.5321C943.128 80.3074 947.553 74.6483 951.462 67.7919C955.494 60.719 958.957 52.4103 959.748 44.2167L959.828 43.3886L960.522 43.8485C965.704 47.2822 971.895 54.4163 973.701 64.6874C975.497 74.9037 972.941 88.1425 960.896 103.835L968.806 112.515C977.28 105.936 991.67 87.6399 984.271 64.6298L985.163 64.2001C992.848 75.802 1002.93 105.099 981.941 129.73L989.162 136.278L1002.34 117.567L1003.19 116.35L1003.25 117.838C1003.41 122.63 1002.94 130.451 1000.96 138.382C998.979 146.304 995.488 154.408 989.579 159.687L989.243 159.987L988.91 159.684L964.761 137.718L954.463 147.906L979.091 171.39L979.455 171.737L979.105 172.099L969.105 182.464L968.788 182.793L968.433 182.506L946.38 164.727L940.369 174.793L960.61 196.284L960.896 196.587L960.649 196.923L949.649 211.951L949.29 212.443L948.878 211.994L929.736 191.138L919.925 201.307L940.621 224.8L940.852 225.061L940.686 225.368L933.686 238.324L933.365 238.917L932.891 238.438L914.274 219.651L904.425 231.319L930.099 256.907L930.439 257.246L930.114 257.6L919.614 269.001L919.274 269.37L918.906 269.029L895.774 247.604L886.923 257.262L911.116 283.873L911.438 284.228L911.098 284.565L900.098 295.448L899.757 295.785L899.406 295.459L880.774 278.18L870.939 288.858L896.099 313.913L896.365 314.179L896.185 314.508C891.258 323.509 882.964 336.73 874.089 347.138C869.653 352.339 865.052 356.862 860.637 359.8C856.237 362.727 851.915 364.15 848.095 362.94C843.672 361.54 840.708 361.54 837.784 361.764C834.846 361.988 831.873 362.45 827.561 361.924C818.983 360.878 805.111 355.939 774.876 337.73C766.702 348.701 754.302 364.978 743.311 378.623C737.755 385.52 732.554 391.751 728.438 396.286C726.382 398.552 724.588 400.405 723.153 401.706C722.437 402.356 721.799 402.877 721.256 403.246C720.734 403.6 720.228 403.864 719.789 403.902C716.701 404.169 705.233 403.376 694.084 397.762C682.904 392.131 672.017 381.634 670.248 362.51L670.234 362.36L670.306 362.227C676.474 350.737 686.026 333.268 694.637 318.204C698.942 310.673 703.015 303.738 706.312 298.451C707.961 295.808 709.419 293.571 710.618 291.876C711.545 290.565 712.342 289.543 712.965 288.912C708.209 285.334 701.314 279.678 695.481 273.876C692.465 270.875 689.721 267.824 687.703 264.993C685.699 262.182 684.355 259.511 684.247 257.285C684.001 252.182 682.121 238.476 682.371 225.38C682.496 218.819 683.154 212.349 684.832 207.115C686.507 201.889 689.235 197.793 693.569 196.159L693.727 196.1L693.888 196.148L742.479 210.538L749.047 196.925L705.091 182.592L704.48 182.392L704.823 181.85L713.323 168.376L713.522 168.059L713.883 168.161L760.952 181.513L766.074 168.964L719.604 155.129L718.876 154.913L719.362 154.33L728.862 142.929L729.063 142.687L729.367 142.764L774.512 154.075L781.009 143.494L738.562 126.611L737.914 126.354L738.365 125.823L749.365 112.867L749.557 112.641L749.847 112.701L792.546 121.448L798.929 113.415L754.568 96.5565L754.033 96.3524L754.308 95.8495L760.808 83.9306L760.994 83.5878L761.371 83.6854L807.081 95.5302L817.355 84.3964L770.586 68.578L770.083 68.4081L770.283 67.9159L774.283 58.0692L774.436 57.6942L774.833 57.7655L829.92 67.539L835.083 53.4296L781.63 40.6054L780.962 40.4452L781.319 39.8593C789.211 26.8939 806.11 10.5336 831.187 3.5038ZM700.746 349.507C690.805 349.507 682.746 357.859 682.746 368.163C682.746 378.467 690.805 386.82 700.746 386.82C710.687 386.82 718.746 378.467 718.746 368.163C718.746 357.859 710.687 349.507 700.746 349.507Z" fill="#1A00FF"/>
</g>

<!-- 7. E (SPEAK) -->
<g class="letter-group delay-7">
  <path d="M1009.66 303.9C1031.26 303.9 1045.96 313.5 1061.26 312.6C1071.16 311.7 1080.76 308.4 1087.96 299.1L1103.56 352.5C1095.46 362.7 1083.46 367.5 1070.56 368.7C1036.66 372 1012.06 350.4 977.859 352.5C956.559 354 939.459 370.8 931.959 391.2C941.859 388.2 952.959 390 963.159 392.1C988.359 396.9 1016.26 405 1032.16 384.3L1047.76 426.3C1024.36 456.3 977.559 438.9 952.059 427.5C937.959 421.2 925.959 426.6 934.059 441.6C940.959 454.5 953.859 465.3 974.559 469.5C1016.26 478.2 1075.06 462.3 1103.56 434.1V501C1083.16 513.3 1039.36 525 1008.16 525C950.559 525 904.359 492.6 904.359 415.8C904.359 342.6 957.759 303.9 1009.66 303.9Z" fill="#1A00FF"/>
</g>

<!-- 8. A (SPEAK) -->
<g class="letter-group delay-8">
  <!-- Inner Cutout loop -->
  <path d="M1174.36 444.3C1187.86 444.3 1236.16 419.7 1251.76 437.7C1255.66 413.4 1260.46 387.9 1263.46 363.9C1235.56 393 1190.56 414.3 1174.36 444.3Z" fill="#1A00FF"/>
  <!-- Outer Body -->
  <path d="M1240.66 463.5C1223.86 449.7 1174.96 466.8 1169.26 487.5C1166.26 500.1 1174.06 516.3 1182.76 525H1120.06C1115.86 497.4 1112.56 459.3 1131.46 435.9C1155.46 405.6 1206.76 381 1225.36 355.8C1202.56 363 1167.16 370.5 1151.86 369C1138.96 367.8 1126.96 363 1119.16 353.1L1134.16 300C1154.56 326.1 1247.26 304.5 1278.16 303.9C1313.56 303.6 1316.86 331.8 1312.66 366.9C1308.76 398.1 1301.56 429.9 1297.96 461.4C1294.66 485.4 1297.96 510.6 1311.76 525H1249.06C1242.46 506.4 1252.36 473.4 1240.66 463.5Z" fill="#1A00FF"/>
</g>

<!-- 9. K (SPEAK) -->
<g class="letter-group delay-9">
  <path d="M1380.22 303.9C1383.52 322.5 1384.12 343.8 1381.42 366.3C1379.62 380.4 1377.22 394.2 1374.82 408.3C1383.82 406.5 1393.72 404.7 1403.62 403.8L1442.02 303.9H1510.72C1489.42 309.9 1465.42 370.8 1452.82 405.9C1484.32 412.5 1508.92 432 1508.92 475.8C1508.92 488.7 1500.82 515.4 1508.92 525H1426.72C1502.32 448.5 1424.02 423.9 1370.92 430.8C1369.12 441 1367.62 451.2 1366.42 461.1C1363.42 484.8 1366.42 510.6 1380.22 525H1317.22C1314.22 506.1 1313.32 484.8 1316.32 462C1320.22 430.8 1326.52 400.2 1330.72 369C1334.02 345 1331.32 318.6 1317.22 303.9H1380.22Z" fill="#1A00FF"/>
</g>

</svg>
